<?xml version="1.0" standalone="no"?>
<!DOCTYPE svg PUBLIC "-//W3C//DTD SVG 20010904//EN"
 "http://www.w3.org/TR/2001/REC-SVG-20010904/DTD/svg10.dtd">
<svg version="1.0" xmlns="http://www.w3.org/2000/svg"
 width="874.000000pt" height="874.000000pt" viewBox="0 0 874.000000 874.000000"
 preserveAspectRatio="xMidYMid meet">
<metadata>
Created by potrace 1.11, written by Peter Selinger 2001-2013
</metadata>
<g transform="translate(0.000000,874.000000) scale(0.100000,-0.100000)"
fill="#000000" stroke="none">
<path d="M4158 7795 c-1 -1 -38 -6 -80 -9 -42 -4 -87 -9 -100 -11 -12 -3 -38
-7 -58 -10 -20 -3 -47 -7 -60 -10 -24 -5 -74 -14 -112 -21 -102 -18 -351 -97
-498 -159 -100 -41 -288 -134 -295 -145 -3 -6 -15 -10 -26 -10 -10 0 -19 -4
-19 -8 0 -5 -12 -15 -27 -23 -40 -20 -232 -148 -269 -178 -17 -14 -48 -39 -69
-56 -21 -16 -56 -46 -79 -65 -44 -37 -258 -251 -291 -291 -17 -21 -100 -125
-122 -154 -29 -37 -118 -173 -157 -238 -51 -88 -160 -308 -170 -347 -4 -14
-11 -34 -16 -45 -9 -23 -21 -58 -22 -65 0 -3 -4 -12 -9 -21 -20 -37 -72 -249
-85 -344 -3 -22 -7 -46 -9 -53 -16 -49 -20 -388 -20 -2117 0 -1932 0 -1950 20
-1984 11 -19 37 -48 58 -65 l39 -31 2688 0 2688 0 39 31 c21 16 47 49 59 71
l21 41 -2 1974 c-1 1085 -5 1984 -7 1998 -6 25 -13 71 -23 148 -9 67 -74 314
-86 329 -6 7 -9 13 -6 13 6 0 -15 68 -33 105 -5 11 -21 49 -35 84 -15 35 -33
74 -41 86 -8 12 -12 24 -9 27 3 3 -1 11 -10 18 -8 7 -15 18 -15 24 0 6 -23 49
-50 95 -28 46 -50 88 -50 93 0 4 -4 8 -10 8 -5 0 -10 6 -10 13 0 8 -9 22 -20
32 -11 10 -20 22 -20 27 0 9 -109 154 -179 238 -76 91 -270 280 -371 361 -92
73 -290 214 -300 214 -3 0 -27 14 -55 32 -81 54 -320 167 -466 222 -119 44
-328 106 -399 117 -14 2 -45 8 -70 14 -56 11 -138 24 -230 36 -49 6 -516 15
-522 9z m73 -398 c9 -7 21 -21 27 -33 8 -14 11 -298 12 -965 0 -519 2 -1140 3
-1379 l2 -435 23 -33 c13 -17 31 -36 40 -41 25 -13 82 9 106 42 24 32 24 35
26 1931 1 593 5 867 13 881 26 50 86 61 113 20 19 -29 19 -40 9 -190 -13 -199
-10 -485 6 -530 17 -47 41 -49 75 -7 18 22 58 132 69 191 2 9 4 16 5 16 1 0 3
14 6 30 2 17 6 37 7 45 6 25 18 84 22 105 2 11 4 20 5 20 1 0 3 16 5 35 4 41
12 83 19 108 3 9 8 35 11 57 4 22 8 47 9 55 2 8 14 23 28 33 24 18 27 18 56 3
17 -9 36 -24 41 -34 8 -16 7 -81 -2 -127 -3 -11 -10 -52 -17 -92 -15 -93 -18
-108 -21 -108 -1 0 -3 -13 -4 -30 -2 -16 -3 -31 -4 -32 -1 -2 -1 -5 -2 -8 0
-2 -5 -19 -10 -37 -5 -18 -12 -49 -15 -68 -3 -19 -11 -44 -17 -55 -6 -11 -9
-21 -7 -23 5 -5 -35 -117 -45 -124 -5 -4 -6 -8 -2 -8 12 0 -47 -103 -93 -161
-69 -88 -107 -180 -115 -277 -9 -129 70 -161 195 -78 73 48 234 217 263 275
23 47 26 63 22 125 -2 39 -7 89 -11 111 -10 58 -10 269 0 345 4 36 9 76 11 90
2 14 4 27 5 30 1 3 2 8 1 13 -3 22 33 164 45 178 25 28 61 29 90 2 27 -24 28
-39 9 -131 -71 -356 -77 -473 -29 -513 7 -6 24 -9 38 -5 38 9 68 80 161 379
39 125 57 152 108 160 25 3 37 -2 59 -24 l28 -28 -31 -88 c-17 -48 -37 -101
-43 -118 -7 -16 -19 -46 -26 -65 -6 -19 -16 -44 -20 -55 -5 -11 -19 -45 -32
-75 -107 -260 -283 -502 -513 -705 -44 -38 -82 -72 -85 -75 -3 -3 -27 -24 -54
-45 -106 -85 -139 -125 -170 -205 -22 -54 -26 -78 -30 -150 -3 -72 8 -111 41
-145 24 -24 34 -26 73 -22 24 3 46 10 48 16 2 6 9 11 14 11 28 0 185 140 277
247 39 45 127 183 174 274 46 89 145 319 152 355 13 62 113 267 161 331 13 17
24 36 24 41 0 6 4 12 8 14 5 2 23 26 42 53 18 28 42 59 51 70 10 11 45 54 79
95 68 82 95 102 125 93 26 -7 66 -44 60 -54 -3 -4 -1 -10 4 -13 17 -11 -2 -50
-45 -96 -23 -25 -52 -56 -64 -70 -12 -14 -33 -38 -48 -55 -58 -65 -153 -198
-173 -242 -24 -53 -27 -86 -10 -107 14 -17 71 -4 113 25 14 11 29 19 32 19 7
0 113 76 132 94 6 6 23 20 39 31 15 11 62 53 104 93 104 101 130 112 166 72
44 -48 30 -86 -63 -177 -64 -63 -118 -108 -218 -180 -36 -27 -214 -120 -269
-141 -77 -29 -90 -34 -91 -30 -1 3 -72 -50 -90 -67 -26 -25 -60 -105 -59 -140
0 -11 9 -36 18 -56 26 -52 79 -74 182 -74 113 0 139 19 201 144 25 52 60 113
78 134 85 108 244 250 361 323 17 10 32 21 35 24 15 15 71 40 92 40 28 0 63
-29 73 -60 12 -39 -3 -69 -48 -91 -38 -20 -156 -92 -182 -111 -38 -29 -145
-118 -171 -143 -105 -100 -112 -194 -13 -178 38 6 152 52 218 89 24 13 49 24
56 24 8 0 15 4 17 8 5 12 226 123 256 128 36 7 72 -15 88 -51 23 -56 3 -75
-188 -168 -95 -47 -191 -93 -213 -103 -66 -29 -285 -104 -285 -98 0 4 -6 2
-12 -3 -7 -6 -20 -10 -28 -11 -8 0 -49 -7 -90 -15 -71 -14 -280 -16 -410 -3
-92 9 -111 -3 -280 -172 -85 -87 -164 -164 -175 -172 -22 -17 -96 -74 -135
-105 -103 -81 -201 -210 -215 -282 -21 -112 37 -202 131 -205 49 -1 87 28 122
95 105 204 239 339 487 494 20 13 231 116 270 133 139 58 240 96 349 129 98
31 296 75 391 87 28 3 59 8 69 10 11 2 65 6 120 10 56 4 110 7 121 8 66 7 126
-96 79 -135 -18 -15 -20 -15 -209 -23 -294 -13 -412 -34 -432 -79 -12 -26 0
-49 32 -61 11 -4 20 -6 20 -5 0 1 9 -2 20 -8 11 -6 45 -14 75 -18 30 -4 66 -9
80 -12 14 -2 124 -6 245 -8 213 -4 220 -5 236 -26 9 -13 15 -31 13 -42 -14
-76 -29 -81 -232 -81 -207 0 -322 10 -417 36 -22 6 -44 11 -50 12 -28 5 -85
31 -85 38 0 4 -6 8 -12 8 -7 0 -33 16 -57 35 -24 19 -53 35 -65 36 -12 0 -32
2 -45 3 -25 3 -109 -15 -151 -32 -14 -5 -39 -24 -57 -42 -27 -27 -31 -37 -28
-71 5 -48 30 -86 103 -157 96 -93 166 -123 230 -96 17 7 32 11 32 9 0 -1 21 4
48 12 77 24 153 33 292 33 117 0 341 -8 410 -15 80 -8 113 -81 58 -128 -20
-17 -35 -18 -153 -12 -71 4 -157 9 -190 11 -218 16 -319 7 -331 -28 -6 -20 23
-57 49 -62 7 -2 19 -6 27 -9 29 -11 85 -26 115 -31 17 -3 53 -10 80 -15 28 -5
57 -9 65 -9 8 0 26 -3 40 -6 14 -4 50 -8 80 -11 135 -11 166 -17 186 -36 22
-20 26 -37 18 -80 -6 -30 -35 -46 -79 -43 -61 3 -210 21 -210 24 0 1 -13 3
-30 5 -72 7 -260 53 -335 82 -8 4 -18 7 -22 8 -5 2 -10 4 -13 5 -3 1 -8 3 -12
5 -41 11 -203 92 -225 112 -10 9 -18 13 -18 9 0 -4 -13 3 -28 16 -16 12 -41
32 -57 43 -43 30 -108 90 -209 192 -86 87 -95 93 -132 93 -23 0 -44 -3 -48 -7
-4 -5 -12 -8 -16 -8 -14 0 -132 -81 -170 -117 -75 -69 -141 -179 -142 -235 -1
-58 3 -71 33 -106 52 -60 125 -76 240 -51 110 24 437 24 552 0 15 -3 37 -8 50
-11 61 -12 168 -45 192 -58 11 -6 25 -12 31 -13 10 -2 133 -69 178 -97 64 -40
187 -160 210 -205 21 -41 12 -78 -25 -97 -55 -29 -63 -25 -154 76 -41 46 -124
112 -185 147 -101 59 -238 112 -291 112 -33 0 -59 -23 -54 -47 2 -10 4 -21 4
-25 2 -16 188 -168 205 -168 3 0 31 -15 63 -34 32 -18 95 -46 141 -62 91 -30
107 -47 98 -99 -12 -62 -61 -81 -141 -55 -41 13 -165 71 -200 93 -63 40 -166
120 -202 158 -43 45 -107 129 -98 129 2 0 -8 21 -23 47 -17 28 -42 54 -65 66
-75 39 -228 25 -309 -29 -67 -43 -109 -133 -88 -188 17 -45 50 -57 162 -61
120 -4 148 -8 231 -37 209 -71 427 -235 427 -321 0 -28 -33 -66 -59 -68 -42
-3 -61 8 -121 70 -108 112 -272 189 -442 208 -61 7 -95 -2 -108 -28 -24 -45
77 -136 230 -209 114 -54 113 -54 126 -80 15 -29 1 -79 -28 -101 -17 -13 -29
-15 -57 -7 -20 6 -40 14 -45 19 -6 5 -18 9 -28 9 -9 0 -40 13 -68 30 -28 17
-53 30 -56 30 -9 0 -87 65 -126 105 -42 43 -108 147 -108 171 0 7 -4 14 -8 14
-7 0 -24 53 -38 113 -1 4 -2 8 -4 10 -5 6 -13 91 -24 267 -5 67 -16 98 -48
127 -59 55 -207 69 -288 28 -81 -41 -109 -90 -115 -200 -19 -330 -24 -618 -13
-700 22 -159 21 -152 43 -237 17 -71 60 -168 79 -181 19 -13 -46 -1 -89 17
-22 10 -40 18 -40 18 0 1 -11 -4 -23 -11 -21 -11 -23 -18 -19 -57 3 -29 0 -44
-8 -44 -13 0 -111 49 -145 73 -34 24 -43 22 -119 -22 -37 -22 -80 -43 -95 -47
-25 -6 -27 -5 -20 20 8 34 -2 72 -21 80 -9 3 -31 -1 -50 -8 -19 -8 -50 -17
-70 -20 l-36 -6 19 27 c38 55 64 129 87 253 35 191 37 293 11 842 -3 75 -7 92
-33 130 -42 63 -101 92 -190 95 -122 3 -199 -37 -221 -117 -5 -19 -10 -66 -11
-105 -7 -201 -35 -314 -109 -438 -32 -53 -136 -167 -153 -167 -4 0 -14 -6 -21
-13 -23 -21 -67 -47 -81 -47 -8 0 -20 -7 -27 -15 -7 -8 -27 -17 -46 -21 -19
-3 -37 -10 -40 -15 -3 -5 -9 -7 -14 -4 -5 3 -11 1 -15 -4 -10 -17 -64 9 -78
38 -26 52 -3 101 58 121 71 24 225 113 225 131 0 5 6 9 13 10 33 1 75 94 52
117 -14 14 -138 9 -198 -9 -164 -46 -255 -97 -352 -194 -65 -66 -75 -72 -101
-67 -61 14 -89 49 -71 91 27 66 159 176 284 240 145 73 213 90 372 96 73 3
110 8 127 20 91 59 15 220 -123 261 -81 25 -187 24 -238 -1 -31 -16 -49 -38
-90 -107 -50 -88 -101 -149 -166 -200 -70 -56 -87 -68 -97 -68 -6 0 -12 -4
-14 -8 -7 -19 -179 -101 -243 -117 -63 -15 -90 -6 -112 40 -22 46 -10 85 32
98 163 51 374 174 440 256 62 77 20 120 -90 90 -37 -10 -214 -87 -225 -99 -3
-3 -30 -22 -61 -43 -55 -37 -143 -120 -174 -163 -21 -31 -59 -38 -100 -18 -19
9 -36 19 -36 23 -7 36 -3 61 14 86 36 53 144 154 214 198 84 54 225 121 273
130 14 3 37 10 51 15 14 6 43 13 63 16 21 4 42 8 46 11 15 9 171 20 290 19
106 0 176 -5 260 -18 127 -20 173 -15 225 26 36 28 64 92 58 132 -22 139 -200
321 -356 362 l-50 13 -126 -124 c-176 -172 -246 -224 -411 -305 -77 -37 -226
-92 -282 -104 -272 -58 -389 -74 -484 -68 -24 2 -48 47 -42 83 7 47 49 62 199
73 31 2 69 7 85 10 16 3 45 8 64 10 99 13 225 44 272 67 34 17 58 53 44 67
-26 25 -124 31 -331 18 -304 -19 -320 -19 -345 2 -30 24 -32 75 -4 103 16 15
38 21 100 24 43 3 117 7 164 10 105 7 305 7 345 0 17 -3 48 -7 70 -10 33 -3
67 -9 83 -14 1 -1 3 -1 5 -1 1 0 27 -8 57 -18 70 -24 97 -22 153 11 49 29 153
126 179 167 44 72 27 131 -51 173 -55 30 -99 40 -167 39 -44 0 -60 -7 -125
-50 -69 -47 -142 -77 -214 -88 -16 -3 -43 -7 -60 -9 -119 -19 -450 -26 -508
-11 -62 15 -68 114 -8 133 31 10 193 9 210 -1 6 -4 11 -4 11 1 0 4 33 8 73 9
74 1 207 11 242 18 75 16 116 31 134 50 66 70 -67 108 -424 122 -210 8 -225
12 -225 61 0 66 48 99 140 94 132 -8 248 -20 335 -37 44 -8 91 -17 105 -19 37
-6 60 -12 110 -26 25 -7 51 -13 58 -15 7 -1 36 -10 65 -20 56 -18 74 -23 82
-24 3 0 19 -7 35 -15 17 -9 30 -13 30 -9 0 4 6 2 13 -3 6 -5 62 -29 122 -53
61 -24 112 -47 113 -52 2 -4 10 -8 18 -8 22 0 182 -87 284 -155 98 -65 235
-190 285 -260 16 -22 31 -42 34 -45 10 -9 41 -63 72 -127 33 -68 64 -94 117
-98 102 -6 168 122 124 239 -19 50 -88 156 -114 174 -10 8 -26 22 -36 31 -9
10 -73 63 -142 118 -69 55 -176 155 -239 221 -139 146 -163 161 -251 156 -270
-16 -345 -13 -515 21 -32 7 -147 41 -180 54 -144 57 -206 85 -354 158 -149 74
-175 90 -186 117 -11 25 -11 35 1 58 16 31 25 38 62 45 21 3 80 -22 257 -111
257 -128 265 -132 324 -141 58 -9 79 41 42 100 -23 38 -92 109 -156 161 -63
51 -171 124 -184 124 -5 0 -11 3 -13 8 -1 4 -25 19 -53 34 -61 33 -76 63 -53
111 11 23 26 36 50 43 31 10 39 7 108 -38 41 -26 82 -54 91 -62 9 -7 21 -15
26 -17 31 -12 263 -228 263 -245 0 -3 12 -20 26 -37 14 -17 46 -72 70 -121 58
-119 86 -139 193 -142 171 -5 248 92 176 224 -31 57 -72 89 -155 122 -198 78
-388 195 -515 317 -91 88 -115 119 -115 154 0 32 40 69 74 69 13 0 57 -35 111
-86 93 -88 265 -224 284 -224 6 0 11 -4 11 -9 0 -14 84 -43 111 -39 37 5 41
46 11 109 -14 30 -34 63 -44 73 -10 11 -18 23 -18 27 0 12 -97 129 -195 236
-82 89 -88 102 -67 144 24 48 62 65 102 44 16 -8 30 -19 30 -23 0 -4 17 -26
38 -49 34 -39 52 -60 100 -120 9 -12 25 -31 35 -42 9 -12 17 -25 17 -30 0 -4
9 -16 20 -26 11 -10 20 -24 20 -32 0 -7 5 -13 10 -13 6 0 10 -7 10 -15 0 -8 5
-15 10 -15 6 0 10 -7 10 -15 0 -8 5 -15 11 -15 5 0 8 -4 4 -9 -3 -5 -1 -13 5
-16 15 -9 74 -130 100 -205 12 -36 26 -74 30 -85 5 -11 32 -76 61 -145 123
-295 261 -496 438 -640 24 -19 48 -40 55 -45 6 -6 32 -21 57 -34 52 -28 104
-24 134 9 10 11 15 20 10 20 -4 0 -2 7 5 15 14 17 19 117 9 175 -8 45 -37 117
-62 155 -26 39 -47 59 -159 152 -105 87 -174 151 -258 238 -88 92 -180 207
-180 224 0 6 -4 11 -10 11 -5 0 -10 6 -10 14 0 8 -4 16 -8 18 -11 4 -80 126
-124 218 -49 104 -170 414 -179 460 -12 65 73 97 130 49 16 -14 60 -125 66
-169 1 -8 5 -22 8 -30 3 -8 20 -57 37 -108 37 -113 69 -183 90 -199 24 -20 48
-15 66 13 30 44 24 150 -23 392 -40 212 -40 223 5 246 45 23 86 -3 96 -59 3
-17 8 -41 11 -55 6 -27 10 -59 20 -130 3 -25 8 -56 12 -70 12 -51 11 -286 -2
-358 -7 -41 -12 -102 -11 -136 2 -82 33 -135 145 -247 159 -159 233 -191 291
-129 36 38 42 99 19 185 -14 56 -43 123 -58 135 -30 24 -146 211 -142 227 0 2
-1 8 -4 15 -27 82 -36 116 -50 175 -17 71 -33 150 -40 193 -2 14 -11 63 -20
110 -25 130 -26 179 -2 207 28 31 81 32 101 1 8 -13 17 -43 21 -68 4 -25 9
-54 11 -65 2 -11 6 -31 9 -45 2 -14 7 -36 9 -50 3 -14 8 -41 10 -60 4 -29 40
-197 50 -235 39 -150 78 -210 118 -181 10 8 21 36 27 72 11 73 6 373 -11 624
-4 60 58 101 103 67z m-1650 -4692 c22 -50 48 -106 56 -125 9 -19 17 -37 18
-40 1 -3 8 -21 17 -40 8 -19 61 -138 118 -265 56 -126 114 -257 130 -290 31
-68 29 -73 -45 -71 l-50 2 -65 147 -65 147 -240 0 -240 0 -59 -137 c-33 -76
-63 -143 -67 -148 -7 -10 -125 -14 -123 -4 0 2 8 21 17 42 10 20 23 52 31 70
8 17 30 67 50 110 20 43 36 80 36 82 0 2 16 39 36 82 39 84 55 120 75 171 8
17 17 32 21 32 5 0 7 3 6 8 -2 4 8 32 22 62 13 30 25 57 25 60 1 3 12 28 25
55 13 28 24 52 25 55 1 3 10 24 21 48 l19 42 53 -1 c29 -1 55 0 58 3 3 3 17 3
30 -1 20 -5 34 -25 65 -96z m926 95 c369 0 393 -2 470 -39 174 -85 216 -272
88 -394 -76 -72 -152 -93 -345 -95 -85 -1 -171 -1 -190 -2 l-36 0 1 -195 c1
-126 -3 -196 -10 -198 -5 -2 -32 -3 -60 -2 l-50 0 0 454 c0 249 2 456 5 460 7
10 33 19 42 14 4 -2 42 -3 85 -3z m1443 -3 c185 -3 185 -3 252 -35 140 -67
193 -187 143 -318 -15 -40 -94 -124 -116 -124 -5 0 -9 -5 -9 -10 0 -6 3 -9 8
-8 13 2 46 -14 70 -36 41 -37 53 -82 54 -201 0 -70 5 -122 14 -144 8 -18 14
-36 14 -40 0 -12 -119 -6 -131 6 -8 8 -13 59 -14 141 -4 169 -19 199 -116 231
-46 15 -428 20 -430 6 -1 -5 -2 -95 -3 -199 l-1 -190 -58 -1 c-34 -1 -57 3
-58 9 -1 6 -2 215 -3 464 l-1 453 78 -2 c43 -1 80 1 83 4 3 2 13 3 22 1 9 -2
100 -5 202 -7z m1445 -59 c15 -35 39 -88 53 -118 52 -116 74 -166 82 -185 5
-11 27 -60 49 -108 23 -49 41 -91 41 -93 0 -3 114 -262 142 -324 7 -14 13 -27
14 -30 2 -5 -97 -5 -117 -1 -5 1 -31 48 -34 61 0 3 -12 30 -26 60 -14 30 -36
81 -49 112 l-25 58 -236 0 c-178 0 -239 -3 -246 -12 -6 -7 -36 -71 -67 -143
-32 -71 -62 -132 -67 -135 -7 -5 -84 -5 -111 -1 -6 1 60 160 72 171 3 3 6 10
7 15 1 9 20 52 88 200 13 28 60 133 105 235 119 268 121 274 132 288 7 8 38
12 88 12 l77 0 28 -62z"/>
<path d="M4277 4279 c-18 -20 -17 -21 12 -51 17 -18 31 -34 31 -37 0 -4 -14
-19 -30 -35 -29 -27 -30 -29 -14 -47 23 -26 35 -24 65 10 l26 29 31 -30 c22
-20 38 -27 51 -23 31 10 31 31 0 61 -16 15 -29 31 -29 35 0 5 14 21 32 38 l32
30 -23 20 c-13 12 -25 21 -27 21 -2 0 -17 -15 -33 -32 l-30 -33 -34 33 c-18
17 -35 32 -37 31 -3 0 -13 -10 -23 -20z"/>
<path d="M4280 4010 l-22 -19 31 -31 c17 -18 31 -35 31 -38 0 -4 -14 -20 -31
-36 l-29 -30 22 -22 23 -21 34 33 33 33 33 -34 32 -35 22 24 21 23 -33 33 -33
34 33 31 33 31 -20 24 -20 23 -28 -24 c-15 -13 -30 -28 -35 -34 -4 -6 -19 3
-37 23 -16 17 -31 32 -33 32 -2 0 -14 -9 -27 -20z"/>
<path d="M4275 3740 c-17 -19 -17 -20 14 -49 35 -33 33 -49 -9 -84 l-22 -19
21 -19 c27 -25 31 -24 62 12 l26 30 32 -30 c39 -36 43 -37 65 -12 16 18 15 20
-17 53 l-33 34 32 31 c30 29 31 32 18 52 -20 28 -25 27 -63 -10 l-32 -31 -30
31 c-34 36 -40 37 -64 11z"/>
<path d="M2442 2678 c-6 -13 -32 -70 -57 -128 -70 -160 -86 -193 -96 -212 -5
-10 -9 -24 -9 -32 0 -8 -4 -16 -9 -18 -4 -1 -11 -12 -15 -23 -6 -20 -2 -21
199 -21 140 0 204 3 201 10 -2 6 -27 63 -55 127 -28 64 -51 122 -51 128 0 6
-4 11 -10 11 -5 0 -10 6 -10 13 0 8 -6 27 -14 43 -8 16 -24 50 -35 77 -11 26
-22 47 -24 47 -2 0 -9 -10 -15 -22z"/>
<path d="M3499 2703 c-6 -42 -3 -336 4 -340 10 -6 308 -6 347 1 93 15 170 93
170 172 0 68 -39 122 -111 153 -40 17 -72 19 -228 21 -99 0 -182 -3 -182 -7z"/>
<path d="M4689 2708 c-1 -2 -2 -81 -3 -175 l-1 -173 35 -1 c19 0 108 0 198 0
139 0 169 3 207 20 157 70 163 236 10 310 -34 16 -65 19 -242 20 -112 1 -204
1 -204 -1z"/>
<path d="M6267 2669 c-8 -19 -36 -81 -62 -139 -26 -58 -56 -125 -66 -150 -11
-25 -26 -56 -33 -70 -8 -14 -16 -34 -18 -45 -3 -19 3 -20 190 -20 105 -1 196
1 201 4 5 4 -7 39 -26 80 -19 40 -36 79 -37 85 -2 6 -20 47 -40 91 -21 44 -45
98 -54 120 -8 22 -21 48 -28 59 -12 17 -14 16 -27 -15z"/>
</g>
</svg>
