<?xml version="1.0" encoding="utf-8"?>
<!-- Generator: Adobe Illustrator 16.0.0, SVG Export Plug-In . SVG Version: 6.00 Build 0)  -->
<!DOCTYPE svg PUBLIC "-//W3C//DTD SVG 1.1//EN" "http://www.w3.org/Graphics/SVG/1.1/DTD/svg11.dtd">
<svg version="1.1" id="Layer_1" xmlns="http://www.w3.org/2000/svg" xmlns:xlink="http://www.w3.org/1999/xlink" x="0px" y="0px"
	 width="437.048px" height="414.761px" viewBox="0 0 437.048 414.761" enable-background="new 0 0 437.048 414.761"
	 xml:space="preserve">
<path fill="#FFFFFF" d="M218.523,359.273H87.713h-0.16c-5.191,0-9.4-4.209-9.4-9.398l0.016-10.922l0.006-171.836
	c-0.021-0.871-0.035-1.744-0.035-2.619c0-1.752,0.053-3.494,0.135-5.227v-0.105h0.006c3.197-65.232,64.766-123.678,140.244-123.678
	S355.57,93.934,358.768,159.166h0.006v0.105c0.082,1.732,0.135,3.475,0.135,5.227c0,0.875-0.014,1.748-0.037,2.619l0.008,171.836
	l0.016,10.922c0,5.189-4.209,9.398-9.4,9.398h-0.16H218.523z M118.762,285.699l-20.664,46.26h6.186l6.512-14.725h23.98l6.51,14.725
	h6.229l-20.502-46.26H118.762z M133.117,313.521h-20.664l10.352-23.246L133.117,313.521z M168.783,331.959h5.986v-19.83h15.365
	c2.723,0,5.137-0.375,7.238-1.127c2.104-0.752,3.875-1.746,5.318-2.984c1.441-1.238,2.535-2.652,3.275-4.244
	s1.113-3.229,1.113-4.908c0-1.568-0.373-3.139-1.113-4.709s-1.826-2.979-3.256-4.229c-1.428-1.246-3.193-2.266-5.297-3.051
	c-2.102-0.783-4.529-1.178-7.279-1.178h-21.352V331.959z M174.77,290.178h15.365c1.564,0,3.014,0.215,4.348,0.646
	c1.334,0.43,2.494,1.033,3.477,1.807c0.984,0.773,1.752,1.686,2.307,2.736c0.553,1.051,0.83,2.193,0.83,3.432
	c0,1.26-0.299,2.432-0.891,3.516c-0.594,1.084-1.396,2.033-2.406,2.852c-1.012,0.818-2.178,1.459-3.498,1.924
	c-1.32,0.463-2.709,0.695-4.166,0.695H174.77V290.178z M268.385,298.865c0-1.568-0.371-3.139-1.111-4.709
	c-0.742-1.57-1.834-2.979-3.277-4.229c-1.441-1.246-3.223-2.266-5.336-3.051c-2.117-0.783-4.553-1.178-7.301-1.178h-23.051v46.26
	h5.986v-19.83h17.064c1.887,0,3.492,0.211,4.812,0.631c1.32,0.422,2.393,0.973,3.215,1.656c0.822,0.686,1.416,1.465,1.779,2.34
	c0.365,0.873,0.547,1.752,0.547,2.635v7.361c0,0.332,0.014,0.725,0.039,1.18c0.027,0.451,0.082,0.922,0.162,1.408
	c0.082,0.486,0.195,0.955,0.344,1.408s0.357,0.857,0.627,1.211h6.51c-0.512-0.773-0.936-1.631-1.271-2.568
	c-0.34-0.941-0.508-1.908-0.508-2.902v-6.965c0-1.016-0.1-2.018-0.303-3c-0.201-0.984-0.566-1.891-1.092-2.717
	c-0.525-0.832-1.252-1.562-2.184-2.191c-0.93-0.629-2.139-1.1-3.619-1.408c1.32-0.598,2.473-1.305,3.457-2.123
	c0.982-0.818,1.814-1.719,2.488-2.703c0.672-0.982,1.178-2.027,1.516-3.133S268.385,300.016,268.385,298.865 M234.295,290.178
	h17.064c1.562,0,3.02,0.215,4.367,0.646c1.35,0.43,2.514,1.033,3.498,1.807s1.754,1.686,2.307,2.736
	c0.551,1.051,0.826,2.193,0.826,3.432c0,1.26-0.295,2.432-0.889,3.516c-0.592,1.084-1.395,2.033-2.406,2.852
	c-1.01,0.818-2.176,1.459-3.498,1.924c-1.32,0.463-2.723,0.695-4.205,0.695h-17.064V290.178z M310.197,285.699l-20.664,46.26h6.188
	l6.51-14.725h23.98l6.51,14.725h6.229l-20.502-46.26H310.197z M324.553,313.521h-20.664l10.354-23.246L324.553,313.521z
	 M228.498,268.168c-0.672-2.285-0.701-3.688-0.096-4.523c0.363-0.504,0.92-0.77,1.605-0.77c0.85,0,1.787,0.408,2.705,0.805
	c0.459,0.197,0.891,0.385,1.211,0.469c1.373,0.363,2.553,0.557,3.418,0.561c-6.01-4.602-7.256-27.537-7.307-28.551
	c0.012-0.234,1.139-23.504,1.139-27.904c0-10.982,10.326-11.111,10.766-11.111l0.318-0.006c0.217-0.006,0.502-0.014,0.84-0.014
	c4.041,0,10.818,1.154,10.818,8.896c0,9,0.766,15.637,4.676,22.926c3.992,7.439,10.693,12.555,20.488,15.641
	c0.42,0.131,0.826,0.197,1.209,0.197c1.973,0,3.143-1.76,3.395-3.395c0.244-1.598-0.299-3.725-2.633-4.461
	c-5.598-1.764-14.162-7.154-15.59-10.463c-0.322-0.748-0.34-1.428-0.053-2.02c0.426-0.879,1.582-1.307,3.537-1.307
	c6.172,0,20.084,4.166,25.832,12.471c0.783,1.131,1.932,1.756,3.23,1.756c1.582,0,3.162-0.91,3.844-2.213
	c0.557-1.061,0.428-2.273-0.363-3.416c-5.516-7.971-16.088-12.494-21.898-14.479c-3.994-1.365-7.723-1.387-10.723-1.404
	c-2.709-0.016-4.85-0.027-6.373-0.975c-1.111-0.691-1.748-1.834-1.84-3.307c-0.164-2.6,1.465-5.688,4.145-7.865
	c2.086-1.693,6.59-2.971,10.479-2.971c2.143,0,5.148,0.375,7.299,2.158c0.475,0.393,0.84,1.131,1.398,2.25
	c1.072,2.152,2.867,5.754,6.756,9.627c5.602,5.58,15.439,11.205,21.932,12.539c0.299,0.062,0.592,0.094,0.875,0.094
	c2.312,0,3.768-2.051,3.965-3.98c0.152-1.502-0.469-3.268-2.672-3.721c-7.203-1.482-20.867-10.006-22.844-14.25
	c-0.387-0.83-0.41-1.564-0.074-2.186c0.412-0.762,1.27-1.148,2.553-1.148c5.236,0,20.311,7.111,26.127,15.707
	c0.775,1.145,1.916,1.775,3.209,1.775c1.588,0,3.125-0.887,3.826-2.205c0.568-1.072,0.451-2.299-0.332-3.457
	c-6.76-9.984-21.008-17.682-36.301-19.609c-3.162-0.398-6.504-0.6-9.934-0.6c-8.371,0-15.086,1.18-17.615,1.623l-0.688,0.117
	c-0.449,0.074-0.908,0.111-1.363,0.111c-2.148,0-4.326-0.838-5.975-2.301c-1.666-1.475-2.621-3.418-2.621-5.332
	c0-8.34,13.131-19.424,19.137-19.424c0.77,0,1.434,0.172,1.971,0.512c1.297,0.818,2.682,2.311,4.443,4.207
	c3.482,3.752,8.746,9.422,17.791,14.488c14.146,7.922,31.617,10.102,40.771,10.697c0.111,0.008,0.219,0.012,0.326,0.012
	c2.236,0,3.293-1.68,3.348-3.344c0.062-1.898-1.172-3.904-3.646-4.066c-0.301-0.02-29.947-2.281-29.947-7.314
	c0-1.705,1.898-2.309,7.252-2.309c3.926,0,9.018,0.354,13.947,0.697c4.043,0.281,7.861,0.549,10.516,0.568
	c2.457,0,3.617-1.789,3.654-3.451c0.039-1.762-1.1-3.709-3.695-3.824c-2.428-0.109-4.734-0.238-7.076-0.371
	c-4.533-0.256-8.816-0.496-13.072-0.496c-4.094,0-7.709,0.219-11.379,0.689c-2.129,0.273-5.801,1.414-8.488,2.248
	c0,0-1.189,0.369-1.629,0.502c-0.127,0.039-0.271,0.045-0.348,0.045c-4.582,0.002-14.568-9.24-14.639-13.545
	c-0.02-1.225,0.494-2.379,1.525-3.428c2.123-2.156,6.461-3.664,10.547-3.664c1,0,1.949,0.09,2.818,0.268
	c0.883,0.182,1.514,0.721,2.391,1.465c1.447,1.234,3.635,3.1,8.816,4.58c6.414,1.828,15.531,2.211,22.049,2.211
	c3.512,0,6.551-0.109,8.48-0.201c2.48-0.119,3.734-2.074,3.689-3.943c-0.041-1.664-1.109-3.344-3.404-3.344l-0.244,0.004
	c-1.773,0.086-3.92,0.131-6.211,0.131c-7.818,0-26.07-0.457-26.703-4.686c-0.084-0.559,0.07-1.078,0.461-1.545
	c2.273-2.727,14.434-3.336,27.771-3.766l2.141-0.07c2.242-0.078,3.012-1.684,2.988-3.035c-0.039-2.201-1.859-4.541-5.156-4.541
	c-0.109,0-0.217,0.002-0.324,0.008c-22.826,1.004-38.779,6.271-55.711,13.869c-10.33,4.641-18.754,10.258-25.035,16.697
	c-3.029,3.109-7.791,9.754-9.16,13.342c-1.086,2.85-3.201,4.484-5.799,4.484c-2.209,0-4.336-1.219-5.691-3.264
	c-2.371-3.582-1.473-6.938,0.881-11.523c2.381-4.637,6.453-7.801,13.197-13.043l2.463-1.92c3.154-2.469,6.523-6.057,9.506-9.236
	c3.752-3.998,6.992-7.451,9.109-7.865c0.676-0.133,1.439-0.197,2.332-0.197c1.398,0,2.949,0.154,4.754,0.332
	c2.391,0.238,5.1,0.508,8.326,0.508c3.955,0,7.816-0.414,11.803-1.266c14.793-3.154,31.201-12.086,36.594-15.021
	c1.578-0.857,2.275-2.328,1.869-3.932c-0.418-1.641-1.963-3.303-4.109-3.303c-0.635,0-1.277,0.152-1.916,0.451
	c-1.902,0.895-4.584,2.32-7.422,3.828c-7.209,3.83-16.182,8.598-19.811,8.598c-1.441,0-2.023-0.68-2.258-1.25
	c-2.113-5.121,14.768-17.305,22.602-20.891c1.494-0.686,2.174-2.068,1.818-3.701c-0.396-1.816-2.008-3.693-4.021-3.693
	c-0.641,0-1.285,0.197-1.914,0.586c-8.275,5.129-17.604,11.668-24.031,21.277c-1.002,1.498-1.674,3.027-2.328,4.512
	c-1.057,2.402-1.971,4.477-3.979,5.904c-1.223,0.867-3.568,1.406-6.119,1.406c-4.252,0-7.617-1.4-9.006-3.744
	c-0.994-1.682-1.027-3.924-0.092-6.312c1.281-3.281,4.08-6.064,6.963-6.928c4.176-1.254,8.121-3.221,14.387-6.645
	c7.102-3.881,13.939-10.244,17.639-14.514c1.104-1.27,1.373-2.795,0.74-4.182c-0.617-1.354-1.936-2.262-3.281-2.262
	c-0.975,0-1.904,0.48-2.693,1.389c-4.602,5.311-18.822,16.896-22.971,16.896c-0.613,0-1.104-0.193-1.457-0.578
	c-3.43-3.738,10.225-18.758,16.256-25.043c1.119-1.164,1.404-2.67,0.783-4.127c-0.703-1.648-2.289-2.801-3.855-2.801
	c-0.936,0-1.814,0.438-2.541,1.266c-7.982,9.119-17.621,21.262-21.318,34.354l-1.025,2.527c-3.666,9.055-6.834,16.875-12.834,25.266
	c-5.479,7.662-15.766,17.021-19.965,17.021c-1.893-0.047-3.365-1.076-4.262-2.971c-2.115-4.477-0.432-13.184,3.533-18.27
	c0.914-1.172,1.258-1.447,2.717-2.615c1.508-1.209,4.314-3.463,10.484-8.924c18.996-16.818,24.725-32.699,31.357-51.09l0.752-2.08
	c0.416-1.146,0.342-2.17-0.211-2.959c-0.633-0.902-1.855-1.463-3.191-1.463c-1.479,0-3.332,0.758-4.1,2.881
	c-0.691,1.91-1.496,4.572-2.367,7.453c-3.494,11.57-5.426,17.021-8.039,17.021c-0.326,0-0.641-0.086-0.934-0.258
	c-3.371-1.975-1.512-12.596,1.271-26.273c0.207-1.02,0.4-1.969,0.57-2.828c0.322-1.621-0.172-2.643-0.643-3.217
	c-0.625-0.762-1.615-1.217-2.646-1.217c-1.355,0-2.947,0.828-3.352,3.154l-0.156,0.896c-0.996,5.723-2.504,14.373-2.584,20.336
	c-0.074,5.312,0.49,8.703,0.943,11.432c0.404,2.422,0.725,4.336,0.4,6.539c-0.666,4.518-4.299,8.045-8.506,12.127l-0.627,0.609
	c-4.703,4.584-8.277,6.811-10.93,6.811c-0.832,0-1.59-0.209-2.254-0.625c-4.369-2.736-0.158-13.088,0.852-15.014
	c1.115-2.123,2.125-3.344,3.195-4.637c1.865-2.256,3.795-4.586,6.486-12.645c2.189-6.545,3.779-16.059,4.941-23.016l0.041-0.246
	c0.299-1.797,0.57-3.414,0.814-4.756c0.246-1.342-0.053-2.602-0.84-3.547c-0.77-0.922-1.908-1.473-3.049-1.473
	c-1.521,0-2.621,1.041-2.939,2.783c-0.305,1.658-0.631,3.545-0.998,5.666c-2.979,17.219-5.207,28.504-8.877,28.504
	c-0.16,0-0.322-0.02-0.48-0.061c-0.879-0.225-3.557-0.91-0.98-35.225c0-2.357-1.334-4.006-3.244-4.006
	c-2.123,0-3.852,1.783-3.852,3.975l-0.285,134.377c0,4.951-2.471,6.361-3.533,6.736c-0.219,0.078-0.535,0.17-0.672,0.17
	c-0.008,0-0.014,0-0.02,0c-0.078,0.025-0.158,0.039-0.213,0.039c-0.006,0-0.01,0-0.016,0c-0.072,0.01-0.146,0.021-0.279,0.021
	c-0.059,0-0.127-0.002-0.209-0.008c-0.02,0.004-0.129,0.014-0.148,0.014c-0.064,0-0.109-0.012-0.172-0.027
	c-0.291-0.033-0.588-0.104-0.879-0.207c-1.062-0.377-3.533-1.789-3.533-6.736l-0.285-134.381c0-2.189-1.729-3.973-3.854-3.973
	c-1.908,0-3.242,1.625-3.244,3.932c2.572,34.389-0.1,35.074-0.979,35.299c-0.156,0.041-0.316,0.061-0.479,0.061
	c-3.67,0-5.9-11.297-8.883-28.533c-0.354-2.041-0.686-3.955-0.994-5.637c-0.318-1.742-1.418-2.783-2.939-2.783
	c-1.139,0-2.279,0.551-3.049,1.473c-0.787,0.945-1.086,2.205-0.842,3.547c0.26,1.418,0.549,3.143,0.867,5.061
	c1.158,6.924,2.742,16.406,4.93,22.957c2.693,8.057,4.623,10.389,6.49,12.643c1.068,1.291,2.078,2.51,3.195,4.639
	c1.68,3.201,3.641,11.941-0.189,14.34c-0.758,0.475-1.549,0.707-2.416,0.707c-2.377,0-5.195-1.803-9.73-6.219l-0.645-0.627
	c-4.197-4.078-7.82-7.6-8.486-12.109c-0.322-2.195-0.002-4.113,0.402-6.545c0.455-2.719,1.02-6.104,0.945-11.426
	c-0.086-5.953-1.59-14.611-2.586-20.34l-0.156-0.895c-0.402-2.324-1.994-3.152-3.35-3.152c-1.033,0-2.023,0.455-2.65,1.219
	c-0.471,0.57-0.965,1.594-0.645,3.217c0.17,0.852,0.361,1.797,0.568,2.809c2.787,13.688,4.65,24.314,1.279,26.289
	c-0.293,0.174-0.607,0.26-0.936,0.26c-2.611,0-4.549-5.465-8.053-17.064c-0.852-2.814-1.654-5.473-2.354-7.41
	c-0.77-2.123-2.623-2.881-4.1-2.881c-1.338,0-2.562,0.561-3.195,1.463c-0.553,0.791-0.627,1.814-0.211,2.961l0.754,2.086
	c6.635,18.387,12.367,34.268,31.357,51.082c6.184,5.473,8.992,7.727,10.502,8.938c1.439,1.154,1.781,1.428,2.699,2.602
	c3.992,5.115,5.707,13.836,3.6,18.299c-0.887,1.877-2.377,2.895-4.314,2.943c-4.129,0-14.611-9.52-19.977-17.023
	c-6.006-8.396-9.178-16.227-12.85-25.299l-1.047-2.598c-3.668-13.006-13.303-25.137-21.285-34.25
	c-0.727-0.828-1.604-1.266-2.539-1.266c-1.568,0-3.152,1.15-3.855,2.799c-0.619,1.459-0.334,2.965,0.785,4.131
	c6.031,6.283,19.688,21.305,16.252,25.043c-0.354,0.383-0.844,0.576-1.459,0.576c-4.145,0.002-18.363-11.584-22.969-16.896
	c-0.787-0.908-1.719-1.389-2.691-1.389c-1.344,0-2.662,0.908-3.279,2.26c-0.633,1.389-0.363,2.914,0.74,4.186
	c3.699,4.268,10.537,10.629,17.637,14.512c6.266,3.424,10.211,5.391,14.387,6.645c2.885,0.863,5.684,3.648,6.965,6.928
	c0.934,2.389,0.9,4.631-0.096,6.311c-1.385,2.346-4.75,3.746-9.004,3.746c-2.551,0-4.896-0.539-6.119-1.408
	c-2.01-1.426-2.926-3.508-3.99-5.928c-0.646-1.473-1.318-2.994-2.316-4.486c-6.428-9.609-15.756-16.148-24.033-21.277
	c-0.627-0.389-1.271-0.586-1.912-0.586c-2.012,0-3.625,1.877-4.02,3.691c-0.357,1.633,0.324,3.018,1.818,3.703
	c7.834,3.588,24.717,15.771,22.602,20.893c-0.236,0.57-0.82,1.248-2.258,1.248c-3.625,0-12.625-4.781-19.857-8.623
	c-2.814-1.496-5.473-2.908-7.373-3.803c-0.637-0.299-1.281-0.451-1.914-0.451c-2.148,0-3.695,1.662-4.113,3.305
	c-0.408,1.604,0.291,3.072,1.867,3.93c5.395,2.936,21.809,11.867,36.592,15.021c3.988,0.852,7.85,1.266,11.805,1.266
	c3.225,0,5.941-0.27,8.336-0.508c1.795-0.178,3.344-0.332,4.746-0.332c0.893,0,1.654,0.064,2.328,0.197
	c2.121,0.416,5.365,3.873,9.121,7.875c2.973,3.166,6.34,6.756,9.494,9.225l2.377,1.855c6.688,5.201,11.104,8.637,13.295,13.127
	c2.541,5.203,2.711,8.635,0.59,11.842c-1.291,1.947-3.289,3.109-5.348,3.109c-2.594,0-4.73-1.701-5.861-4.668
	c-1.369-3.592-6.131-10.234-9.162-13.34c-6.281-6.441-14.703-12.059-25.033-16.697c-16.928-7.598-32.881-12.865-55.705-13.869
	c-0.109-0.006-0.219-0.008-0.324-0.008c-3.301,0-5.121,2.34-5.158,4.541c-0.023,1.352,0.744,2.957,2.984,3.035l2.143,0.07
	c13.34,0.43,25.502,1.039,27.775,3.768c0.389,0.467,0.541,0.986,0.457,1.541c-0.635,4.23-18.889,4.688-26.707,4.688
	c-2.287,0-4.436-0.045-6.209-0.131c-0.084-0.002-0.166-0.004-0.246-0.004c-2.295,0-3.361,1.678-3.402,3.342
	c-0.045,1.869,1.207,3.826,3.688,3.945c1.934,0.092,4.975,0.201,8.484,0.201c6.518,0,15.633-0.383,22.045-2.211
	c5.184-1.479,7.373-3.346,8.824-4.582c0.871-0.744,1.5-1.281,2.383-1.463c0.871-0.178,1.82-0.268,2.82-0.268
	c4.09,0,8.428,1.508,10.549,3.666c1.031,1.047,1.545,2.201,1.525,3.428c-0.072,4.303-10.061,13.543-14.643,13.543
	c-0.076,0-0.221-0.006-0.34-0.043c-0.471-0.141-1.012-0.311-1.604-0.494c-2.693-0.838-6.381-1.984-8.52-2.258
	c-3.67-0.471-7.285-0.689-11.379-0.689c-4.26,0-8.625,0.246-13.266,0.508c-2.203,0.123-4.484,0.252-6.883,0.359
	c-2.594,0.115-3.734,2.064-3.693,3.824c0.037,1.662,1.209,3.451,3.693,3.451c2.6-0.02,6.42-0.285,10.482-0.568
	c4.922-0.344,10.014-0.697,13.941-0.697c5.354,0,7.25,0.604,7.25,2.309c0,5.033-29.646,7.295-29.947,7.314
	c-2.473,0.162-3.705,2.168-3.645,4.066c0.055,1.664,1.111,3.344,3.35,3.344c0.105,0,0.213-0.004,0.324-0.012
	c9.154-0.596,26.625-2.777,40.768-10.697c9.047-5.066,14.311-10.738,17.799-14.494c1.752-1.889,3.135-3.381,4.436-4.201
	c0.539-0.34,1.203-0.512,1.973-0.512c6.006,0,19.137,11.084,19.137,19.424c0,3.994-4.096,7.633-8.592,7.633
	c-0.455,0-0.916-0.037-1.371-0.111l-0.691-0.119c-2.531-0.443-9.254-1.621-17.607-1.621c-3.43,0-6.771,0.201-9.936,0.6
	c-15.291,1.93-29.539,9.627-36.297,19.609c-0.783,1.158-0.9,2.385-0.33,3.457c0.699,1.318,2.236,2.205,3.822,2.205
	c1.295,0,2.436-0.631,3.211-1.775c5.818-8.596,20.891-15.707,26.127-15.707c1.281,0,2.141,0.387,2.551,1.146
	c0.338,0.621,0.312,1.357-0.072,2.188c-1.979,4.244-15.643,12.768-22.844,14.252c-2.201,0.451-2.822,2.217-2.672,3.719
	c0.197,1.93,1.652,3.98,3.965,3.98c0.283,0,0.578-0.031,0.875-0.092c6.492-1.336,16.328-6.961,21.928-12.541
	c3.895-3.875,5.693-7.484,6.77-9.646c0.551-1.105,0.914-1.838,1.389-2.232c2.15-1.781,5.154-2.156,7.299-2.156
	c3.885,0,8.391,1.277,10.479,2.971c2.682,2.178,4.309,5.266,4.145,7.865c-0.092,1.473-0.729,2.615-1.842,3.307
	c-1.523,0.947-3.666,0.959-6.381,0.975c-2.994,0.018-6.721,0.039-10.713,1.402c-5.811,1.986-16.383,6.51-21.9,14.48
	c-0.789,1.143-0.918,2.355-0.361,3.416c0.682,1.303,2.262,2.213,3.846,2.213c1.297,0,2.445-0.623,3.229-1.756
	c5.744-8.303,19.656-12.471,25.832-12.471c1.953,0,3.109,0.428,3.535,1.307c0.287,0.594,0.27,1.273-0.053,2.02
	c-1.426,3.307-9.99,8.697-15.59,10.463c-2.334,0.736-2.877,2.863-2.631,4.461c0.252,1.635,1.422,3.395,3.395,3.395
	c0.383,0,0.789-0.066,1.209-0.197c9.795-3.086,16.496-8.203,20.486-15.641c3.912-7.295,4.678-13.93,4.678-22.926
	c0-7.742,6.777-8.896,10.818-8.896c0.33,0,0.609,0.006,0.869,0.014l0.271,0.006c0.441,0,10.781,0.127,10.781,11.111
	c0,3.895,0.865,22.158,1.129,27.666l0.012,0.344c-0.055,0.988-1.396,23.9-7.309,28.445c0.865-0.004,2.047-0.197,3.42-0.561
	c0.328-0.086,0.789-0.287,1.236-0.482c0.9-0.389,1.83-0.791,2.676-0.791c0.686,0,1.24,0.266,1.605,0.77
	c0.605,0.836,0.58,2.238-0.092,4.523c0.051,0.004,0.104,0.006,0.16,0.006c0.92,0,2.719-0.449,6.055-2.59
	c1.031-0.66,1.721-1.082,2.305-1.404c0.004-0.004,0.436-0.232,0.703-0.34c0.008-0.006,0.018-0.01,0.025-0.014
	c0.188-0.088,0.424-0.131,0.723-0.131c0.334,0,0.455,0.035,0.451,0.045c0.074,0.01,0.219,0.035,0.352,0.098
	c0.203,0.1,0.42,0.213,0.646,0.338c0.705,0.391,1.525,0.908,2.305,1.408c3.338,2.141,5.137,2.59,6.059,2.59
	C228.393,268.174,228.445,268.172,228.498,268.168z M224.094,212.703l-2.215-2.205l-3.354,3.342l-3.359-3.342l-2.213,2.205
	l3.354,3.344l-3.354,3.344l2.213,2.209l3.359-3.348l3.354,3.348l2.215-2.209l-3.357-3.344L224.094,212.703z M221.879,223.936
	l-3.354,3.344l-3.355-3.344l-2.217,2.207l3.354,3.342l-3.354,3.342l2.217,2.207l3.355-3.346l3.354,3.346l2.215-2.207l-3.357-3.342
	l3.357-3.342L221.879,223.936z M221.879,237.373l-3.354,3.34l-3.355-3.34l-2.217,2.203l3.354,3.346l-3.354,3.342l2.217,2.207
	l3.355-3.34l3.354,3.34l2.215-2.207l-3.357-3.342l3.357-3.346L221.879,237.373z"/>
</svg>
