<?xml version="1.0" encoding="utf-8"?>
<!-- Generator: Adobe Illustrator 16.0.0, SVG Export Plug-In . SVG Version: 6.00 Build 0)  -->
<!DOCTYPE svg PUBLIC "-//W3C//DTD SVG 1.1//EN" "http://www.w3.org/Graphics/SVG/1.1/DTD/svg11.dtd">
<svg version="1.1" id="Layer_1" xmlns="http://www.w3.org/2000/svg" xmlns:xlink="http://www.w3.org/1999/xlink" x="0px" y="0px"
	 width="437.048px" height="414.761px" viewBox="0 0 437.048 414.761" enable-background="new 0 0 437.048 414.761"
	 xml:space="preserve">
<path fill="#FFFFFF" d="M400.025,154.815v104.907c0,6.377-5.172,11.549-11.551,11.549h-13.422h-4.744v0.012H117.404
	c-1.925,0.129-3.866,0.215-5.836,0.215c-41.172,0-74.547-28.705-74.547-64.115c0-35.042,32.687-63.496,73.264-64.088v-0.028H281.75
	h88.559h18.166C394.854,143.267,400.025,148.437,400.025,154.815z M115.133,260.671c-0.352-1.188-0.365-1.889-0.053-2.32
	c0.182-0.25,0.471-0.389,0.812-0.389c0.432,0,0.906,0.207,1.395,0.418c0.219,0.096,0.43,0.188,0.607,0.234
	c0.9,0.238,1.459,0.287,1.77,0.287c0.008,0,0.016,0,0.021,0c-3.082-2.289-3.74-14.1-3.768-14.633
	c0.006-0.119,0.582-12.043,0.582-14.293c0-5.609,5.279-5.678,5.504-5.678l0,0c0,0,0.412-0.01,0.594-0.01
	c3.562,0,5.525,1.613,5.525,4.543c0,4.721,0.383,7.99,2.396,11.748c2.047,3.814,5.48,6.436,10.498,8.016
	c0.215,0.068,0.426,0.102,0.623,0.102c1.02,0,1.623-0.906,1.752-1.75c0.127-0.822-0.152-1.918-1.355-2.297
	c-2.891-0.91-7.227-3.613-7.977-5.352c-0.164-0.379-0.174-0.723-0.027-1.023c0.219-0.451,0.791-0.662,1.799-0.662
	c3.158,0,10.279,2.131,13.221,6.381c0.404,0.582,0.996,0.904,1.664,0.904c0.814,0,1.629-0.469,1.98-1.139
	c0.287-0.547,0.221-1.172-0.188-1.762c-2.83-4.088-8.246-6.404-11.223-7.42c-2.047-0.701-3.957-0.711-5.494-0.721
	c-1.387-0.008-2.48-0.014-3.258-0.496c-0.557-0.348-0.891-0.945-0.936-1.686c-0.084-1.328,0.748-2.906,2.117-4.016
	c1.066-0.867,3.371-1.52,5.361-1.52c1.094,0,2.631,0.189,3.727,1.1c0.24,0.201,0.418,0.557,0.713,1.148
	c0.549,1.104,1.469,2.949,3.463,4.936c2.871,2.859,7.91,5.74,11.238,6.426c0.152,0.031,0.305,0.047,0.451,0.047
	c1.191,0,1.941-1.057,2.043-2.049c0.037-0.377,0.051-1.625-1.379-1.92c-3.686-0.756-10.678-5.117-11.689-7.289
	c-0.197-0.422-0.209-0.795-0.039-1.111c0.209-0.385,0.645-0.58,1.297-0.58c2.68,0,10.395,3.641,13.371,8.039
	c0.398,0.59,0.986,0.914,1.654,0.914c0.805,0,1.613-0.467,1.969-1.135c0.293-0.555,0.232-1.188-0.172-1.783
	c-3.461-5.115-10.762-9.059-18.6-10.049c-1.619-0.203-3.33-0.307-5.088-0.307c-4.273,0-7.719,0.602-9.018,0.83l-0.357,0.061
	c-0.234,0.039-0.469,0.057-0.699,0.057c-1.096,0-2.207-0.428-3.049-1.174c-0.85-0.754-1.338-1.746-1.338-2.723
	c0-4.266,6.715-9.934,9.787-9.934c0.393,0,0.73,0.088,1.004,0.26c0.662,0.418,1.371,1.182,2.27,2.15
	c1.785,1.922,4.482,4.826,9.117,7.424c7.246,4.057,16.195,5.174,20.887,5.48c0.057,0.004,0.111,0.006,0.166,0.006
	c1.232,0,1.701-0.93,1.727-1.725c0.031-0.947-0.543-2.008-1.877-2.096c-0.154-0.01-15.326-1.195-15.326-3.734
	c0-0.973,1.416-1.168,3.699-1.168c2.01,0,4.617,0.182,7.186,0.359c2.059,0.143,4.002,0.277,5.346,0.287
	c1.361,0,1.865-0.957,1.883-1.779c0.021-0.906-0.566-1.91-1.902-1.971c-1.221-0.055-2.381-0.119-3.502-0.182l-0.148-0.01
	c-2.318-0.129-4.506-0.252-6.676-0.252c-2.094,0-3.943,0.111-5.822,0.352c-1.092,0.141-2.975,0.727-4.359,1.156l-1,0.275
	c-2.48,0.002-7.445-4.594-7.484-6.924c-0.01-0.623,0.25-1.211,0.777-1.746c1.086-1.105,3.305-1.875,5.396-1.875
	c0.51,0,0.992,0.045,1.438,0.137c0.449,0.092,0.787,0.381,1.217,0.746c0.744,0.633,1.869,1.594,4.521,2.35
	c3.289,0.938,7.961,1.135,11.299,1.135c1.797,0,3.354-0.057,4.342-0.104c1.338-0.064,1.922-1.098,1.9-2.031
	c-0.02-0.799-0.49-1.729-1.748-1.729l-0.133,0.004c-0.908,0.043-2.01,0.066-3.188,0.066c-4.967,0-13.348-0.311-13.658-2.391
	c-0.041-0.277,0.039-0.547,0.234-0.779c1.051-1.264,6.014-1.662,14.23-1.924l1.08-0.037c1.156-0.039,1.555-0.836,1.541-1.566
	c-0.02-1.133-0.955-2.338-2.646-2.338l-0.174,0.004c-11.684,0.514-19.857,3.211-28.535,7.104c-5.291,2.377-9.607,5.258-12.824,8.557
	c-1.551,1.59-3.99,4.994-4.693,6.836c-0.555,1.455-1.635,2.289-2.961,2.289c-1.125,0-2.211-0.623-2.904-1.666
	c-1.209-1.83-0.75-3.545,0.453-5.891c1.219-2.369,3.305-3.99,6.764-6.68l1.254-0.979c1.621-1.27,3.346-3.107,4.867-4.73
	c2.078-2.215,3.58-3.814,4.66-4.027c0.348-0.068,0.736-0.102,1.191-0.102c0.711,0,1.504,0.08,2.43,0.172
	c1.227,0.121,2.617,0.26,4.27,0.26c2.025,0,4.004-0.213,6.047-0.648c7.568-1.614,15.98-6.19,18.744-7.696
	c1.131-0.613,1.088-1.531,0.963-2.025c-0.215-0.846-1.01-1.701-2.115-1.701c-0.326,0-0.658,0.078-0.986,0.232
	c-0.979,0.461-2.35,1.189-3.801,1.959c-3.885,2.064-8.287,4.402-10.143,4.404c-0.77,0-1.047-0.396-1.145-0.633
	c-1.115-2.703,8.219-9.15,11.57-10.684c1.072-0.492,1.047-1.408,0.938-1.912c-0.205-0.934-1.035-1.9-2.072-1.9
	c-0.33,0-0.662,0.102-0.986,0.303c-4.238,2.629-9.018,5.979-12.311,10.902c-0.518,0.771-0.861,1.555-1.193,2.314
	c-0.518,1.176-1.008,2.287-2.033,3.016c-0.623,0.443-1.822,0.719-3.125,0.719c-2.174,0-3.895-0.715-4.604-1.914
	c-0.508-0.857-0.523-2.002-0.045-3.223c0.654-1.676,2.086-3.098,3.559-3.539c2.139-0.643,4.16-1.65,7.369-3.402
	c3.639-1.988,7.143-5.248,9.037-7.436c0.568-0.656,0.707-1.441,0.381-2.156c-0.318-0.695-0.998-1.164-1.691-1.164
	c-0.504,0-0.982,0.246-1.389,0.715c-2.342,2.701-9.553,8.648-11.754,8.648c-0.307,0-0.562-0.1-0.738-0.293
	c-1.754-1.908,5.238-9.592,8.324-12.805c0.578-0.602,0.725-1.377,0.404-2.129c-0.357-0.834-1.191-1.439-1.986-1.439
	c-0.482,0-0.936,0.225-1.311,0.652c-4.088,4.668-9.025,10.885-10.92,17.596l-0.523,1.291c-1.879,4.637-3.5,8.641-6.572,12.938
	c-2.195,3.072-7.74,8.715-10.215,8.713c-0.965-0.023-1.715-0.547-2.172-1.514c-1.082-2.291-0.221-6.744,1.809-9.344
	c0.467-0.6,0.66-0.754,1.385-1.336c0.773-0.619,2.209-1.771,5.373-4.572c9.729-8.613,12.664-16.748,16.064-26.166l0.385-1.066
	c0.213-0.592,0.176-1.119-0.109-1.527c-0.326-0.465-0.957-0.754-1.646-0.754c-0.984,0-1.773,0.555-2.111,1.482
	c-0.357,0.99-0.77,2.355-1.215,3.828c-1.785,5.912-2.773,8.697-4.102,8.697c-0.166,0-0.324-0.043-0.473-0.131
	c-1.717-1.006-0.719-6.684,0.658-13.443l0.291-1.447c0.131-0.66,0.018-1.232-0.33-1.654c-0.322-0.395-0.834-0.629-1.367-0.629
	c-0.338,0-1.467,0.117-1.727,1.625l-0.084,0.477c-0.51,2.928-1.279,7.352-1.32,10.4c-0.039,2.719,0.252,4.455,0.484,5.855
	c0.207,1.24,0.369,2.221,0.205,3.344c-0.34,2.305-2.193,4.105-4.338,6.189l-0.336,0.326c-2.406,2.344-4.234,3.484-5.59,3.484
	c-0.424,0-0.811-0.105-1.148-0.318c-2.055-1.287-0.252-6.354,0.441-7.674c0.57-1.086,1.111-1.738,1.635-2.373
	c0.955-1.154,1.943-2.35,3.324-6.48c1.123-3.355,1.936-8.221,2.527-11.771l0.029-0.172c0.152-0.906,0.289-1.725,0.412-2.404
	c0.164-0.885-0.145-1.48-0.432-1.826c-0.396-0.475-0.982-0.758-1.57-0.758c-0.799,0-1.352,0.523-1.52,1.436
	c-0.158,0.869-0.33,1.857-0.512,2.912c-1.746,10.082-2.814,14.576-4.533,14.576c-0.08,0-0.162-0.01-0.242-0.031
	c-1.201-0.307-1.367-6.377-0.494-18.025c0-0.951-0.438-2.064-1.674-2.064c-1.094,0-1.984,0.92-1.984,2.049l-0.146,68.819
	c0,2.529-1.26,3.248-1.803,3.439c-0.07,0.025-0.188,0.062-0.326,0.076c-0.035,0.012-0.115,0.029-0.146,0.029
	c-0.045,0.008-0.094,0.014-0.207,0.014c-0.027,0.006-0.057,0.01-0.084,0.01c-0.008,0-0.1-0.023-0.107-0.023
	c-0.141-0.016-0.287-0.049-0.453-0.105c-0.543-0.193-1.803-0.912-1.803-3.438l-0.145-68.823c0-1.127-0.891-2.047-1.986-2.047
	c-1.154,0-1.672,1.029-1.674,2.027c0.875,11.68,0.709,17.756-0.492,18.062c-0.078,0.021-0.16,0.031-0.242,0.031
	c-1.721,0-2.789-4.498-4.549-14.666c-0.176-1.021-0.342-1.979-0.496-2.822c-0.166-0.912-0.721-1.436-1.518-1.436
	c-0.588,0-1.176,0.283-1.57,0.758c-0.289,0.346-0.598,0.941-0.436,1.826c0.129,0.697,0.27,1.539,0.426,2.473l0.021,0.135
	c0.594,3.543,1.404,8.396,2.521,11.74c1.383,4.133,2.371,5.326,3.326,6.48c0.523,0.633,1.064,1.285,1.637,2.373
	c0.859,1.637,1.863,6.104-0.094,7.328c-0.381,0.24-0.795,0.361-1.23,0.361c-1.215,0-2.656-0.922-4.975-3.182l-0.34-0.332
	c-2.143-2.082-3.994-3.881-4.334-6.184c-0.164-1.123,0-2.104,0.209-3.355c0.23-1.395,0.52-3.129,0.482-5.844
	c-0.043-3.053-0.814-7.48-1.324-10.412l-0.08-0.465c-0.262-1.508-1.389-1.625-1.729-1.625c-0.533,0-1.045,0.234-1.367,0.629
	c-0.348,0.422-0.461,0.994-0.332,1.654l0.287,1.42c1.381,6.775,2.383,12.463,0.664,13.471c-0.148,0.088-0.307,0.131-0.471,0.131
	c-1.33,0-2.318-2.789-4.105-8.705c-0.438-1.449-0.852-2.818-1.213-3.818c-0.338-0.93-1.127-1.484-2.111-1.484
	c-0.689,0-1.318,0.289-1.646,0.754c-0.285,0.408-0.324,0.936-0.111,1.527l0.391,1.08c3.4,9.412,6.336,17.543,16.061,26.152
	c3.162,2.799,4.6,3.953,5.377,4.576c0.721,0.578,0.914,0.732,1.381,1.332c2.043,2.616,2.92,7.077,1.842,9.358
	c-0.451,0.957-1.209,1.477-2.197,1.502c-2.314,0-7.713-5.205-10.221-8.715c-3.076-4.299-4.699-8.309-6.58-12.954l-0.535-1.328
	c-1.879-6.664-6.812-12.877-10.902-17.543c-0.375-0.428-0.828-0.652-1.311-0.652c-0.795,0-1.629,0.605-1.984,1.439
	c-0.32,0.752-0.174,1.527,0.404,2.129c3.086,3.213,10.076,10.898,8.322,12.805c-0.176,0.191-0.432,0.293-0.74,0.293
	c-2.197,0-9.41-5.947-11.752-8.648c-0.406-0.469-0.885-0.715-1.387-0.715c-0.693,0-1.373,0.467-1.691,1.164
	c-0.326,0.715-0.188,1.5,0.381,2.156c2.043,2.359,5.629,5.572,9.035,7.436c3.211,1.754,5.232,2.762,7.371,3.402
	c1.473,0.441,2.904,1.865,3.559,3.541c0.477,1.219,0.461,2.363-0.047,3.223c-0.709,1.197-2.43,1.912-4.604,1.912
	c-1.303,0-2.5-0.275-3.125-0.719c-1.025-0.729-1.516-1.842-2.035-3.021c-0.33-0.754-0.674-1.535-1.191-2.309
	c-3.293-4.922-8.07-8.273-12.311-10.902c-0.324-0.201-0.656-0.303-0.986-0.303c-1.037,0-1.867,0.967-2.072,1.9
	c-0.109,0.504-0.133,1.42,0.939,1.91c3.35,1.535,12.684,7.984,11.568,10.686c-0.098,0.236-0.375,0.633-1.145,0.633
	c-1.854,0-6.252-2.338-10.141-4.404c-1.453-0.77-2.824-1.5-3.801-1.959c-0.328-0.154-0.66-0.232-0.986-0.232
	c-1.105,0-1.902,0.855-2.117,1.701c-0.125,0.494-0.166,1.412,0.963,2.025c2.766,1.506,11.184,6.084,18.742,7.696
	c2.045,0.436,4.023,0.648,6.049,0.648c1.652,0,3.043-0.139,4.275-0.26c0.918-0.092,1.713-0.172,2.424-0.172
	c0.453,0,0.844,0.033,1.191,0.102c1.082,0.213,2.584,1.812,4.662,4.029c1.523,1.623,3.248,3.463,4.865,4.729l1.203,0.939
	c3.432,2.668,5.697,4.43,6.818,6.729c1.299,2.662,1.387,4.416,0.303,6.053c-0.658,0.994-1.678,1.588-2.729,1.588
	c-1.303,0-2.42-0.891-2.988-2.383c-0.703-1.844-3.143-5.246-4.695-6.836c-3.219-3.299-7.533-6.18-12.824-8.557
	c-8.676-3.893-16.848-6.59-28.529-7.104l-0.172-0.004c-1.697,0-2.633,1.205-2.654,2.338c-0.012,0.73,0.387,1.527,1.543,1.566
	l1.078,0.037c8.217,0.262,13.18,0.66,14.232,1.924c0.195,0.232,0.275,0.502,0.232,0.779c-0.312,2.08-8.691,2.391-13.66,2.391
	c-1.176,0-2.277-0.023-3.18-0.066l-0.133-0.004c-1.264,0-1.734,0.93-1.754,1.727c-0.021,0.934,0.564,1.969,1.902,2.033
	c0.988,0.047,2.545,0.104,4.34,0.104c3.34,0,8.012-0.197,11.299-1.135c2.654-0.756,3.777-1.717,4.521-2.35
	c0.428-0.365,0.768-0.654,1.217-0.748c0.445-0.09,0.928-0.135,1.438-0.135c2.092,0,4.312,0.77,5.398,1.875
	c0.525,0.535,0.787,1.123,0.775,1.744c-0.037,2.328-5.064,6.916-7.574,6.916c-0.041,0-0.041,0-0.904-0.264
	c-1.379-0.43-3.268-1.016-4.365-1.158c-1.877-0.24-3.729-0.352-5.822-0.352c-2.168,0-4.355,0.123-6.697,0.254l-0.125,0.008
	c-1.121,0.062-2.281,0.127-3.502,0.182c-1.336,0.061-1.924,1.064-1.904,1.971c0.02,0.822,0.529,1.779,1.904,1.779
	c1.322-0.01,3.266-0.145,5.373-0.291c2.521-0.174,5.129-0.355,7.139-0.355c2.283,0,3.697,0.195,3.697,1.168
	c0,2.539-15.17,3.725-15.324,3.734c-1.336,0.088-1.91,1.148-1.879,2.098c0.025,0.795,0.494,1.723,1.727,1.723
	c0.055,0,0.111-0.002,0.168-0.006c4.689-0.307,13.641-1.424,20.883-5.48c4.637-2.598,7.336-5.504,9.121-7.428
	c0.898-0.967,1.607-1.73,2.268-2.146c0.273-0.172,0.611-0.26,1.004-0.26c3.072,0,9.787,5.668,9.787,9.934
	c0,2.039-2.09,3.896-4.385,3.896c-0.232,0-0.465-0.018-0.701-0.057L87,223.355c-1.297-0.227-4.742-0.828-9.014-0.828
	c-1.76,0-3.471,0.104-5.092,0.307c-7.836,0.99-15.137,4.934-18.598,10.049c-0.404,0.596-0.463,1.23-0.17,1.783
	c0.355,0.668,1.164,1.135,1.969,1.135c0.668,0,1.254-0.324,1.654-0.914c2.977-4.398,10.691-8.039,13.371-8.039
	c0.65,0,1.088,0.195,1.297,0.582c0.17,0.314,0.156,0.688-0.039,1.109c-1.016,2.172-8.008,6.533-11.691,7.289
	c-1.43,0.295-1.416,1.543-1.377,1.92c0.102,0.992,0.85,2.049,2.041,2.049c0.146,0,0.299-0.016,0.451-0.049
	c3.326-0.682,8.367-3.564,11.236-6.424c1.998-1.988,2.916-3.834,3.469-4.941c0.293-0.588,0.469-0.941,0.709-1.143
	c1.098-0.91,2.633-1.1,3.729-1.1c1.988,0,4.293,0.652,5.361,1.518c1.371,1.113,2.201,2.691,2.117,4.02
	c-0.047,0.738-0.379,1.336-0.938,1.684c-0.775,0.482-1.871,0.488-3.258,0.496c-1.535,0.01-3.445,0.02-5.494,0.721
	c-2.977,1.016-8.393,3.33-11.223,7.42c-0.408,0.588-0.475,1.215-0.188,1.762c0.352,0.67,1.166,1.139,1.98,1.139
	c0.67,0,1.262-0.32,1.666-0.904c2.939-4.248,10.061-6.381,13.221-6.381c1.008,0,1.58,0.211,1.799,0.662
	c0.145,0.301,0.137,0.645-0.027,1.023c-0.75,1.738-5.086,4.441-7.979,5.352c-1.201,0.379-1.48,1.475-1.355,2.297
	c0.131,0.844,0.732,1.75,1.752,1.75c0.197,0,0.406-0.033,0.621-0.102c5.02-1.58,8.453-4.201,10.5-8.016
	c2.016-3.758,2.396-7.027,2.396-11.748c0-2.93,1.963-4.543,5.527-4.543c0.18,0,0.586,0.01,0.586,0.01c0.225,0,5.51,0.066,5.51,5.678
	c0,1.326,0.201,6.297,0.568,13.996l0.016,0.35c-0.07,1.271-0.771,12.357-3.762,14.58c0,0,0.008,0,0.014,0
	c0.311,0,0.869-0.049,1.77-0.287c0.178-0.047,0.391-0.141,0.635-0.246c0.459-0.199,0.936-0.406,1.367-0.406
	c0.342,0,0.631,0.139,0.812,0.389c0.312,0.432,0.299,1.133-0.055,2.32c0.029,0.004,0.062,0.004,0.1,0.004
	c0.387,0,1.307-0.172,3.107-1.326c0.453-0.293,0.844-0.537,1.186-0.725c0.125-0.066,0.275-0.143,0.381-0.18l-0.012,0.002
	c0.09-0.043,0.209-0.064,0.363-0.064c0.107,0,0.203,0.012,0.25,0.027c0.025,0.004,0.139,0.037,0.162,0.049
	c0.1,0.051,0.207,0.105,0.322,0.168c0.338,0.186,0.729,0.43,1.18,0.723c1.803,1.154,2.721,1.326,3.109,1.326
	C115.072,260.675,115.104,260.675,115.133,260.671z M112.902,232.523l-1.133-1.129l-1.719,1.709l-1.721-1.709l-1.133,1.129
	l1.719,1.711l-1.719,1.713l1.133,1.131l1.721-1.713l1.719,1.713l1.133-1.131l-1.719-1.713L112.902,232.523z M111.77,238.275
	l-1.719,1.713l-1.719-1.713l-1.135,1.131l1.719,1.711l-1.719,1.711l1.135,1.131l1.719-1.715l1.719,1.715l1.133-1.131l-1.719-1.711
	l1.719-1.711L111.77,238.275z M111.77,245.156l-1.719,1.711l-1.719-1.711l-1.135,1.129l1.719,1.713l-1.719,1.713l1.135,1.129
	l1.719-1.709l1.719,1.709l1.133-1.129l-1.719-1.713l1.719-1.713L111.77,245.156z M193.84,159.218l-6.691,14.979h2.004l2.107-4.768
	h7.766l2.107,4.768h2.018l-6.639-14.979H193.84z M198.488,168.227h-6.691l3.354-7.527L198.488,168.227z M211.49,159.218v14.979
	h1.939v-12.272l5.604,12.272h1.768l5.486-12.272v12.272h1.938v-14.979h-2.514l-5.904,12.777l-5.814-12.777H211.49z M236.33,169.515
	c0.027,0.788,0.234,1.496,0.623,2.126s0.898,1.165,1.531,1.605s1.355,0.78,2.168,1.02c0.812,0.24,1.645,0.36,2.5,0.36
	c0.951,0,1.83-0.095,2.633-0.285c0.803-0.189,1.496-0.47,2.082-0.843c0.584-0.372,1.041-0.835,1.369-1.391
	c0.326-0.555,0.49-1.197,0.49-1.927c0-0.487-0.08-0.918-0.242-1.294s-0.387-0.709-0.674-0.999c-0.289-0.29-0.627-0.544-1.016-0.762
	c-0.389-0.219-0.807-0.414-1.258-0.586c-0.449-0.171-0.92-0.323-1.414-0.456c-0.492-0.132-0.984-0.263-1.473-0.392
	c-0.619-0.157-1.223-0.318-1.807-0.483c-0.586-0.164-1.105-0.361-1.559-0.591c-0.453-0.229-0.816-0.503-1.086-0.821
	c-0.271-0.318-0.406-0.707-0.406-1.165c0-0.443,0.119-0.819,0.359-1.127s0.555-0.557,0.943-0.746
	c0.389-0.19,0.828-0.328,1.322-0.414s0.998-0.129,1.512-0.129c0.559,0,1.088,0.064,1.586,0.193c0.496,0.129,0.936,0.322,1.314,0.58
	c0.381,0.258,0.693,0.576,0.938,0.956c0.244,0.379,0.393,0.819,0.445,1.32h1.977c-0.025-0.322-0.088-0.658-0.184-1.01
	c-0.096-0.351-0.244-0.69-0.445-1.02s-0.457-0.643-0.771-0.939s-0.699-0.557-1.152-0.778c-0.455-0.222-0.986-0.397-1.598-0.526
	s-1.314-0.193-2.109-0.193c-0.891,0-1.709,0.084-2.455,0.252c-0.746,0.169-1.387,0.414-1.924,0.736
	c-0.537,0.321-0.955,0.721-1.25,1.196c-0.297,0.477-0.445,1.026-0.445,1.648c0,0.501,0.084,0.943,0.254,1.326
	s0.402,0.725,0.695,1.025c0.291,0.301,0.637,0.562,1.033,0.784c0.398,0.222,0.826,0.419,1.283,0.591
	c0.459,0.171,0.936,0.325,1.428,0.461c0.494,0.137,0.984,0.262,1.473,0.376c0.586,0.144,1.164,0.297,1.736,0.462
	c0.57,0.165,1.082,0.359,1.531,0.585s0.812,0.494,1.088,0.806c0.273,0.312,0.412,0.688,0.412,1.133c0,0.544-0.127,1.008-0.381,1.391
	c-0.252,0.383-0.594,0.694-1.021,0.934c-0.428,0.24-0.92,0.415-1.479,0.526s-1.145,0.166-1.756,0.166
	c-0.68,0-1.307-0.091-1.879-0.273c-0.57-0.183-1.066-0.438-1.486-0.768c-0.418-0.329-0.752-0.718-1.002-1.165
	c-0.248-0.447-0.395-0.939-0.438-1.477H236.33z M256.85,159.218v1.449h6.037v13.529h1.938v-13.529h6.049v-1.449H256.85z
	 M279.02,159.218v14.979h12.637v-1.449h-10.699v-5.562h9.637v-1.449h-9.637v-5.068h10.24v-1.449H279.02z M312.953,161.957
	c-0.24-0.509-0.594-0.965-1.061-1.369s-1.043-0.734-1.729-0.988s-1.473-0.381-2.363-0.381h-7.465v14.979h1.939v-6.421h5.525
	c0.611,0,1.131,0.068,1.559,0.204s0.773,0.314,1.041,0.537c0.266,0.222,0.457,0.474,0.576,0.757
	c0.117,0.282,0.176,0.567,0.176,0.854v2.384c0,0.107,0.004,0.234,0.014,0.381c0.008,0.146,0.025,0.299,0.053,0.456
	c0.025,0.158,0.062,0.311,0.111,0.457c0.047,0.146,0.115,0.277,0.203,0.392h2.107c-0.166-0.25-0.303-0.527-0.412-0.832
	s-0.164-0.617-0.164-0.939v-2.255c0-0.329-0.033-0.653-0.098-0.972c-0.066-0.318-0.184-0.612-0.354-0.881
	c-0.172-0.269-0.406-0.505-0.707-0.709c-0.303-0.203-0.693-0.355-1.172-0.456c0.428-0.193,0.801-0.422,1.119-0.687
	c0.318-0.266,0.586-0.557,0.805-0.876c0.219-0.318,0.383-0.656,0.492-1.015c0.107-0.357,0.162-0.723,0.162-1.095
	C313.312,162.972,313.193,162.464,312.953,161.957z M302.275,160.667h5.525c0.506,0,0.977,0.07,1.414,0.21
	c0.436,0.139,0.814,0.334,1.133,0.585c0.318,0.25,0.566,0.546,0.746,0.886c0.178,0.34,0.268,0.71,0.268,1.111
	c0,0.408-0.096,0.787-0.287,1.138c-0.191,0.352-0.451,0.659-0.779,0.924s-0.705,0.473-1.133,0.623s-0.881,0.226-1.361,0.226h-5.525
	V160.667z M322.584,174.197h6.77c1.16,0,2.225-0.191,3.188-0.574c0.965-0.383,1.795-0.913,2.488-1.59
	c0.695-0.676,1.234-1.471,1.617-2.383c0.385-0.913,0.576-1.902,0.576-2.97c0-0.68-0.082-1.336-0.248-1.97s-0.406-1.226-0.721-1.777
	c-0.314-0.551-0.701-1.056-1.158-1.514c-0.459-0.458-0.979-0.851-1.559-1.176c-0.58-0.326-1.223-0.578-1.926-0.757
	c-0.701-0.179-1.455-0.269-2.258-0.269h-6.77V174.197z M324.521,160.667h4.059c0.953,0,1.836,0.12,2.652,0.359
	c0.816,0.24,1.525,0.607,2.127,1.101c0.604,0.494,1.074,1.122,1.416,1.885c0.34,0.763,0.51,1.663,0.51,2.7
	c0,0.952-0.168,1.803-0.504,2.551s-0.803,1.38-1.4,1.895c-0.6,0.516-1.309,0.909-2.129,1.182s-1.711,0.408-2.672,0.408h-4.059
	V160.667z M351.262,159.218l-6.691,14.979h2.002l2.109-4.768h7.766l2.107,4.768h2.016l-6.639-14.979H351.262z M355.91,168.227
	h-6.691l3.352-7.527L355.91,168.227z M368.912,159.218v14.979h1.938v-12.272l5.605,12.272h1.768l5.486-12.272v12.272h1.938v-14.979
	h-2.514l-5.906,12.777l-5.814-12.777H368.912z M188.117,201.145h1.939v-6.421h4.975c0.883,0,1.664-0.122,2.344-0.365
	c0.682-0.243,1.256-0.565,1.723-0.966c0.467-0.401,0.82-0.859,1.061-1.375s0.359-1.045,0.359-1.589c0-0.509-0.119-1.017-0.359-1.524
	c-0.24-0.509-0.592-0.965-1.055-1.369s-1.033-0.734-1.715-0.988s-1.467-0.381-2.357-0.381h-6.914V201.145z M190.057,187.616h4.975
	c0.506,0,0.977,0.07,1.408,0.21c0.432,0.139,0.807,0.334,1.125,0.585c0.32,0.25,0.568,0.546,0.748,0.886
	c0.178,0.34,0.268,0.71,0.268,1.111c0,0.408-0.096,0.787-0.287,1.138c-0.193,0.352-0.453,0.659-0.779,0.924
	c-0.328,0.265-0.705,0.473-1.133,0.623s-0.877,0.226-1.35,0.226h-4.975V187.616z M205.441,196.463
	c0.027,0.788,0.234,1.496,0.623,2.126s0.898,1.165,1.531,1.605s1.355,0.78,2.168,1.02c0.812,0.24,1.645,0.36,2.5,0.36
	c0.951,0,1.83-0.095,2.633-0.285c0.803-0.189,1.496-0.47,2.082-0.843c0.584-0.372,1.041-0.835,1.369-1.391
	c0.326-0.555,0.49-1.197,0.49-1.927c0-0.487-0.08-0.918-0.242-1.294s-0.387-0.709-0.674-0.999c-0.289-0.29-0.627-0.544-1.016-0.762
	c-0.389-0.219-0.807-0.414-1.258-0.586c-0.449-0.171-0.92-0.323-1.414-0.456c-0.492-0.132-0.984-0.263-1.473-0.392
	c-0.619-0.157-1.223-0.318-1.807-0.483c-0.586-0.164-1.105-0.361-1.559-0.591c-0.453-0.229-0.816-0.503-1.086-0.821
	c-0.271-0.318-0.406-0.707-0.406-1.165c0-0.443,0.119-0.819,0.359-1.127s0.555-0.557,0.943-0.746
	c0.389-0.19,0.828-0.328,1.322-0.414s0.998-0.129,1.512-0.129c0.559,0,1.088,0.064,1.586,0.193c0.496,0.129,0.936,0.322,1.314,0.58
	c0.381,0.258,0.693,0.576,0.938,0.956c0.244,0.379,0.393,0.819,0.445,1.32h1.977c-0.025-0.322-0.088-0.658-0.184-1.01
	c-0.096-0.351-0.244-0.69-0.445-1.02s-0.457-0.643-0.771-0.939s-0.699-0.557-1.152-0.778c-0.455-0.222-0.986-0.397-1.598-0.526
	s-1.314-0.193-2.109-0.193c-0.891,0-1.709,0.084-2.455,0.252c-0.746,0.169-1.387,0.414-1.924,0.736
	c-0.537,0.321-0.955,0.721-1.25,1.196c-0.297,0.477-0.445,1.026-0.445,1.648c0,0.501,0.084,0.943,0.254,1.326
	s0.402,0.725,0.695,1.025c0.291,0.301,0.637,0.562,1.033,0.784c0.398,0.222,0.826,0.419,1.283,0.591
	c0.459,0.171,0.936,0.325,1.428,0.461c0.494,0.137,0.984,0.262,1.473,0.376c0.586,0.144,1.164,0.297,1.736,0.462
	c0.57,0.165,1.082,0.359,1.531,0.585s0.812,0.494,1.088,0.806c0.273,0.312,0.412,0.688,0.412,1.133c0,0.544-0.127,1.008-0.381,1.391
	c-0.252,0.383-0.594,0.694-1.021,0.934c-0.428,0.24-0.92,0.415-1.479,0.526s-1.145,0.166-1.756,0.166
	c-0.68,0-1.307-0.091-1.879-0.273c-0.57-0.183-1.066-0.438-1.486-0.768c-0.418-0.329-0.752-0.718-1.002-1.165
	c-0.248-0.447-0.395-0.939-0.438-1.477H205.441z M225.607,186.167h-2.24l6.535,8.966v6.013h1.924v-6.013l6.561-8.966h-2.238
	l-5.277,7.559L225.607,186.167z M245.289,190.999c0.305-0.752,0.732-1.41,1.283-1.977c0.549-0.564,1.205-1.013,1.965-1.342
	c0.758-0.329,1.592-0.494,2.5-0.494c1.457,0,2.646,0.274,3.568,0.821c0.922,0.548,1.621,1.384,2.102,2.508h2.057
	c-0.236-0.688-0.568-1.319-0.996-1.896s-0.957-1.073-1.59-1.492c-0.635-0.419-1.379-0.746-2.234-0.982s-1.824-0.354-2.906-0.354
	c-0.855,0-1.652,0.097-2.389,0.29c-0.738,0.193-1.408,0.46-2.012,0.8c-0.602,0.34-1.137,0.748-1.604,1.224
	c-0.467,0.477-0.859,0.995-1.178,1.558c-0.318,0.562-0.559,1.159-0.721,1.793s-0.242,1.279-0.242,1.938
	c0,1.273,0.191,2.414,0.576,3.419c0.385,1.006,0.932,1.858,1.643,2.556c0.713,0.698,1.572,1.231,2.58,1.601
	c1.008,0.368,2.137,0.553,3.385,0.553c1.074,0,2.041-0.146,2.9-0.435c0.859-0.29,1.611-0.686,2.252-1.187
	c0.643-0.501,1.172-1.092,1.592-1.772c0.418-0.68,0.721-1.406,0.904-2.18h-1.979c-0.131,0.523-0.352,1.033-0.66,1.53
	c-0.311,0.498-0.703,0.941-1.18,1.332c-0.475,0.39-1.033,0.703-1.676,0.939c-0.641,0.236-1.359,0.354-2.154,0.354
	c-0.768,0-1.525-0.134-2.271-0.402s-1.414-0.68-2.004-1.234c-0.588-0.555-1.064-1.253-1.428-2.094
	c-0.361-0.842-0.543-1.835-0.543-2.979C244.83,192.548,244.982,191.75,245.289,190.999z M264.918,186.167v14.979h1.938v-7.044h9.939
	v7.044h1.938v-14.979h-1.938v6.518h-9.939v-6.518H264.918z M285.92,186.167v14.979h12.637v-1.449h-10.697v-5.562h9.637v-1.449
	h-9.637v-5.068h10.238v-1.449H285.92z M305.078,201.145h6.77c1.16,0,2.225-0.191,3.188-0.574c0.965-0.383,1.795-0.913,2.488-1.59
	c0.695-0.676,1.234-1.471,1.617-2.383c0.385-0.913,0.576-1.902,0.576-2.97c0-0.68-0.082-1.336-0.248-1.97s-0.406-1.226-0.721-1.777
	c-0.314-0.551-0.701-1.056-1.158-1.514c-0.459-0.458-0.979-0.851-1.559-1.176c-0.58-0.326-1.223-0.578-1.926-0.757
	c-0.701-0.179-1.455-0.269-2.258-0.269h-6.77V201.145z M307.016,187.616h4.059c0.953,0,1.836,0.12,2.652,0.359
	c0.816,0.24,1.525,0.607,2.127,1.101c0.604,0.494,1.074,1.122,1.416,1.885c0.34,0.763,0.51,1.663,0.51,2.7
	c0,0.952-0.168,1.803-0.504,2.551s-0.803,1.38-1.4,1.895c-0.6,0.516-1.309,0.909-2.129,1.182s-1.711,0.408-2.672,0.408h-4.059
	V187.616z M325.871,186.167v14.979h12.637v-1.449h-10.697v-5.562h9.637v-1.449h-9.637v-5.068h10.238v-1.449H325.871z
	 M345.029,186.167v14.979h11.117v-1.449h-9.18v-13.529H345.029z M362.404,186.167v14.979h1.951v-14.979H362.404z M373.207,190.999
	c0.307-0.752,0.734-1.41,1.283-1.977c0.551-0.564,1.205-1.013,1.965-1.342s1.594-0.494,2.502-0.494c1.457,0,2.646,0.274,3.568,0.821
	c0.92,0.548,1.621,1.384,2.102,2.508h2.055c-0.236-0.688-0.566-1.319-0.994-1.896s-0.959-1.073-1.592-1.492
	s-1.377-0.746-2.232-0.982s-1.824-0.354-2.906-0.354c-0.857,0-1.652,0.097-2.391,0.29s-1.408,0.46-2.01,0.8
	s-1.137,0.748-1.604,1.224c-0.469,0.477-0.861,0.995-1.18,1.558c-0.318,0.562-0.559,1.159-0.719,1.793
	c-0.162,0.634-0.244,1.279-0.244,1.938c0,1.273,0.193,2.414,0.576,3.419c0.385,1.006,0.934,1.858,1.645,2.556
	c0.711,0.698,1.57,1.231,2.58,1.601c1.008,0.368,2.135,0.553,3.385,0.553c1.072,0,2.039-0.146,2.9-0.435
	c0.859-0.29,1.609-0.686,2.252-1.187c0.641-0.501,1.172-1.092,1.59-1.772c0.42-0.68,0.721-1.406,0.904-2.18h-1.977
	c-0.131,0.523-0.352,1.033-0.662,1.53c-0.311,0.498-0.703,0.941-1.178,1.332c-0.477,0.39-1.035,0.703-1.676,0.939
	c-0.643,0.236-1.361,0.354-2.154,0.354c-0.77,0-1.525-0.134-2.273-0.402c-0.746-0.269-1.414-0.68-2.002-1.234
	c-0.59-0.555-1.066-1.253-1.428-2.094c-0.363-0.842-0.543-1.835-0.543-2.979C372.75,192.548,372.902,191.75,373.207,190.999z
	 M200.734,215.853c-0.24-0.509-0.594-0.965-1.061-1.369s-1.043-0.734-1.729-0.988s-1.473-0.381-2.363-0.381h-7.465v14.979h1.939
	v-6.421h5.525c0.611,0,1.131,0.068,1.559,0.204s0.773,0.314,1.041,0.537c0.266,0.222,0.457,0.474,0.576,0.757
	c0.117,0.282,0.176,0.567,0.176,0.854v2.384c0,0.107,0.004,0.234,0.014,0.381c0.008,0.146,0.025,0.299,0.053,0.456
	c0.025,0.158,0.062,0.311,0.111,0.457c0.047,0.146,0.115,0.277,0.203,0.392h2.107c-0.166-0.25-0.303-0.527-0.412-0.832
	s-0.164-0.617-0.164-0.939v-2.255c0-0.329-0.033-0.653-0.098-0.972c-0.066-0.318-0.184-0.612-0.354-0.881
	c-0.172-0.269-0.406-0.505-0.707-0.709c-0.303-0.203-0.693-0.355-1.172-0.456c0.428-0.193,0.801-0.422,1.119-0.687
	c0.318-0.266,0.586-0.557,0.805-0.876c0.219-0.318,0.383-0.656,0.492-1.015c0.107-0.357,0.162-0.723,0.162-1.095
	C201.094,216.869,200.975,216.361,200.734,215.853z M190.057,214.564h5.525c0.506,0,0.977,0.07,1.414,0.21
	c0.436,0.139,0.814,0.334,1.133,0.585c0.318,0.25,0.566,0.546,0.746,0.886c0.178,0.34,0.268,0.71,0.268,1.111
	c0,0.408-0.096,0.787-0.287,1.138c-0.191,0.352-0.451,0.659-0.779,0.924s-0.705,0.473-1.133,0.623s-0.881,0.226-1.361,0.226h-5.525
	V214.564z M214.592,213.115v14.979h12.637v-1.449h-10.697v-5.562h9.637v-1.449h-9.637v-5.068h10.238v-1.449H214.592z
	 M238.895,223.412c0.025,0.788,0.232,1.496,0.621,2.126s0.9,1.165,1.533,1.605s1.355,0.78,2.166,1.02
	c0.812,0.24,1.646,0.36,2.502,0.36c0.951,0,1.828-0.095,2.631-0.285c0.805-0.189,1.498-0.47,2.082-0.843
	c0.586-0.372,1.041-0.835,1.369-1.391c0.328-0.555,0.49-1.197,0.49-1.927c0-0.487-0.08-0.918-0.242-1.294
	c-0.16-0.376-0.385-0.709-0.674-0.999c-0.287-0.29-0.627-0.544-1.014-0.762c-0.389-0.219-0.809-0.414-1.258-0.586
	c-0.449-0.171-0.922-0.323-1.414-0.456c-0.494-0.132-0.984-0.263-1.473-0.392c-0.621-0.157-1.223-0.318-1.809-0.483
	c-0.584-0.164-1.104-0.361-1.557-0.591c-0.455-0.229-0.816-0.503-1.088-0.821c-0.27-0.318-0.406-0.707-0.406-1.165
	c0-0.443,0.121-0.819,0.361-1.127s0.553-0.557,0.941-0.746c0.389-0.19,0.83-0.328,1.324-0.414c0.492-0.086,0.996-0.129,1.512-0.129
	c0.559,0,1.086,0.064,1.584,0.193s0.936,0.322,1.316,0.58c0.379,0.258,0.691,0.576,0.936,0.956c0.244,0.379,0.393,0.819,0.445,1.32
	h1.979c-0.027-0.322-0.088-0.658-0.184-1.01c-0.098-0.351-0.244-0.69-0.445-1.02s-0.459-0.643-0.773-0.939s-0.697-0.557-1.152-0.778
	c-0.453-0.222-0.986-0.397-1.598-0.526s-1.312-0.193-2.107-0.193c-0.891,0-1.709,0.084-2.455,0.252
	c-0.746,0.169-1.389,0.414-1.926,0.736c-0.537,0.321-0.953,0.721-1.25,1.196c-0.297,0.477-0.445,1.026-0.445,1.648
	c0,0.501,0.086,0.943,0.256,1.326s0.4,0.725,0.693,1.025s0.637,0.562,1.035,0.784c0.396,0.222,0.824,0.419,1.283,0.591
	c0.457,0.171,0.934,0.325,1.428,0.461c0.492,0.137,0.982,0.262,1.473,0.376c0.584,0.144,1.162,0.297,1.734,0.462
	s1.082,0.359,1.533,0.585c0.449,0.226,0.811,0.494,1.086,0.806s0.412,0.688,0.412,1.133c0,0.544-0.127,1.008-0.379,1.391
	c-0.254,0.383-0.594,0.694-1.021,0.934c-0.428,0.24-0.922,0.415-1.48,0.526s-1.143,0.166-1.754,0.166
	c-0.682,0-1.309-0.091-1.879-0.273c-0.572-0.183-1.068-0.438-1.486-0.768c-0.42-0.329-0.754-0.718-1.002-1.165
	s-0.395-0.939-0.439-1.477H238.895z M264.846,213.115v14.979h12.637v-1.449h-10.699v-5.562h9.637v-1.449h-9.637v-5.068h10.24v-1.449
	H264.846z M296.113,213.115l-6.691,14.979h2.002l2.109-4.768h7.766l2.107,4.768h2.016l-6.639-14.979H296.113z M300.762,222.124
	h-6.691l3.352-7.527L300.762,222.124z M330.607,215.853c-0.24-0.509-0.594-0.965-1.061-1.369s-1.043-0.734-1.729-0.988
	s-1.473-0.381-2.363-0.381h-7.465v14.979h1.939v-6.421h5.525c0.611,0,1.131,0.068,1.559,0.204s0.773,0.314,1.041,0.537
	c0.266,0.222,0.457,0.474,0.576,0.757c0.117,0.282,0.176,0.567,0.176,0.854v2.384c0,0.107,0.004,0.234,0.014,0.381
	c0.008,0.146,0.025,0.299,0.053,0.456c0.025,0.158,0.062,0.311,0.111,0.457c0.047,0.146,0.115,0.277,0.203,0.392h2.107
	c-0.166-0.25-0.303-0.527-0.412-0.832s-0.164-0.617-0.164-0.939v-2.255c0-0.329-0.033-0.653-0.098-0.972
	c-0.066-0.318-0.184-0.612-0.354-0.881c-0.172-0.269-0.406-0.505-0.707-0.709c-0.303-0.203-0.693-0.355-1.172-0.456
	c0.428-0.193,0.801-0.422,1.119-0.687c0.318-0.266,0.586-0.557,0.805-0.876c0.219-0.318,0.383-0.656,0.492-1.015
	c0.107-0.357,0.162-0.723,0.162-1.095C330.967,216.869,330.848,216.361,330.607,215.853z M319.93,214.564h5.525
	c0.506,0,0.977,0.07,1.414,0.21c0.436,0.139,0.814,0.334,1.133,0.585c0.318,0.25,0.566,0.546,0.746,0.886
	c0.178,0.34,0.268,0.71,0.268,1.111c0,0.408-0.096,0.787-0.287,1.138c-0.191,0.352-0.451,0.659-0.779,0.924
	s-0.705,0.473-1.133,0.623s-0.881,0.226-1.361,0.226h-5.525V214.564z M345.814,217.947c0.307-0.752,0.734-1.41,1.283-1.977
	c0.551-0.564,1.205-1.013,1.965-1.342s1.594-0.494,2.502-0.494c1.457,0,2.646,0.274,3.568,0.821c0.92,0.548,1.621,1.384,2.102,2.508
	h2.055c-0.236-0.688-0.566-1.319-0.994-1.896s-0.959-1.073-1.592-1.492s-1.377-0.746-2.232-0.982s-1.824-0.354-2.906-0.354
	c-0.857,0-1.652,0.097-2.391,0.29s-1.408,0.46-2.01,0.8s-1.137,0.748-1.604,1.224c-0.469,0.477-0.861,0.995-1.18,1.558
	c-0.318,0.562-0.559,1.159-0.719,1.793c-0.162,0.634-0.244,1.279-0.244,1.938c0,1.273,0.193,2.414,0.576,3.419
	c0.385,1.006,0.934,1.858,1.645,2.556c0.711,0.698,1.57,1.231,2.58,1.601c1.008,0.368,2.135,0.553,3.385,0.553
	c1.072,0,2.039-0.146,2.9-0.435c0.859-0.29,1.609-0.686,2.252-1.187c0.641-0.501,1.172-1.092,1.59-1.772
	c0.42-0.68,0.721-1.406,0.904-2.18h-1.977c-0.131,0.523-0.352,1.033-0.662,1.53c-0.311,0.498-0.703,0.941-1.178,1.332
	c-0.477,0.39-1.035,0.703-1.676,0.939c-0.643,0.236-1.361,0.354-2.154,0.354c-0.77,0-1.525-0.134-2.273-0.402
	c-0.746-0.269-1.414-0.68-2.002-1.234c-0.59-0.555-1.066-1.253-1.428-2.094c-0.363-0.842-0.543-1.835-0.543-2.979
	C345.357,219.497,345.51,218.698,345.814,217.947z M371.832,213.115v14.979h1.938v-7.044h9.939v7.044h1.938v-14.979h-1.938v6.518
	h-9.939v-6.518H371.832z M193.84,240.063l-6.691,14.979h2.004l2.107-4.768h7.766l2.107,4.768h2.018l-6.639-14.979H193.84z
	 M198.488,249.072h-6.691l3.354-7.527L198.488,249.072z M208.627,250.36c0.025,0.788,0.232,1.496,0.621,2.126s0.9,1.165,1.533,1.605
	s1.355,0.78,2.166,1.02c0.812,0.24,1.646,0.36,2.502,0.36c0.951,0,1.828-0.095,2.631-0.285c0.805-0.189,1.498-0.47,2.082-0.843
	c0.586-0.372,1.041-0.835,1.369-1.391c0.328-0.555,0.49-1.197,0.49-1.927c0-0.487-0.08-0.918-0.242-1.294
	c-0.16-0.376-0.385-0.709-0.674-0.999c-0.287-0.29-0.627-0.544-1.014-0.762c-0.389-0.219-0.809-0.414-1.258-0.586
	c-0.449-0.171-0.922-0.323-1.414-0.456c-0.494-0.132-0.984-0.263-1.473-0.392c-0.621-0.157-1.223-0.318-1.809-0.483
	c-0.584-0.164-1.104-0.361-1.557-0.591c-0.455-0.229-0.816-0.503-1.088-0.821c-0.27-0.318-0.406-0.707-0.406-1.165
	c0-0.443,0.121-0.819,0.361-1.127s0.553-0.557,0.941-0.746c0.389-0.19,0.83-0.328,1.324-0.414c0.492-0.086,0.996-0.129,1.512-0.129
	c0.559,0,1.086,0.064,1.584,0.193s0.936,0.322,1.316,0.58c0.379,0.258,0.691,0.576,0.936,0.956c0.244,0.379,0.393,0.819,0.445,1.32
	h1.979c-0.027-0.322-0.088-0.658-0.184-1.01c-0.098-0.351-0.244-0.69-0.445-1.02s-0.459-0.643-0.773-0.939s-0.697-0.557-1.152-0.778
	c-0.453-0.222-0.986-0.397-1.598-0.526s-1.312-0.193-2.107-0.193c-0.891,0-1.709,0.084-2.455,0.252
	c-0.746,0.169-1.389,0.414-1.926,0.736c-0.537,0.321-0.953,0.721-1.25,1.196c-0.297,0.477-0.445,1.026-0.445,1.648
	c0,0.501,0.086,0.943,0.256,1.326s0.4,0.725,0.693,1.025s0.637,0.562,1.035,0.784c0.396,0.222,0.824,0.419,1.283,0.591
	c0.457,0.171,0.934,0.325,1.428,0.461c0.492,0.137,0.982,0.262,1.473,0.376c0.584,0.144,1.162,0.297,1.734,0.462
	s1.082,0.359,1.533,0.585c0.449,0.226,0.811,0.494,1.086,0.806s0.412,0.688,0.412,1.133c0,0.544-0.127,1.008-0.379,1.391
	c-0.254,0.383-0.594,0.694-1.021,0.934c-0.428,0.24-0.922,0.415-1.48,0.526s-1.143,0.166-1.754,0.166
	c-0.682,0-1.309-0.091-1.879-0.273c-0.572-0.183-1.068-0.438-1.486-0.768c-0.42-0.329-0.754-0.718-1.002-1.165
	s-0.395-0.939-0.439-1.477H208.627z M227.486,250.36c0.027,0.788,0.234,1.496,0.623,2.126s0.898,1.165,1.531,1.605
	s1.355,0.78,2.168,1.02c0.812,0.24,1.645,0.36,2.5,0.36c0.951,0,1.83-0.095,2.633-0.285c0.803-0.189,1.496-0.47,2.082-0.843
	c0.584-0.372,1.041-0.835,1.369-1.391c0.326-0.555,0.49-1.197,0.49-1.927c0-0.487-0.08-0.918-0.242-1.294s-0.387-0.709-0.674-0.999
	c-0.289-0.29-0.627-0.544-1.016-0.762c-0.389-0.219-0.807-0.414-1.258-0.586c-0.449-0.171-0.92-0.323-1.414-0.456
	c-0.492-0.132-0.984-0.263-1.473-0.392c-0.619-0.157-1.223-0.318-1.807-0.483c-0.586-0.164-1.105-0.361-1.559-0.591
	c-0.453-0.229-0.816-0.503-1.086-0.821c-0.271-0.318-0.406-0.707-0.406-1.165c0-0.443,0.119-0.819,0.359-1.127
	s0.555-0.557,0.943-0.746c0.389-0.19,0.828-0.328,1.322-0.414s0.998-0.129,1.512-0.129c0.559,0,1.088,0.064,1.586,0.193
	c0.496,0.129,0.936,0.322,1.314,0.58c0.381,0.258,0.693,0.576,0.938,0.956c0.244,0.379,0.393,0.819,0.445,1.32h1.977
	c-0.025-0.322-0.088-0.658-0.184-1.01c-0.096-0.351-0.244-0.69-0.445-1.02s-0.457-0.643-0.771-0.939s-0.699-0.557-1.152-0.778
	c-0.455-0.222-0.986-0.397-1.598-0.526s-1.314-0.193-2.109-0.193c-0.891,0-1.709,0.084-2.455,0.252
	c-0.746,0.169-1.387,0.414-1.924,0.736c-0.537,0.321-0.955,0.721-1.25,1.196c-0.297,0.477-0.445,1.026-0.445,1.648
	c0,0.501,0.084,0.943,0.254,1.326s0.402,0.725,0.695,1.025c0.291,0.301,0.637,0.562,1.033,0.784
	c0.398,0.222,0.826,0.419,1.283,0.591c0.459,0.171,0.936,0.325,1.428,0.461c0.494,0.137,0.984,0.262,1.473,0.376
	c0.586,0.144,1.164,0.297,1.736,0.462c0.57,0.165,1.082,0.359,1.531,0.585s0.812,0.494,1.088,0.806
	c0.273,0.312,0.412,0.688,0.412,1.133c0,0.544-0.127,1.008-0.381,1.391c-0.252,0.383-0.594,0.694-1.021,0.934
	c-0.428,0.24-0.92,0.415-1.479,0.526s-1.145,0.166-1.756,0.166c-0.68,0-1.307-0.091-1.879-0.273
	c-0.57-0.183-1.066-0.438-1.486-0.768c-0.418-0.329-0.752-0.718-1.002-1.165c-0.248-0.447-0.395-0.939-0.438-1.477H227.486z
	 M262.381,244.363c-0.363-0.962-0.893-1.789-1.592-2.48c-0.697-0.69-1.555-1.229-2.572-1.615s-2.18-0.58-3.49-0.58
	c-1.309,0-2.473,0.193-3.49,0.58c-1.016,0.387-1.871,0.925-2.566,1.615c-0.693,0.691-1.221,1.519-1.584,2.48
	c-0.361,0.963-0.543,2.021-0.543,3.173c0,1.153,0.182,2.212,0.543,3.179c0.363,0.967,0.891,1.799,1.584,2.496
	c0.695,0.698,1.551,1.24,2.566,1.627c1.018,0.387,2.182,0.58,3.49,0.58c1.311,0,2.473-0.193,3.49-0.58s1.875-0.929,2.572-1.627
	c0.699-0.697,1.229-1.529,1.592-2.496c0.361-0.967,0.543-2.025,0.543-3.179C262.924,246.383,262.742,245.326,262.381,244.363z
	 M260.482,250.252c-0.328,0.802-0.773,1.48-1.336,2.035s-1.225,0.979-1.984,1.272c-0.76,0.293-1.57,0.439-2.436,0.439
	c-0.881,0-1.701-0.146-2.461-0.439c-0.76-0.294-1.42-0.718-1.979-1.272s-0.996-1.233-1.314-2.035
	c-0.32-0.802-0.479-1.707-0.479-2.717c0-1.009,0.158-1.912,0.479-2.711c0.318-0.798,0.756-1.475,1.314-2.029
	s1.219-0.978,1.979-1.267c0.76-0.29,1.58-0.436,2.461-0.436c0.865,0,1.676,0.146,2.436,0.436c0.76,0.289,1.422,0.712,1.984,1.267
	s1.008,1.231,1.336,2.029c0.326,0.799,0.49,1.702,0.49,2.711C260.973,248.545,260.809,249.451,260.482,250.252z M270.969,244.895
	c0.305-0.752,0.732-1.41,1.283-1.977c0.549-0.564,1.205-1.013,1.965-1.342c0.758-0.329,1.592-0.494,2.5-0.494
	c1.457,0,2.646,0.274,3.568,0.821c0.922,0.548,1.621,1.384,2.102,2.508h2.057c-0.236-0.688-0.568-1.319-0.996-1.896
	s-0.957-1.073-1.59-1.492c-0.635-0.419-1.379-0.746-2.234-0.982s-1.824-0.354-2.906-0.354c-0.855,0-1.652,0.097-2.389,0.29
	c-0.738,0.193-1.408,0.46-2.012,0.8c-0.602,0.34-1.137,0.748-1.604,1.224c-0.467,0.477-0.859,0.995-1.178,1.558
	c-0.318,0.562-0.559,1.159-0.721,1.793s-0.242,1.279-0.242,1.938c0,1.273,0.191,2.414,0.576,3.419
	c0.385,1.006,0.932,1.858,1.643,2.556c0.713,0.698,1.572,1.231,2.58,1.601c1.008,0.368,2.137,0.553,3.385,0.553
	c1.074,0,2.041-0.146,2.9-0.435c0.859-0.29,1.611-0.686,2.252-1.187c0.643-0.501,1.172-1.092,1.592-1.772
	c0.418-0.68,0.721-1.406,0.904-2.18h-1.979c-0.131,0.523-0.352,1.033-0.66,1.53c-0.311,0.498-0.703,0.941-1.18,1.332
	c-0.475,0.39-1.033,0.703-1.676,0.939c-0.641,0.236-1.359,0.354-2.154,0.354c-0.768,0-1.525-0.134-2.271-0.402
	s-1.414-0.68-2.004-1.234c-0.588-0.555-1.064-1.253-1.428-2.094c-0.361-0.842-0.543-1.835-0.543-2.979
	C270.51,246.445,270.662,245.646,270.969,244.895z M291.373,240.063v14.979h1.951v-14.979H291.373z M307.09,240.063l-6.691,14.979
	h2.004l2.107-4.768h7.766l2.107,4.768h2.018l-6.639-14.979H307.09z M311.738,249.072h-6.691l3.354-7.527L311.738,249.072z
	 M318.998,240.063v1.449h6.035v13.529h1.938v-13.529h6.051v-1.449H318.998z M339.781,240.063v14.979h1.951v-14.979H339.781z
	 M364.566,244.363c-0.361-0.962-0.893-1.789-1.59-2.48c-0.699-0.69-1.557-1.229-2.574-1.615c-1.016-0.387-2.18-0.58-3.488-0.58
	c-1.311,0-2.473,0.193-3.49,0.58s-1.873,0.925-2.566,1.615c-0.693,0.691-1.223,1.519-1.584,2.48
	c-0.363,0.963-0.545,2.021-0.545,3.173c0,1.153,0.182,2.212,0.545,3.179c0.361,0.967,0.891,1.799,1.584,2.496
	c0.693,0.698,1.549,1.24,2.566,1.627s2.18,0.58,3.49,0.58c1.309,0,2.473-0.193,3.488-0.58c1.018-0.387,1.875-0.929,2.574-1.627
	c0.697-0.697,1.229-1.529,1.59-2.496c0.363-0.967,0.545-2.025,0.545-3.179C365.111,246.383,364.93,245.326,364.566,244.363z
	 M362.668,250.252c-0.326,0.802-0.771,1.48-1.336,2.035c-0.562,0.555-1.223,0.979-1.982,1.272c-0.76,0.293-1.572,0.439-2.436,0.439
	c-0.883,0-1.703-0.146-2.463-0.439c-0.76-0.294-1.418-0.718-1.977-1.272s-0.998-1.233-1.316-2.035s-0.479-1.707-0.479-2.717
	c0-1.009,0.16-1.912,0.479-2.711c0.318-0.798,0.758-1.475,1.316-2.029s1.217-0.978,1.977-1.267c0.76-0.29,1.58-0.436,2.463-0.436
	c0.863,0,1.676,0.146,2.436,0.436c0.76,0.289,1.42,0.712,1.982,1.267c0.564,0.555,1.01,1.231,1.336,2.029
	c0.328,0.799,0.492,1.702,0.492,2.711C363.16,248.545,362.996,249.451,362.668,250.252z M371.805,240.063v14.979h1.939v-12.938
	l9.297,12.938h2.592v-14.979h-1.938v12.949l-9.297-12.949H371.805z"/>
</svg>
