<?xml version="1.0" encoding="utf-8"?>
<!-- Generator: Adobe Illustrator 16.0.0, SVG Export Plug-In . SVG Version: 6.00 Build 0)  -->
<!DOCTYPE svg PUBLIC "-//W3C//DTD SVG 1.1//EN" "http://www.w3.org/Graphics/SVG/1.1/DTD/svg11.dtd">
<svg version="1.1" id="Layer_1" xmlns="http://www.w3.org/2000/svg" xmlns:xlink="http://www.w3.org/1999/xlink" x="0px" y="0px"
	 width="437.048px" height="414.761px" viewBox="0 0 437.048 414.761" enable-background="new 0 0 437.048 414.761"
	 xml:space="preserve">
<g>
	<g>
		<path fill="#FFFFFF" d="M115.035,260.674c-0.389,0-1.307-0.172-3.109-1.326c-0.451-0.293-0.842-0.537-1.18-0.723
			c-0.115-0.062-0.223-0.117-0.322-0.168c-0.023-0.012-0.137-0.045-0.162-0.049c-0.047-0.016-0.143-0.027-0.25-0.027
			c-0.154,0-0.273,0.021-0.363,0.064l0.012-0.002c-0.105,0.037-0.256,0.113-0.381,0.18c-0.342,0.188-0.732,0.432-1.186,0.725
			c-1.801,1.154-2.721,1.326-3.107,1.326c-0.037,0-0.07,0-0.1-0.004c0.354-1.188,0.367-1.889,0.055-2.32
			c-0.182-0.25-0.471-0.389-0.812-0.389c-0.432,0-0.908,0.207-1.367,0.406c-0.244,0.105-0.457,0.199-0.635,0.246
			c-0.9,0.238-1.459,0.287-1.77,0.287c-0.006,0-0.014,0-0.014,0c2.99-2.223,3.691-13.309,3.762-14.58l-0.016-0.35
			c-0.367-7.699-0.568-12.67-0.568-13.996c0-5.611-5.285-5.678-5.51-5.678c0,0-0.406-0.01-0.586-0.01
			c-3.564,0-5.527,1.613-5.527,4.543c0,4.721-0.381,7.99-2.396,11.748c-2.047,3.814-5.48,6.436-10.5,8.016
			c-0.215,0.068-0.424,0.102-0.621,0.102c-1.02,0-1.621-0.906-1.752-1.75c-0.125-0.822,0.154-1.918,1.355-2.297
			c2.893-0.91,7.229-3.613,7.979-5.352c0.164-0.379,0.172-0.723,0.027-1.023c-0.219-0.451-0.791-0.662-1.799-0.662
			c-3.16,0-10.281,2.133-13.221,6.381c-0.404,0.584-0.996,0.904-1.666,0.904c-0.814,0-1.629-0.469-1.98-1.139
			c-0.287-0.547-0.221-1.174,0.188-1.762c2.83-4.09,8.246-6.404,11.223-7.42c2.049-0.701,3.959-0.711,5.494-0.721
			c1.387-0.008,2.482-0.014,3.258-0.496c0.559-0.348,0.891-0.945,0.938-1.684c0.084-1.328-0.746-2.906-2.117-4.02
			c-1.068-0.865-3.373-1.518-5.361-1.518c-1.096,0-2.631,0.189-3.729,1.1c-0.24,0.201-0.416,0.555-0.709,1.143
			c-0.553,1.107-1.471,2.953-3.469,4.941c-2.869,2.859-7.91,5.742-11.236,6.424c-0.152,0.033-0.305,0.049-0.451,0.049
			c-1.191,0-1.939-1.057-2.041-2.049c-0.039-0.377-0.053-1.625,1.377-1.92c3.684-0.756,10.676-5.117,11.691-7.289
			c0.195-0.422,0.209-0.795,0.039-1.109c-0.209-0.387-0.646-0.582-1.297-0.582c-2.68,0-10.395,3.641-13.371,8.039
			c-0.4,0.59-0.986,0.914-1.654,0.914c-0.805,0-1.613-0.467-1.969-1.135c-0.293-0.553-0.234-1.188,0.17-1.783
			c3.461-5.115,10.762-9.059,18.598-10.049c1.621-0.203,3.332-0.307,5.092-0.307c4.271,0,7.717,0.602,9.014,0.828l0.359,0.062
			c0.236,0.039,0.469,0.057,0.701,0.057c2.295,0,4.385-1.857,4.385-3.896c0-4.266-6.715-9.934-9.787-9.934
			c-0.393,0-0.73,0.088-1.004,0.26c-0.66,0.416-1.369,1.18-2.268,2.146c-1.785,1.924-4.484,4.83-9.121,7.428
			c-7.242,4.057-16.193,5.174-20.883,5.48c-0.057,0.004-0.113,0.006-0.168,0.006c-1.232,0-1.701-0.928-1.727-1.723
			c-0.031-0.949,0.543-2.01,1.879-2.098c0.154-0.01,15.324-1.195,15.324-3.734c0-0.973-1.414-1.168-3.697-1.168
			c-2.01,0-4.617,0.182-7.139,0.355c-2.107,0.146-4.051,0.281-5.373,0.291c-1.375,0-1.885-0.957-1.904-1.779
			c-0.02-0.906,0.568-1.91,1.904-1.971c1.221-0.055,2.381-0.119,3.502-0.182l0.125-0.008c2.342-0.131,4.529-0.254,6.697-0.254
			c2.094,0,3.945,0.111,5.822,0.352c1.098,0.143,2.986,0.729,4.365,1.158c0.863,0.264,0.863,0.264,0.904,0.264
			c2.51,0,7.537-4.588,7.574-6.916c0.012-0.621-0.25-1.209-0.775-1.744c-1.086-1.104-3.307-1.873-5.398-1.873
			c-0.51,0-0.992,0.045-1.438,0.135c-0.449,0.094-0.789,0.383-1.217,0.748c-0.744,0.633-1.867,1.592-4.521,2.348
			c-3.287,0.938-7.959,1.135-11.299,1.135c-1.795,0-3.352-0.057-4.34-0.104c-1.338-0.064-1.924-1.1-1.902-2.033
			c0.02-0.795,0.49-1.725,1.754-1.725l0.133,0.004c0.902,0.043,2.004,0.066,3.18,0.066c4.969,0,13.348-0.311,13.66-2.391
			c0.043-0.277-0.037-0.547-0.232-0.779c-1.053-1.264-6.016-1.662-14.232-1.924l-1.078-0.037c-1.156-0.039-1.555-0.836-1.543-1.566
			c0.021-1.133,0.957-2.338,2.654-2.338l0.172,0.004c11.682,0.514,19.854,3.211,28.529,7.104c5.291,2.377,9.605,5.256,12.824,8.555
			c1.553,1.59,3.992,4.992,4.695,6.836c0.568,1.492,1.686,2.383,2.988,2.383c1.051,0,2.07-0.594,2.729-1.588
			c1.084-1.637,0.996-3.391-0.303-6.053c-1.121-2.299-3.387-4.061-6.818-6.729l-1.203-0.938c-1.617-1.266-3.342-3.105-4.865-4.729
			c-2.078-2.217-3.58-3.816-4.662-4.029c-0.348-0.068-0.738-0.102-1.191-0.102c-0.711,0-1.506,0.08-2.424,0.172
			c-1.232,0.121-2.623,0.26-4.275,0.26c-2.025,0-4.004-0.213-6.049-0.648c-7.559-1.611-15.977-6.189-18.742-7.695
			c-1.129-0.613-1.088-1.531-0.963-2.025c0.215-0.846,1.012-1.701,2.117-1.701c0.326,0,0.658,0.078,0.986,0.232
			c0.977,0.459,2.348,1.189,3.801,1.959c3.889,2.066,8.287,4.404,10.141,4.404c0.77,0,1.047-0.396,1.145-0.633
			c1.115-2.701-8.219-9.15-11.568-10.686c-1.072-0.49-1.049-1.406-0.939-1.91c0.205-0.934,1.035-1.9,2.072-1.9
			c0.33,0,0.662,0.102,0.986,0.303c4.24,2.629,9.018,5.98,12.311,10.902c0.518,0.773,0.861,1.555,1.191,2.309
			c0.52,1.18,1.01,2.293,2.035,3.021c0.625,0.443,1.822,0.719,3.125,0.719c2.174,0,3.895-0.715,4.604-1.912
			c0.508-0.859,0.523-2.004,0.047-3.223c-0.654-1.676-2.086-3.1-3.559-3.541c-2.139-0.641-4.16-1.648-7.371-3.402
			c-3.406-1.863-6.992-5.076-9.035-7.436c-0.568-0.656-0.707-1.441-0.381-2.156c0.318-0.697,0.998-1.164,1.691-1.164
			c0.502,0,0.98,0.246,1.387,0.715c2.342,2.701,9.555,8.648,11.752,8.648c0.309,0,0.564-0.102,0.74-0.293
			c1.754-1.906-5.236-9.592-8.322-12.807c-0.578-0.602-0.725-1.377-0.404-2.129c0.355-0.834,1.189-1.439,1.984-1.439
			c0.482,0,0.936,0.225,1.311,0.652c4.09,4.668,9.023,10.881,10.902,17.545l0.535,1.328c1.881,4.645,3.504,8.654,6.58,12.953
			c2.508,3.51,7.906,8.715,10.221,8.715c0.988-0.025,1.746-0.545,2.197-1.502c1.078-2.281,0.201-6.742-1.842-9.357
			c-0.467-0.6-0.66-0.754-1.381-1.332c-0.777-0.623-2.215-1.777-5.377-4.576c-9.725-8.609-12.66-16.74-16.061-26.154l-0.391-1.08
			c-0.213-0.592-0.174-1.119,0.111-1.527c0.328-0.465,0.957-0.754,1.646-0.754c0.984,0,1.773,0.555,2.111,1.484
			c0.361,1,0.775,2.369,1.213,3.818c1.787,5.918,2.775,8.707,4.105,8.707c0.164,0,0.322-0.043,0.471-0.131
			c1.719-1.008,0.717-6.697-0.664-13.473l-0.287-1.42c-0.129-0.66-0.016-1.232,0.332-1.654c0.322-0.395,0.834-0.629,1.367-0.629
			c0.34,0,1.467,0.117,1.729,1.625l0.08,0.465c0.51,2.932,1.281,7.359,1.324,10.412c0.037,2.717-0.252,4.451-0.482,5.846
			c-0.209,1.252-0.373,2.232-0.209,3.355c0.34,2.303,2.191,4.102,4.334,6.184l0.34,0.332c2.318,2.26,3.76,3.182,4.975,3.182
			c0.436,0,0.85-0.121,1.23-0.361c1.957-1.225,0.953-5.691,0.094-7.328c-0.572-1.088-1.113-1.74-1.637-2.373
			c-0.955-1.154-1.943-2.348-3.326-6.48c-1.117-3.346-1.928-8.199-2.521-11.742l-0.021-0.135c-0.156-0.934-0.297-1.775-0.426-2.473
			c-0.162-0.885,0.146-1.48,0.436-1.826c0.395-0.475,0.982-0.758,1.57-0.758c0.797,0,1.352,0.523,1.518,1.436
			c0.154,0.844,0.32,1.801,0.496,2.822c1.76,10.168,2.828,14.668,4.549,14.668c0.082,0,0.164-0.01,0.242-0.031
			c1.201-0.307,1.367-6.385,0.492-18.064c0.002-0.998,0.52-2.027,1.674-2.027c1.096,0,1.986,0.92,1.986,2.047l0.145,68.822
			c0,2.525,1.26,3.244,1.803,3.438c0.166,0.057,0.312,0.09,0.453,0.105c0.008,0,0.1,0.023,0.107,0.023
			c0.027,0,0.057-0.004,0.084-0.01c0.113,0,0.162-0.006,0.207-0.014c0.031,0,0.111-0.018,0.146-0.029
			c0.139-0.014,0.256-0.051,0.326-0.076c0.543-0.191,1.803-0.91,1.803-3.439l0.146-68.818c0-1.129,0.891-2.049,1.984-2.049
			c1.236,0,1.674,1.113,1.674,2.064c-0.873,11.648-0.707,17.721,0.494,18.027c0.08,0.021,0.162,0.031,0.242,0.031
			c1.719,0,2.787-4.496,4.533-14.578c0.182-1.055,0.354-2.043,0.512-2.912c0.168-0.912,0.721-1.436,1.52-1.436
			c0.588,0,1.174,0.283,1.57,0.758c0.287,0.346,0.596,0.941,0.432,1.826c-0.123,0.68-0.26,1.498-0.412,2.404l-0.029,0.172
			c-0.592,3.551-1.404,8.416-2.527,11.773c-1.381,4.131-2.369,5.326-3.324,6.48c-0.523,0.635-1.064,1.287-1.635,2.373
			c-0.693,1.32-2.496,6.387-0.441,7.674c0.338,0.213,0.725,0.318,1.148,0.318c1.355,0,3.184-1.141,5.59-3.484l0.336-0.326
			c2.145-2.084,3.998-3.885,4.338-6.189c0.164-1.123,0.002-2.104-0.205-3.344c-0.232-1.4-0.523-3.137-0.484-5.857
			c0.041-3.049,0.811-7.473,1.32-10.4l0.084-0.477c0.26-1.508,1.389-1.625,1.727-1.625c0.533,0,1.045,0.234,1.367,0.629
			c0.348,0.422,0.461,0.994,0.33,1.654l-0.291,1.447c-1.377,6.76-2.375,12.439-0.658,13.445c0.148,0.088,0.307,0.131,0.473,0.131
			c1.328,0,2.316-2.785,4.102-8.699c0.445-1.473,0.857-2.838,1.215-3.828c0.338-0.928,1.127-1.482,2.111-1.482
			c0.689,0,1.32,0.289,1.646,0.754c0.285,0.408,0.322,0.936,0.109,1.527l-0.385,1.066c-3.4,9.42-6.336,17.555-16.064,26.168
			c-3.164,2.801-4.6,3.953-5.373,4.572c-0.725,0.582-0.918,0.736-1.385,1.336c-2.029,2.6-2.891,7.053-1.809,9.344
			c0.457,0.967,1.207,1.49,2.172,1.514c2.475,0.002,8.02-5.641,10.215-8.713c3.072-4.297,4.693-8.301,6.572-12.938l0.523-1.291
			c1.895-6.711,6.832-12.928,10.92-17.598c0.375-0.428,0.828-0.652,1.311-0.652c0.795,0,1.629,0.605,1.986,1.439
			c0.32,0.752,0.174,1.527-0.404,2.129c-3.086,3.215-10.078,10.898-8.324,12.807c0.176,0.193,0.432,0.293,0.738,0.293
			c2.201,0,9.412-5.947,11.754-8.648c0.406-0.469,0.885-0.715,1.389-0.715c0.693,0,1.373,0.469,1.691,1.164
			c0.326,0.715,0.188,1.5-0.381,2.156c-1.895,2.188-5.398,5.447-9.037,7.436c-3.209,1.752-5.23,2.76-7.369,3.402
			c-1.473,0.441-2.904,1.863-3.559,3.539c-0.479,1.221-0.463,2.365,0.045,3.223c0.709,1.199,2.43,1.914,4.604,1.914
			c1.303,0,2.502-0.275,3.125-0.719c1.025-0.729,1.516-1.84,2.033-3.016c0.332-0.76,0.676-1.543,1.193-2.314
			c3.293-4.924,8.072-8.273,12.311-10.902c0.324-0.201,0.656-0.303,0.986-0.303c1.037,0,1.867,0.967,2.072,1.9
			c0.109,0.504,0.135,1.42-0.938,1.912c-3.352,1.533-12.686,7.98-11.57,10.684c0.098,0.236,0.375,0.633,1.145,0.633
			c1.855-0.002,6.258-2.34,10.143-4.404c1.451-0.77,2.822-1.498,3.801-1.959c0.328-0.154,0.66-0.232,0.986-0.232
			c1.105,0,1.9,0.855,2.115,1.701c0.125,0.494,0.168,1.412-0.963,2.025c-2.764,1.506-11.176,6.082-18.744,7.695
			c-2.043,0.436-4.021,0.648-6.047,0.648c-1.652,0-3.043-0.139-4.27-0.26c-0.926-0.092-1.719-0.172-2.43-0.172
			c-0.455,0-0.844,0.033-1.191,0.102c-1.08,0.213-2.582,1.812-4.66,4.027c-1.521,1.623-3.246,3.461-4.867,4.73l-1.254,0.977
			c-3.459,2.689-5.545,4.311-6.764,6.68c-1.203,2.346-1.662,4.061-0.453,5.891c0.693,1.043,1.779,1.666,2.904,1.666
			c1.326,0,2.406-0.834,2.961-2.289c0.703-1.842,3.143-5.246,4.693-6.836c3.217-3.299,7.533-6.178,12.824-8.555
			c8.678-3.893,16.852-6.59,28.535-7.104l0.174-0.004c1.691,0,2.627,1.205,2.646,2.338c0.014,0.73-0.385,1.527-1.541,1.566
			l-1.08,0.037c-8.217,0.262-13.18,0.66-14.23,1.924c-0.195,0.232-0.275,0.502-0.234,0.779c0.311,2.08,8.691,2.391,13.658,2.391
			c1.178,0,2.279-0.023,3.188-0.066l0.133-0.004c1.258,0,1.729,0.93,1.748,1.727c0.021,0.934-0.562,1.967-1.9,2.031
			c-0.988,0.047-2.545,0.104-4.342,0.104c-3.338,0-8.01-0.197-11.299-1.135c-2.652-0.756-3.777-1.715-4.521-2.348
			c-0.43-0.365-0.768-0.654-1.217-0.746c-0.445-0.092-0.928-0.137-1.438-0.137c-2.092,0-4.311,0.77-5.396,1.873
			c-0.527,0.535-0.787,1.123-0.777,1.746c0.039,2.33,5.004,6.926,7.484,6.924l1-0.275c1.385-0.43,3.268-1.016,4.359-1.156
			c1.879-0.24,3.729-0.352,5.822-0.352c2.17,0,4.357,0.123,6.676,0.252l0.148,0.01c1.121,0.062,2.281,0.127,3.502,0.182
			c1.336,0.061,1.924,1.064,1.902,1.971c-0.018,0.822-0.521,1.779-1.883,1.779c-1.344-0.01-3.287-0.145-5.346-0.287
			c-2.568-0.178-5.176-0.359-7.186-0.359c-2.283,0-3.699,0.195-3.699,1.168c0,2.539,15.172,3.725,15.326,3.734
			c1.334,0.088,1.908,1.148,1.877,2.096c-0.025,0.795-0.494,1.725-1.727,1.725c-0.055,0-0.109-0.002-0.166-0.006
			c-4.691-0.307-13.641-1.424-20.887-5.48c-4.635-2.598-7.332-5.502-9.117-7.424c-0.898-0.969-1.607-1.732-2.27-2.15
			c-0.273-0.172-0.611-0.26-1.004-0.26c-3.072,0-9.787,5.668-9.787,9.934c0,0.977,0.488,1.969,1.338,2.723
			c0.842,0.746,1.953,1.174,3.049,1.174c0.23,0,0.465-0.018,0.699-0.057l0.357-0.061c1.299-0.229,4.744-0.83,9.018-0.83
			c1.758,0,3.469,0.104,5.088,0.307c7.838,0.99,15.139,4.934,18.6,10.049c0.404,0.596,0.465,1.229,0.172,1.783
			c-0.355,0.668-1.164,1.135-1.969,1.135c-0.668,0-1.256-0.324-1.654-0.914c-2.977-4.398-10.691-8.039-13.371-8.039
			c-0.652,0-1.088,0.195-1.297,0.58c-0.17,0.316-0.158,0.689,0.039,1.111c1.012,2.172,8.004,6.533,11.689,7.289
			c1.43,0.295,1.416,1.543,1.379,1.92c-0.102,0.992-0.852,2.049-2.043,2.049c-0.146,0-0.299-0.016-0.451-0.047
			c-3.328-0.686-8.367-3.566-11.238-6.426c-1.994-1.986-2.914-3.832-3.463-4.936c-0.295-0.592-0.473-0.947-0.713-1.148
			c-1.096-0.91-2.633-1.1-3.727-1.1c-1.99,0-4.295,0.652-5.361,1.52c-1.369,1.109-2.201,2.688-2.117,4.016
			c0.045,0.74,0.379,1.338,0.936,1.686c0.777,0.482,1.871,0.488,3.258,0.496c1.537,0.01,3.447,0.02,5.494,0.721
			c2.977,1.016,8.393,3.332,11.223,7.42c0.408,0.59,0.475,1.215,0.188,1.762c-0.352,0.67-1.166,1.139-1.98,1.139
			c-0.668,0-1.26-0.322-1.664-0.904c-2.941-4.25-10.062-6.381-13.221-6.381c-1.008,0-1.58,0.211-1.799,0.662
			c-0.146,0.301-0.137,0.645,0.027,1.023c0.75,1.738,5.086,4.441,7.977,5.352c1.203,0.379,1.482,1.475,1.355,2.297
			c-0.129,0.844-0.732,1.75-1.752,1.75c-0.197,0-0.408-0.033-0.623-0.102c-5.018-1.58-8.451-4.201-10.498-8.016
			c-2.014-3.758-2.396-7.027-2.396-11.748c0-2.93-1.963-4.543-5.525-4.543c-0.182,0-0.594,0.01-0.594,0.01l0,0
			c-0.225,0-5.504,0.068-5.504,5.678c0,2.25-0.576,14.174-0.582,14.293c0.027,0.533,0.686,12.344,3.768,14.633
			c-0.006,0-0.014,0-0.021,0c-0.311,0-0.869-0.049-1.77-0.287c-0.178-0.047-0.389-0.139-0.607-0.234
			c-0.488-0.211-0.963-0.418-1.395-0.418c-0.342,0-0.631,0.139-0.812,0.389c-0.312,0.432-0.299,1.133,0.053,2.32
			C115.104,260.674,115.072,260.674,115.035,260.674z M112.902,232.521l-1.133-1.129l-1.719,1.709l-1.721-1.709l-1.133,1.129
			l1.719,1.711l-1.719,1.713l1.133,1.131l1.721-1.713l1.719,1.713l1.133-1.131l-1.719-1.713L112.902,232.521z M111.77,238.273
			l-1.719,1.713l-1.719-1.713l-1.135,1.131l1.719,1.711l-1.719,1.711l1.135,1.131l1.719-1.715l1.719,1.715l1.133-1.131l-1.719-1.711
			l1.719-1.711L111.77,238.273z M111.77,245.154l-1.719,1.711l-1.719-1.711l-1.135,1.129l1.719,1.713l-1.719,1.713l1.135,1.129
			l1.719-1.709l1.719,1.709l1.133-1.129l-1.719-1.713l1.719-1.713L111.77,245.154z"/>
	</g>
</g>
<g>
	<path fill="#FFFFFF" d="M196.512,159.218l6.639,14.979h-2.018l-2.107-4.768h-7.766l-2.107,4.768h-2.004l6.691-14.979H196.512z
		 M195.15,160.7l-3.354,7.527h6.691L195.15,160.7z"/>
	<path fill="#FFFFFF" d="M213.992,159.218l5.814,12.777l5.904-12.777h2.514v14.979h-1.938v-12.271l-5.486,12.271h-1.768
		l-5.604-12.271v12.271h-1.939v-14.979H213.992z"/>
	<path fill="#FFFFFF" d="M238.348,169.515c0.043,0.537,0.189,1.029,0.438,1.477c0.25,0.447,0.584,0.836,1.002,1.166
		c0.42,0.328,0.916,0.584,1.486,0.768c0.572,0.182,1.199,0.273,1.879,0.273c0.611,0,1.197-0.055,1.756-0.166
		s1.051-0.287,1.479-0.527c0.428-0.238,0.77-0.551,1.021-0.934c0.254-0.383,0.381-0.846,0.381-1.391c0-0.443-0.139-0.82-0.412-1.133
		c-0.275-0.311-0.639-0.58-1.088-0.805c-0.449-0.227-0.961-0.42-1.531-0.586c-0.572-0.164-1.15-0.318-1.736-0.461
		c-0.488-0.115-0.979-0.24-1.473-0.377c-0.492-0.135-0.969-0.289-1.428-0.461c-0.457-0.172-0.885-0.369-1.283-0.59
		c-0.396-0.223-0.742-0.484-1.033-0.785c-0.293-0.301-0.525-0.643-0.695-1.025s-0.254-0.824-0.254-1.326
		c0-0.621,0.148-1.172,0.445-1.648c0.295-0.475,0.713-0.875,1.25-1.195c0.537-0.322,1.178-0.568,1.924-0.736
		s1.564-0.252,2.455-0.252c0.795,0,1.498,0.064,2.109,0.193s1.143,0.305,1.598,0.525c0.453,0.223,0.838,0.482,1.152,0.779
		s0.57,0.609,0.771,0.939c0.201,0.328,0.35,0.668,0.445,1.02s0.158,0.688,0.184,1.01h-1.977c-0.053-0.502-0.201-0.941-0.445-1.32
		c-0.244-0.381-0.557-0.699-0.938-0.957c-0.379-0.258-0.818-0.451-1.314-0.58c-0.498-0.129-1.027-0.193-1.586-0.193
		c-0.514,0-1.018,0.043-1.512,0.129s-0.934,0.225-1.322,0.414s-0.703,0.439-0.943,0.746c-0.24,0.309-0.359,0.684-0.359,1.127
		c0,0.459,0.135,0.848,0.406,1.166c0.27,0.318,0.633,0.592,1.086,0.82c0.453,0.23,0.973,0.428,1.559,0.592
		c0.584,0.164,1.188,0.326,1.807,0.482c0.488,0.129,0.98,0.26,1.473,0.393c0.494,0.133,0.965,0.285,1.414,0.455
		c0.451,0.172,0.869,0.367,1.258,0.586s0.727,0.473,1.016,0.762c0.287,0.291,0.512,0.623,0.674,1
		c0.162,0.375,0.242,0.807,0.242,1.293c0,0.73-0.164,1.373-0.49,1.928c-0.328,0.555-0.785,1.018-1.369,1.391
		c-0.586,0.373-1.279,0.652-2.082,0.842c-0.803,0.191-1.682,0.285-2.633,0.285c-0.855,0-1.688-0.119-2.5-0.359
		s-1.535-0.58-2.168-1.02c-0.633-0.441-1.143-0.977-1.531-1.605c-0.389-0.631-0.596-1.338-0.623-2.127H238.348z"/>
	<path fill="#FFFFFF" d="M270.873,159.218v1.449h-6.049v13.529h-1.938v-13.529h-6.037v-1.449H270.873z"/>
	<path fill="#FFFFFF" d="M291.197,159.218v1.449h-10.24v5.068h9.637v1.449h-9.637v5.562h10.699v1.449H279.02v-14.979H291.197z"/>
	<path fill="#FFFFFF" d="M313.312,163.481c0,0.371-0.055,0.736-0.162,1.094c-0.109,0.359-0.273,0.697-0.492,1.016
		s-0.486,0.609-0.805,0.875s-0.691,0.494-1.119,0.688c0.479,0.1,0.869,0.252,1.172,0.455c0.301,0.205,0.535,0.441,0.707,0.709
		c0.17,0.27,0.287,0.562,0.354,0.881c0.064,0.318,0.098,0.643,0.098,0.973v2.254c0,0.322,0.055,0.635,0.164,0.939
		s0.246,0.582,0.412,0.832h-2.107c-0.088-0.113-0.156-0.244-0.203-0.391c-0.049-0.146-0.086-0.299-0.111-0.457
		c-0.027-0.158-0.045-0.311-0.053-0.457c-0.01-0.146-0.014-0.273-0.014-0.381v-2.383c0-0.287-0.059-0.572-0.176-0.854
		c-0.119-0.283-0.311-0.535-0.576-0.758c-0.268-0.223-0.613-0.4-1.041-0.537c-0.428-0.135-0.947-0.203-1.559-0.203h-5.525v6.42
		h-1.939v-14.979h7.465c0.891,0,1.678,0.127,2.363,0.381s1.262,0.584,1.729,0.988s0.82,0.861,1.061,1.369
		S313.312,162.972,313.312,163.481z M302.275,166.37h5.525c0.48,0,0.934-0.076,1.361-0.227s0.805-0.357,1.133-0.623
		c0.328-0.264,0.588-0.572,0.779-0.924c0.191-0.35,0.287-0.729,0.287-1.137c0-0.402-0.09-0.771-0.268-1.111
		c-0.18-0.34-0.428-0.637-0.746-0.887s-0.697-0.445-1.133-0.584c-0.438-0.141-0.908-0.211-1.414-0.211h-5.525V166.37z"/>
	<path fill="#FFFFFF" d="M322.584,159.218h6.77c0.803,0,1.557,0.09,2.258,0.27c0.703,0.178,1.346,0.43,1.926,0.756
		s1.1,0.719,1.559,1.176c0.457,0.459,0.844,0.963,1.158,1.514c0.314,0.553,0.555,1.145,0.721,1.777
		c0.166,0.635,0.248,1.291,0.248,1.971c0,1.066-0.191,2.057-0.576,2.969c-0.383,0.912-0.922,1.707-1.617,2.383
		c-0.693,0.678-1.523,1.207-2.488,1.59c-0.963,0.383-2.027,0.574-3.188,0.574h-6.77V159.218z M324.521,172.747h4.059
		c0.961,0,1.852-0.135,2.672-0.408c0.82-0.271,1.529-0.666,2.129-1.182c0.598-0.514,1.064-1.146,1.4-1.895s0.504-1.598,0.504-2.551
		c0-1.037-0.17-1.938-0.51-2.699c-0.342-0.764-0.812-1.391-1.416-1.885c-0.602-0.494-1.311-0.861-2.127-1.102
		c-0.816-0.238-1.699-0.359-2.652-0.359h-4.059V172.747z"/>
	<path fill="#FFFFFF" d="M353.932,159.218l6.639,14.979h-2.016l-2.107-4.768h-7.766l-2.109,4.768h-2.002l6.691-14.979H353.932z
		 M352.57,160.7l-3.352,7.527h6.691L352.57,160.7z"/>
	<path fill="#FFFFFF" d="M371.412,159.218l5.814,12.777l5.906-12.777h2.514v14.979h-1.938v-12.271l-5.486,12.271h-1.768
		l-5.605-12.271v12.271h-1.938v-14.979H371.412z"/>
	<path fill="#FFFFFF" d="M188.117,186.167h6.914c0.891,0,1.676,0.127,2.357,0.381s1.252,0.584,1.715,0.988s0.814,0.859,1.055,1.369
		c0.24,0.508,0.359,1.016,0.359,1.523c0,0.545-0.119,1.074-0.359,1.59s-0.594,0.973-1.061,1.375c-0.467,0.4-1.041,0.723-1.723,0.965
		c-0.68,0.244-1.461,0.365-2.344,0.365h-4.975v6.422h-1.939V186.167z M190.057,193.317h4.975c0.473,0,0.922-0.074,1.35-0.225
		s0.805-0.359,1.133-0.623c0.326-0.266,0.586-0.572,0.779-0.924c0.191-0.352,0.287-0.73,0.287-1.139c0-0.4-0.09-0.771-0.268-1.111
		c-0.18-0.34-0.428-0.635-0.748-0.885c-0.318-0.252-0.693-0.447-1.125-0.586s-0.902-0.209-1.408-0.209h-4.975V193.317z"/>
	<path fill="#FFFFFF" d="M207.459,196.464c0.043,0.537,0.189,1.029,0.438,1.477c0.25,0.447,0.584,0.836,1.002,1.164
		c0.42,0.33,0.916,0.586,1.486,0.768c0.572,0.184,1.199,0.273,1.879,0.273c0.611,0,1.197-0.055,1.756-0.166s1.051-0.285,1.479-0.525
		s0.77-0.551,1.021-0.934c0.254-0.383,0.381-0.848,0.381-1.391c0-0.445-0.139-0.822-0.412-1.133
		c-0.275-0.312-0.639-0.58-1.088-0.807c-0.449-0.225-0.961-0.42-1.531-0.584c-0.572-0.166-1.15-0.318-1.736-0.463
		c-0.488-0.113-0.979-0.238-1.473-0.375c-0.492-0.137-0.969-0.291-1.428-0.461c-0.457-0.172-0.885-0.369-1.283-0.592
		c-0.396-0.221-0.742-0.482-1.033-0.783c-0.293-0.301-0.525-0.643-0.695-1.025s-0.254-0.826-0.254-1.326
		c0-0.623,0.148-1.172,0.445-1.648c0.295-0.477,0.713-0.875,1.25-1.197s1.178-0.566,1.924-0.736
		c0.746-0.168,1.564-0.252,2.455-0.252c0.795,0,1.498,0.064,2.109,0.193s1.143,0.305,1.598,0.527
		c0.453,0.221,0.838,0.48,1.152,0.777s0.57,0.611,0.771,0.939c0.201,0.33,0.35,0.67,0.445,1.02c0.096,0.352,0.158,0.688,0.184,1.01
		h-1.977c-0.053-0.5-0.201-0.941-0.445-1.32s-0.557-0.697-0.938-0.955c-0.379-0.258-0.818-0.451-1.314-0.58
		c-0.498-0.129-1.027-0.193-1.586-0.193c-0.514,0-1.018,0.043-1.512,0.129s-0.934,0.223-1.322,0.414
		c-0.389,0.189-0.703,0.438-0.943,0.746c-0.24,0.307-0.359,0.684-0.359,1.127c0,0.457,0.135,0.846,0.406,1.164
		c0.27,0.318,0.633,0.594,1.086,0.822s0.973,0.426,1.559,0.59c0.584,0.166,1.188,0.326,1.807,0.484
		c0.488,0.129,0.98,0.26,1.473,0.391c0.494,0.133,0.965,0.285,1.414,0.457c0.451,0.172,0.869,0.367,1.258,0.586
		c0.389,0.217,0.727,0.471,1.016,0.762c0.287,0.289,0.512,0.623,0.674,0.998c0.162,0.377,0.242,0.807,0.242,1.295
		c0,0.729-0.164,1.371-0.49,1.926c-0.328,0.557-0.785,1.02-1.369,1.391c-0.586,0.373-1.279,0.654-2.082,0.844
		s-1.682,0.285-2.633,0.285c-0.855,0-1.688-0.121-2.5-0.361c-0.812-0.238-1.535-0.578-2.168-1.02
		c-0.633-0.439-1.143-0.975-1.531-1.605c-0.389-0.629-0.596-1.338-0.623-2.125H207.459z"/>
	<path fill="#FFFFFF" d="M230.871,193.726l5.277-7.559h2.238l-6.561,8.965v6.014h-1.924v-6.014l-6.535-8.965h2.24L230.871,193.726z"
		/>
	<path fill="#FFFFFF" d="M244.83,193.394c0,1.145,0.182,2.137,0.543,2.979c0.363,0.842,0.84,1.539,1.428,2.094
		c0.59,0.555,1.258,0.967,2.004,1.234c0.746,0.27,1.504,0.402,2.271,0.402c0.795,0,1.514-0.117,2.154-0.354
		c0.643-0.236,1.201-0.549,1.676-0.939c0.477-0.391,0.869-0.834,1.18-1.332c0.309-0.496,0.529-1.006,0.66-1.529h1.979
		c-0.184,0.773-0.486,1.5-0.904,2.18c-0.42,0.68-0.949,1.271-1.592,1.771c-0.641,0.502-1.393,0.896-2.252,1.188
		c-0.859,0.289-1.826,0.434-2.9,0.434c-1.248,0-2.377-0.184-3.385-0.553s-1.867-0.902-2.58-1.6
		c-0.711-0.697-1.258-1.551-1.643-2.557c-0.385-1.004-0.576-2.145-0.576-3.418c0-0.66,0.08-1.305,0.242-1.939
		c0.162-0.633,0.402-1.23,0.721-1.793s0.711-1.08,1.178-1.557s1.002-0.885,1.604-1.225c0.604-0.34,1.273-0.605,2.012-0.799
		c0.736-0.193,1.533-0.291,2.389-0.291c1.082,0,2.051,0.119,2.906,0.355s1.6,0.562,2.234,0.982c0.633,0.418,1.162,0.916,1.59,1.492
		s0.76,1.207,0.996,1.895h-2.057c-0.48-1.123-1.18-1.959-2.102-2.508c-0.922-0.547-2.111-0.82-3.568-0.82
		c-0.908,0-1.742,0.164-2.5,0.494c-0.76,0.328-1.416,0.777-1.965,1.342c-0.551,0.566-0.979,1.225-1.283,1.977
		C244.982,191.749,244.83,192.548,244.83,193.394z"/>
	<path fill="#FFFFFF" d="M266.855,186.167v6.518h9.939v-6.518h1.938v14.979h-1.938v-7.045h-9.939v7.045h-1.938v-14.979H266.855z"/>
	<path fill="#FFFFFF" d="M298.098,186.167v1.449h-10.238v5.068h9.637v1.449h-9.637v5.562h10.697v1.449H285.92v-14.979H298.098z"/>
	<path fill="#FFFFFF" d="M305.078,186.167h6.77c0.803,0,1.557,0.09,2.258,0.268c0.703,0.18,1.346,0.432,1.926,0.758
		c0.58,0.324,1.1,0.717,1.559,1.176c0.457,0.457,0.844,0.963,1.158,1.514s0.555,1.143,0.721,1.777
		c0.166,0.633,0.248,1.289,0.248,1.969c0,1.068-0.191,2.057-0.576,2.971c-0.383,0.912-0.922,1.707-1.617,2.383
		c-0.693,0.676-1.523,1.207-2.488,1.59c-0.963,0.383-2.027,0.574-3.188,0.574h-6.77V186.167z M307.016,199.696h4.059
		c0.961,0,1.852-0.137,2.672-0.408c0.82-0.273,1.529-0.666,2.129-1.182c0.598-0.516,1.064-1.146,1.4-1.895s0.504-1.6,0.504-2.551
		c0-1.037-0.17-1.938-0.51-2.701c-0.342-0.762-0.812-1.391-1.416-1.885c-0.602-0.492-1.311-0.859-2.127-1.1
		s-1.699-0.359-2.652-0.359h-4.059V199.696z"/>
	<path fill="#FFFFFF" d="M338.049,186.167v1.449h-10.238v5.068h9.637v1.449h-9.637v5.562h10.697v1.449h-12.637v-14.979H338.049z"/>
	<path fill="#FFFFFF" d="M346.967,186.167v13.529h9.18v1.449h-11.117v-14.979H346.967z"/>
	<path fill="#FFFFFF" d="M364.355,186.167v14.979h-1.951v-14.979H364.355z"/>
	<path fill="#FFFFFF" d="M372.75,193.394c0,1.145,0.18,2.137,0.543,2.979c0.361,0.842,0.838,1.539,1.428,2.094
		c0.588,0.555,1.256,0.967,2.002,1.234c0.748,0.27,1.504,0.402,2.273,0.402c0.793,0,1.512-0.117,2.154-0.354
		c0.641-0.236,1.199-0.549,1.676-0.939c0.475-0.391,0.867-0.834,1.178-1.332c0.311-0.496,0.531-1.006,0.662-1.529h1.977
		c-0.184,0.773-0.484,1.5-0.904,2.18c-0.418,0.68-0.949,1.271-1.59,1.771c-0.643,0.502-1.393,0.896-2.252,1.188
		c-0.861,0.289-1.828,0.434-2.9,0.434c-1.25,0-2.377-0.184-3.385-0.553c-1.01-0.369-1.869-0.902-2.58-1.6s-1.26-1.551-1.645-2.557
		c-0.383-1.004-0.576-2.145-0.576-3.418c0-0.66,0.082-1.305,0.244-1.939c0.16-0.633,0.4-1.23,0.719-1.793s0.711-1.08,1.18-1.557
		c0.467-0.477,1.002-0.885,1.604-1.225s1.271-0.605,2.01-0.799s1.533-0.291,2.391-0.291c1.082,0,2.051,0.119,2.906,0.355
		s1.6,0.562,2.232,0.982c0.633,0.418,1.164,0.916,1.592,1.492s0.758,1.207,0.994,1.895h-2.055c-0.48-1.123-1.182-1.959-2.102-2.508
		c-0.922-0.547-2.111-0.82-3.568-0.82c-0.908,0-1.742,0.164-2.502,0.494c-0.76,0.328-1.414,0.777-1.965,1.342
		c-0.549,0.566-0.977,1.225-1.283,1.977C372.902,191.749,372.75,192.548,372.75,193.394z"/>
	<path fill="#FFFFFF" d="M201.094,217.378c0,0.371-0.055,0.736-0.162,1.094c-0.109,0.359-0.273,0.697-0.492,1.016
		s-0.486,0.609-0.805,0.875s-0.691,0.494-1.119,0.688c0.479,0.1,0.869,0.252,1.172,0.455c0.301,0.205,0.535,0.441,0.707,0.709
		c0.17,0.27,0.287,0.562,0.354,0.881c0.064,0.318,0.098,0.643,0.098,0.973v2.254c0,0.322,0.055,0.635,0.164,0.939
		s0.246,0.582,0.412,0.832h-2.107c-0.088-0.113-0.156-0.244-0.203-0.391c-0.049-0.146-0.086-0.299-0.111-0.457
		c-0.027-0.158-0.045-0.311-0.053-0.457c-0.01-0.146-0.014-0.273-0.014-0.381v-2.383c0-0.287-0.059-0.572-0.176-0.854
		c-0.119-0.283-0.311-0.535-0.576-0.758c-0.268-0.223-0.613-0.4-1.041-0.537c-0.428-0.135-0.947-0.203-1.559-0.203h-5.525v6.42
		h-1.939v-14.979h7.465c0.891,0,1.678,0.127,2.363,0.381s1.262,0.584,1.729,0.988s0.82,0.861,1.061,1.369
		S201.094,216.868,201.094,217.378z M190.057,220.267h5.525c0.48,0,0.934-0.076,1.361-0.227s0.805-0.357,1.133-0.623
		c0.328-0.264,0.588-0.572,0.779-0.924c0.191-0.35,0.287-0.729,0.287-1.137c0-0.402-0.09-0.771-0.268-1.111
		c-0.18-0.34-0.428-0.637-0.746-0.887s-0.697-0.445-1.133-0.584c-0.438-0.141-0.908-0.211-1.414-0.211h-5.525V220.267z"/>
	<path fill="#FFFFFF" d="M226.77,213.114v1.449h-10.238v5.068h9.637v1.449h-9.637v5.562h10.697v1.449h-12.637v-14.979H226.77z"/>
	<path fill="#FFFFFF" d="M240.91,223.411c0.045,0.537,0.191,1.029,0.439,1.477s0.582,0.836,1.002,1.166
		c0.418,0.328,0.914,0.584,1.486,0.768c0.57,0.182,1.197,0.273,1.879,0.273c0.611,0,1.195-0.055,1.754-0.166s1.053-0.287,1.48-0.527
		c0.428-0.238,0.768-0.551,1.021-0.934c0.252-0.383,0.379-0.846,0.379-1.391c0-0.443-0.137-0.82-0.412-1.133
		c-0.275-0.311-0.637-0.58-1.086-0.805c-0.451-0.227-0.961-0.42-1.533-0.586c-0.572-0.164-1.15-0.318-1.734-0.461
		c-0.49-0.115-0.98-0.24-1.473-0.377c-0.494-0.135-0.971-0.289-1.428-0.461c-0.459-0.172-0.887-0.369-1.283-0.59
		c-0.398-0.223-0.742-0.484-1.035-0.785s-0.523-0.643-0.693-1.025s-0.256-0.824-0.256-1.326c0-0.621,0.148-1.172,0.445-1.648
		c0.297-0.475,0.713-0.875,1.25-1.195c0.537-0.322,1.18-0.568,1.926-0.736s1.564-0.252,2.455-0.252c0.795,0,1.496,0.064,2.107,0.193
		s1.145,0.305,1.598,0.525c0.455,0.223,0.838,0.482,1.152,0.779s0.572,0.609,0.773,0.939c0.201,0.328,0.348,0.668,0.445,1.02
		c0.096,0.352,0.156,0.688,0.184,1.01h-1.979c-0.053-0.502-0.201-0.941-0.445-1.32c-0.244-0.381-0.557-0.699-0.936-0.957
		c-0.381-0.258-0.818-0.451-1.316-0.58s-1.025-0.193-1.584-0.193c-0.516,0-1.02,0.043-1.512,0.129
		c-0.494,0.086-0.936,0.225-1.324,0.414s-0.701,0.439-0.941,0.746c-0.24,0.309-0.361,0.684-0.361,1.127
		c0,0.459,0.137,0.848,0.406,1.166c0.271,0.318,0.633,0.592,1.088,0.82c0.453,0.23,0.973,0.428,1.557,0.592
		c0.586,0.164,1.188,0.326,1.809,0.482c0.488,0.129,0.979,0.26,1.473,0.393c0.492,0.133,0.965,0.285,1.414,0.455
		c0.449,0.172,0.869,0.367,1.258,0.586c0.387,0.219,0.727,0.473,1.014,0.762c0.289,0.291,0.514,0.623,0.674,1
		c0.162,0.375,0.242,0.807,0.242,1.293c0,0.73-0.162,1.373-0.49,1.928s-0.783,1.018-1.369,1.391
		c-0.584,0.373-1.277,0.652-2.082,0.842c-0.803,0.191-1.68,0.285-2.631,0.285c-0.855,0-1.689-0.119-2.502-0.359
		c-0.811-0.24-1.533-0.58-2.166-1.02c-0.633-0.441-1.145-0.977-1.533-1.605c-0.389-0.631-0.596-1.338-0.621-2.127H240.91z"/>
	<path fill="#FFFFFF" d="M277.023,213.114v1.449h-10.24v5.068h9.637v1.449h-9.637v5.562h10.699v1.449h-12.637v-14.979H277.023z"/>
	<path fill="#FFFFFF" d="M298.783,213.114l6.639,14.979h-2.016l-2.107-4.768h-7.766l-2.109,4.768h-2.002l6.691-14.979H298.783z
		 M297.422,214.597l-3.352,7.527h6.691L297.422,214.597z"/>
	<path fill="#FFFFFF" d="M330.967,217.378c0,0.371-0.055,0.736-0.162,1.094c-0.109,0.359-0.273,0.697-0.492,1.016
		s-0.486,0.609-0.805,0.875s-0.691,0.494-1.119,0.688c0.479,0.1,0.869,0.252,1.172,0.455c0.301,0.205,0.535,0.441,0.707,0.709
		c0.17,0.27,0.287,0.562,0.354,0.881c0.064,0.318,0.098,0.643,0.098,0.973v2.254c0,0.322,0.055,0.635,0.164,0.939
		s0.246,0.582,0.412,0.832h-2.107c-0.088-0.113-0.156-0.244-0.203-0.391c-0.049-0.146-0.086-0.299-0.111-0.457
		c-0.027-0.158-0.045-0.311-0.053-0.457c-0.01-0.146-0.014-0.273-0.014-0.381v-2.383c0-0.287-0.059-0.572-0.176-0.854
		c-0.119-0.283-0.311-0.535-0.576-0.758c-0.268-0.223-0.613-0.4-1.041-0.537c-0.428-0.135-0.947-0.203-1.559-0.203h-5.525v6.42
		h-1.939v-14.979h7.465c0.891,0,1.678,0.127,2.363,0.381s1.262,0.584,1.729,0.988s0.82,0.861,1.061,1.369
		S330.967,216.868,330.967,217.378z M319.93,220.267h5.525c0.48,0,0.934-0.076,1.361-0.227s0.805-0.357,1.133-0.623
		c0.328-0.264,0.588-0.572,0.779-0.924c0.191-0.35,0.287-0.729,0.287-1.137c0-0.402-0.09-0.771-0.268-1.111
		c-0.18-0.34-0.428-0.637-0.746-0.887s-0.697-0.445-1.133-0.584c-0.438-0.141-0.908-0.211-1.414-0.211h-5.525V220.267z"/>
	<path fill="#FFFFFF" d="M345.357,220.341c0,1.145,0.18,2.139,0.543,2.98c0.361,0.84,0.838,1.539,1.428,2.094
		c0.588,0.555,1.256,0.965,2.002,1.234c0.748,0.268,1.504,0.402,2.273,0.402c0.793,0,1.512-0.117,2.154-0.354
		c0.641-0.236,1.199-0.551,1.676-0.939c0.475-0.391,0.867-0.834,1.178-1.332s0.531-1.008,0.662-1.531h1.977
		c-0.184,0.773-0.484,1.5-0.904,2.18c-0.418,0.682-0.949,1.271-1.59,1.773c-0.643,0.5-1.393,0.896-2.252,1.186
		c-0.861,0.289-1.828,0.436-2.9,0.436c-1.25,0-2.377-0.186-3.385-0.553c-1.01-0.369-1.869-0.902-2.58-1.602
		c-0.711-0.697-1.26-1.549-1.645-2.555c-0.383-1.006-0.576-2.146-0.576-3.42c0-0.658,0.082-1.305,0.244-1.938
		c0.16-0.635,0.4-1.232,0.719-1.793c0.318-0.562,0.711-1.082,1.18-1.559c0.467-0.475,1.002-0.883,1.604-1.223
		s1.271-0.607,2.01-0.801s1.533-0.289,2.391-0.289c1.082,0,2.051,0.117,2.906,0.354s1.6,0.564,2.232,0.982
		c0.633,0.42,1.164,0.916,1.592,1.492s0.758,1.209,0.994,1.896h-2.055c-0.48-1.125-1.182-1.961-2.102-2.508
		c-0.922-0.547-2.111-0.822-3.568-0.822c-0.908,0-1.742,0.166-2.502,0.494c-0.76,0.33-1.414,0.777-1.965,1.342
		c-0.549,0.566-0.977,1.225-1.283,1.977C345.51,218.698,345.357,219.497,345.357,220.341z"/>
	<path fill="#FFFFFF" d="M373.77,213.114v6.518h9.939v-6.518h1.938v14.979h-1.938v-7.043h-9.939v7.043h-1.938v-14.979H373.77z"/>
	<path fill="#FFFFFF" d="M196.512,240.063l6.639,14.979h-2.018l-2.107-4.768h-7.766l-2.107,4.768h-2.004l6.691-14.979H196.512z
		 M195.15,241.544l-3.354,7.527h6.691L195.15,241.544z"/>
	<path fill="#FFFFFF" d="M210.643,250.36c0.045,0.537,0.191,1.029,0.439,1.477s0.582,0.836,1.002,1.164
		c0.418,0.33,0.914,0.586,1.486,0.768c0.57,0.184,1.197,0.273,1.879,0.273c0.611,0,1.195-0.055,1.754-0.166s1.053-0.285,1.48-0.525
		s0.768-0.551,1.021-0.934c0.252-0.383,0.379-0.848,0.379-1.391c0-0.445-0.137-0.822-0.412-1.133
		c-0.275-0.312-0.637-0.58-1.086-0.807c-0.451-0.225-0.961-0.42-1.533-0.584c-0.572-0.166-1.15-0.318-1.734-0.463
		c-0.49-0.113-0.98-0.238-1.473-0.375c-0.494-0.137-0.971-0.291-1.428-0.461c-0.459-0.172-0.887-0.369-1.283-0.592
		c-0.398-0.221-0.742-0.482-1.035-0.783s-0.523-0.643-0.693-1.025s-0.256-0.826-0.256-1.326c0-0.623,0.148-1.172,0.445-1.648
		s0.713-0.875,1.25-1.197s1.18-0.566,1.926-0.736c0.746-0.168,1.564-0.252,2.455-0.252c0.795,0,1.496,0.064,2.107,0.193
		s1.145,0.305,1.598,0.527c0.455,0.221,0.838,0.48,1.152,0.777s0.572,0.611,0.773,0.939c0.201,0.33,0.348,0.67,0.445,1.02
		c0.096,0.352,0.156,0.688,0.184,1.01h-1.979c-0.053-0.5-0.201-0.941-0.445-1.32s-0.557-0.697-0.936-0.955
		c-0.381-0.258-0.818-0.451-1.316-0.58s-1.025-0.193-1.584-0.193c-0.516,0-1.02,0.043-1.512,0.129
		c-0.494,0.086-0.936,0.223-1.324,0.414c-0.389,0.189-0.701,0.438-0.941,0.746c-0.24,0.307-0.361,0.684-0.361,1.127
		c0,0.457,0.137,0.846,0.406,1.164c0.271,0.318,0.633,0.594,1.088,0.822c0.453,0.229,0.973,0.426,1.557,0.59
		c0.586,0.166,1.188,0.326,1.809,0.484c0.488,0.129,0.979,0.26,1.473,0.391c0.492,0.133,0.965,0.285,1.414,0.457
		s0.869,0.367,1.258,0.586c0.387,0.217,0.727,0.471,1.014,0.762c0.289,0.289,0.514,0.623,0.674,0.998
		c0.162,0.377,0.242,0.807,0.242,1.295c0,0.729-0.162,1.371-0.49,1.926c-0.328,0.557-0.783,1.02-1.369,1.391
		c-0.584,0.373-1.277,0.654-2.082,0.844c-0.803,0.189-1.68,0.285-2.631,0.285c-0.855,0-1.689-0.121-2.502-0.361
		c-0.811-0.238-1.533-0.578-2.166-1.02c-0.633-0.439-1.145-0.975-1.533-1.605c-0.389-0.629-0.596-1.338-0.621-2.125H210.643z"/>
	<path fill="#FFFFFF" d="M229.504,250.36c0.043,0.537,0.189,1.029,0.438,1.477c0.25,0.447,0.584,0.836,1.002,1.164
		c0.42,0.33,0.916,0.586,1.486,0.768c0.572,0.184,1.199,0.273,1.879,0.273c0.611,0,1.197-0.055,1.756-0.166s1.051-0.285,1.479-0.525
		s0.77-0.551,1.021-0.934c0.254-0.383,0.381-0.848,0.381-1.391c0-0.445-0.139-0.822-0.412-1.133
		c-0.275-0.312-0.639-0.58-1.088-0.807c-0.449-0.225-0.961-0.42-1.531-0.584c-0.572-0.166-1.15-0.318-1.736-0.463
		c-0.488-0.113-0.979-0.238-1.473-0.375c-0.492-0.137-0.969-0.291-1.428-0.461c-0.457-0.172-0.885-0.369-1.283-0.592
		c-0.396-0.221-0.742-0.482-1.033-0.783c-0.293-0.301-0.525-0.643-0.695-1.025s-0.254-0.826-0.254-1.326
		c0-0.623,0.148-1.172,0.445-1.648c0.295-0.477,0.713-0.875,1.25-1.197s1.178-0.566,1.924-0.736
		c0.746-0.168,1.564-0.252,2.455-0.252c0.795,0,1.498,0.064,2.109,0.193s1.143,0.305,1.598,0.527
		c0.453,0.221,0.838,0.48,1.152,0.777s0.57,0.611,0.771,0.939c0.201,0.33,0.35,0.67,0.445,1.02c0.096,0.352,0.158,0.688,0.184,1.01
		h-1.977c-0.053-0.5-0.201-0.941-0.445-1.32s-0.557-0.697-0.938-0.955c-0.379-0.258-0.818-0.451-1.314-0.58
		c-0.498-0.129-1.027-0.193-1.586-0.193c-0.514,0-1.018,0.043-1.512,0.129s-0.934,0.223-1.322,0.414
		c-0.389,0.189-0.703,0.438-0.943,0.746c-0.24,0.307-0.359,0.684-0.359,1.127c0,0.457,0.135,0.846,0.406,1.164
		c0.27,0.318,0.633,0.594,1.086,0.822s0.973,0.426,1.559,0.59c0.584,0.166,1.188,0.326,1.807,0.484
		c0.488,0.129,0.98,0.26,1.473,0.391c0.494,0.133,0.965,0.285,1.414,0.457c0.451,0.172,0.869,0.367,1.258,0.586
		c0.389,0.217,0.727,0.471,1.016,0.762c0.287,0.289,0.512,0.623,0.674,0.998c0.162,0.377,0.242,0.807,0.242,1.295
		c0,0.729-0.164,1.371-0.49,1.926c-0.328,0.557-0.785,1.02-1.369,1.391c-0.586,0.373-1.279,0.654-2.082,0.844
		s-1.682,0.285-2.633,0.285c-0.855,0-1.688-0.121-2.5-0.361c-0.812-0.238-1.535-0.578-2.168-1.02
		c-0.633-0.439-1.143-0.975-1.531-1.605c-0.389-0.629-0.596-1.338-0.623-2.125H229.504z"/>
	<path fill="#FFFFFF" d="M262.924,247.536c0,1.152-0.182,2.211-0.543,3.178c-0.363,0.967-0.893,1.799-1.592,2.496
		c-0.697,0.699-1.555,1.24-2.572,1.627s-2.18,0.58-3.49,0.58c-1.309,0-2.473-0.193-3.49-0.58c-1.016-0.387-1.871-0.928-2.566-1.627
		c-0.693-0.697-1.221-1.529-1.584-2.496c-0.361-0.967-0.543-2.025-0.543-3.178s0.182-2.211,0.543-3.174
		c0.363-0.961,0.891-1.789,1.584-2.48c0.695-0.689,1.551-1.229,2.566-1.615c1.018-0.387,2.182-0.58,3.49-0.58
		c1.311,0,2.473,0.193,3.49,0.58s1.875,0.926,2.572,1.615c0.699,0.691,1.229,1.52,1.592,2.48
		C262.742,245.325,262.924,246.384,262.924,247.536z M260.973,247.536c0-1.01-0.164-1.912-0.49-2.711
		c-0.328-0.799-0.773-1.475-1.336-2.029s-1.225-0.979-1.984-1.268s-1.57-0.436-2.436-0.436c-0.881,0-1.701,0.146-2.461,0.436
		s-1.42,0.713-1.979,1.268s-0.996,1.23-1.314,2.029c-0.32,0.799-0.479,1.701-0.479,2.711s0.158,1.914,0.479,2.717
		c0.318,0.801,0.756,1.48,1.314,2.035s1.219,0.979,1.979,1.271s1.58,0.439,2.461,0.439c0.865,0,1.676-0.146,2.436-0.439
		s1.422-0.717,1.984-1.271s1.008-1.234,1.336-2.035C260.809,249.45,260.973,248.546,260.973,247.536z"/>
	<path fill="#FFFFFF" d="M270.51,247.29c0,1.145,0.182,2.137,0.543,2.979c0.363,0.842,0.84,1.539,1.428,2.094
		c0.59,0.555,1.258,0.967,2.004,1.234c0.746,0.27,1.504,0.402,2.271,0.402c0.795,0,1.514-0.117,2.154-0.354
		c0.643-0.236,1.201-0.549,1.676-0.939c0.477-0.391,0.869-0.834,1.18-1.332c0.309-0.496,0.529-1.006,0.66-1.529h1.979
		c-0.184,0.773-0.486,1.5-0.904,2.18c-0.42,0.68-0.949,1.271-1.592,1.771c-0.641,0.502-1.393,0.896-2.252,1.188
		c-0.859,0.289-1.826,0.434-2.9,0.434c-1.248,0-2.377-0.184-3.385-0.553s-1.867-0.902-2.58-1.6
		c-0.711-0.697-1.258-1.551-1.643-2.557c-0.385-1.004-0.576-2.145-0.576-3.418c0-0.66,0.08-1.305,0.242-1.939
		c0.162-0.633,0.402-1.23,0.721-1.793s0.711-1.08,1.178-1.557s1.002-0.885,1.604-1.225c0.604-0.34,1.273-0.605,2.012-0.799
		c0.736-0.193,1.533-0.291,2.389-0.291c1.082,0,2.051,0.119,2.906,0.355s1.6,0.562,2.234,0.982c0.633,0.418,1.162,0.916,1.59,1.492
		s0.76,1.207,0.996,1.895h-2.057c-0.48-1.123-1.18-1.959-2.102-2.508c-0.922-0.547-2.111-0.82-3.568-0.82
		c-0.908,0-1.742,0.164-2.5,0.494c-0.76,0.328-1.416,0.777-1.965,1.342c-0.551,0.566-0.979,1.225-1.283,1.977
		C270.662,245.646,270.51,246.444,270.51,247.29z"/>
	<path fill="#FFFFFF" d="M293.324,240.063v14.979h-1.951v-14.979H293.324z"/>
	<path fill="#FFFFFF" d="M309.762,240.063l6.639,14.979h-2.018l-2.107-4.768h-7.766l-2.107,4.768h-2.004l6.691-14.979H309.762z
		 M308.4,241.544l-3.354,7.527h6.691L308.4,241.544z"/>
	<path fill="#FFFFFF" d="M333.021,240.063v1.449h-6.051v13.529h-1.938v-13.529h-6.035v-1.449H333.021z"/>
	<path fill="#FFFFFF" d="M341.732,240.063v14.979h-1.951v-14.979H341.732z"/>
	<path fill="#FFFFFF" d="M365.111,247.536c0,1.152-0.182,2.211-0.545,3.178c-0.361,0.967-0.893,1.799-1.59,2.496
		c-0.699,0.699-1.557,1.24-2.574,1.627c-1.016,0.387-2.18,0.58-3.488,0.58c-1.311,0-2.473-0.193-3.49-0.58s-1.873-0.928-2.566-1.627
		c-0.693-0.697-1.223-1.529-1.584-2.496c-0.363-0.967-0.545-2.025-0.545-3.178s0.182-2.211,0.545-3.174
		c0.361-0.961,0.891-1.789,1.584-2.48c0.693-0.689,1.549-1.229,2.566-1.615s2.18-0.58,3.49-0.58c1.309,0,2.473,0.193,3.488,0.58
		c1.018,0.387,1.875,0.926,2.574,1.615c0.697,0.691,1.229,1.52,1.59,2.48C364.93,245.325,365.111,246.384,365.111,247.536z
		 M363.16,247.536c0-1.01-0.164-1.912-0.492-2.711c-0.326-0.799-0.771-1.475-1.336-2.029c-0.562-0.555-1.223-0.979-1.982-1.268
		s-1.572-0.436-2.436-0.436c-0.883,0-1.703,0.146-2.463,0.436s-1.418,0.713-1.977,1.268s-0.998,1.23-1.316,2.029
		s-0.479,1.701-0.479,2.711s0.16,1.914,0.479,2.717c0.318,0.801,0.758,1.48,1.316,2.035s1.217,0.979,1.977,1.271
		s1.58,0.439,2.463,0.439c0.863,0,1.676-0.146,2.436-0.439s1.42-0.717,1.982-1.271c0.564-0.555,1.01-1.234,1.336-2.035
		C362.996,249.45,363.16,248.546,363.16,247.536z"/>
	<path fill="#FFFFFF" d="M374.398,240.063l9.297,12.949v-12.949h1.938v14.979h-2.592l-9.297-12.939v12.939h-1.939v-14.979H374.398z"
		/>
</g>
</svg>
