<?xml version="1.0" encoding="utf-8"?>
<!-- Generator: Adobe Illustrator 16.0.0, SVG Export Plug-In . SVG Version: 6.00 Build 0)  -->
<!DOCTYPE svg PUBLIC "-//W3C//DTD SVG 1.1//EN" "http://www.w3.org/Graphics/SVG/1.1/DTD/svg11.dtd">
<svg version="1.1" id="Layer_1" xmlns="http://www.w3.org/2000/svg" xmlns:xlink="http://www.w3.org/1999/xlink" x="0px" y="0px"
	 width="437.048px" height="414.761px" viewBox="0 0 437.048 414.761" enable-background="new 0 0 437.048 414.761"
	 xml:space="preserve">
<path fill="#FFFFFF" d="M127.012,285.699l20.502,46.26h-6.229l-6.51-14.725h-23.98l-6.512,14.725h-6.186l20.664-46.26H127.012z
	 M122.805,290.275l-10.352,23.246h20.664L122.805,290.275z"/>
<path fill="#FFFFFF" d="M168.783,285.699h21.352c2.75,0,5.178,0.395,7.279,1.178c2.104,0.785,3.869,1.805,5.297,3.051
	c1.43,1.25,2.516,2.658,3.256,4.229s1.113,3.141,1.113,4.709c0,1.68-0.373,3.316-1.113,4.908s-1.834,3.006-3.275,4.244
	c-1.443,1.238-3.215,2.232-5.318,2.984c-2.102,0.752-4.516,1.127-7.238,1.127H174.77v19.83h-5.986V285.699z M174.77,307.785h15.365
	c1.457,0,2.846-0.232,4.166-0.695c1.32-0.465,2.486-1.105,3.498-1.924c1.01-0.818,1.812-1.768,2.406-2.852
	c0.592-1.084,0.891-2.256,0.891-3.516c0-1.238-0.277-2.381-0.83-3.432c-0.555-1.051-1.322-1.963-2.307-2.736
	c-0.982-0.773-2.143-1.377-3.477-1.807c-1.334-0.432-2.783-0.646-4.348-0.646H174.77V307.785z"/>
<path fill="#FFFFFF" d="M268.385,298.865c0,1.15-0.168,2.277-0.506,3.383s-0.844,2.15-1.516,3.133
	c-0.674,0.984-1.506,1.885-2.488,2.703c-0.984,0.818-2.137,1.525-3.457,2.123c1.48,0.309,2.689,0.779,3.619,1.408
	c0.932,0.629,1.658,1.359,2.184,2.191c0.525,0.826,0.891,1.732,1.092,2.717c0.203,0.982,0.303,1.984,0.303,3v6.965
	c0,0.994,0.168,1.961,0.508,2.902c0.336,0.938,0.76,1.795,1.271,2.568h-6.51c-0.27-0.354-0.479-0.758-0.627-1.211
	s-0.262-0.922-0.344-1.408c-0.08-0.486-0.135-0.957-0.162-1.408c-0.025-0.455-0.039-0.848-0.039-1.18v-7.361
	c0-0.883-0.182-1.762-0.547-2.635c-0.363-0.875-0.957-1.654-1.779-2.34c-0.822-0.684-1.895-1.234-3.215-1.656
	c-1.32-0.42-2.926-0.631-4.812-0.631h-17.064v19.83h-5.986v-46.26h23.051c2.748,0,5.184,0.395,7.301,1.178
	c2.113,0.785,3.895,1.805,5.336,3.051c1.443,1.25,2.535,2.658,3.277,4.229C268.014,295.727,268.385,297.297,268.385,298.865
	 M234.295,307.785h17.064c1.482,0,2.885-0.232,4.205-0.695c1.322-0.465,2.488-1.105,3.498-1.924
	c1.012-0.818,1.814-1.768,2.406-2.852c0.594-1.084,0.889-2.256,0.889-3.516c0-1.238-0.275-2.381-0.826-3.432
	c-0.553-1.051-1.322-1.963-2.307-2.736s-2.148-1.377-3.498-1.807c-1.348-0.432-2.805-0.646-4.367-0.646h-17.064V307.785z"/>
<path fill="#FFFFFF" d="M318.447,285.699l20.502,46.26h-6.229l-6.51-14.725h-23.98l-6.51,14.725h-6.188l20.664-46.26H318.447z
	 M314.242,290.275l-10.354,23.246h20.664L314.242,290.275z"/>
<path fill="#FFFFFF" d="M228.336,268.174c-0.922,0-2.721-0.449-6.059-2.59c-0.779-0.5-1.6-1.018-2.305-1.408
	c-0.227-0.125-0.443-0.238-0.646-0.338c-0.133-0.062-0.277-0.088-0.352-0.098c0.004-0.01-0.117-0.045-0.451-0.045
	c-0.299,0-0.535,0.043-0.723,0.131c-0.008,0.004-0.018,0.008-0.025,0.014c-0.268,0.107-0.699,0.336-0.703,0.34
	c-0.584,0.322-1.273,0.744-2.305,1.404c-3.336,2.141-5.135,2.59-6.055,2.59c-0.057,0-0.109-0.002-0.16-0.006
	c0.672-2.285,0.697-3.688,0.092-4.523c-0.365-0.504-0.92-0.77-1.605-0.77c-0.846,0-1.775,0.402-2.676,0.791
	c-0.447,0.195-0.908,0.396-1.236,0.482c-1.373,0.363-2.555,0.557-3.42,0.561c5.912-4.545,7.254-27.457,7.309-28.445l-0.012-0.344
	c-0.264-5.508-1.129-23.771-1.129-27.666c0-10.984-10.34-11.111-10.781-11.111l-0.271-0.006c-0.26-0.008-0.539-0.014-0.869-0.014
	c-4.041,0-10.818,1.154-10.818,8.896c0,8.996-0.766,15.631-4.678,22.926c-3.99,7.438-10.691,12.555-20.486,15.641
	c-0.42,0.131-0.826,0.197-1.209,0.197c-1.973,0-3.143-1.76-3.395-3.395c-0.246-1.598,0.297-3.725,2.631-4.461
	c5.6-1.766,14.164-7.156,15.59-10.463c0.322-0.746,0.34-1.426,0.053-2.02c-0.426-0.879-1.582-1.307-3.535-1.307
	c-6.176,0-20.088,4.168-25.832,12.471c-0.783,1.133-1.932,1.756-3.229,1.756c-1.584,0-3.164-0.91-3.846-2.213
	c-0.557-1.061-0.428-2.273,0.361-3.416c5.518-7.971,16.09-12.494,21.9-14.48c3.992-1.363,7.719-1.385,10.713-1.402
	c2.715-0.016,4.857-0.027,6.381-0.975c1.113-0.691,1.75-1.834,1.842-3.307c0.164-2.6-1.463-5.688-4.145-7.865
	c-2.088-1.693-6.594-2.971-10.479-2.971c-2.145,0-5.148,0.375-7.299,2.156c-0.475,0.395-0.838,1.127-1.389,2.232
	c-1.076,2.162-2.875,5.771-6.77,9.646c-5.6,5.58-15.436,11.205-21.928,12.541c-0.297,0.061-0.592,0.092-0.875,0.092
	c-2.312,0-3.768-2.051-3.965-3.98c-0.15-1.502,0.471-3.268,2.672-3.719c7.201-1.484,20.865-10.008,22.844-14.252
	c0.385-0.83,0.41-1.566,0.072-2.188c-0.41-0.76-1.27-1.146-2.551-1.146c-5.236,0-20.309,7.111-26.127,15.707
	c-0.775,1.145-1.916,1.775-3.211,1.775c-1.586,0-3.123-0.887-3.822-2.205c-0.57-1.072-0.453-2.299,0.33-3.457
	c6.758-9.982,21.006-17.68,36.297-19.609c3.164-0.398,6.506-0.6,9.936-0.6c8.354,0,15.076,1.178,17.607,1.621l0.691,0.119
	c0.455,0.074,0.916,0.111,1.371,0.111c4.496,0,8.592-3.639,8.592-7.633c0-8.34-13.131-19.424-19.137-19.424
	c-0.77,0-1.434,0.172-1.973,0.512c-1.301,0.82-2.684,2.312-4.436,4.201c-3.488,3.756-8.752,9.428-17.799,14.494
	c-14.143,7.92-31.613,10.102-40.768,10.697c-0.111,0.008-0.219,0.012-0.324,0.012c-2.238,0-3.295-1.68-3.35-3.344
	c-0.061-1.898,1.172-3.904,3.645-4.066c0.301-0.02,29.947-2.281,29.947-7.314c0-1.705-1.896-2.309-7.25-2.309
	c-3.928,0-9.02,0.354-13.941,0.697c-4.062,0.283-7.883,0.549-10.482,0.568c-2.484,0-3.656-1.789-3.693-3.451
	c-0.041-1.76,1.1-3.709,3.693-3.824c2.398-0.107,4.68-0.236,6.883-0.359c4.641-0.262,9.006-0.508,13.266-0.508
	c4.094,0,7.709,0.219,11.379,0.689c2.139,0.273,5.826,1.42,8.52,2.258c0.592,0.184,1.133,0.354,1.604,0.494
	c0.119,0.037,0.264,0.043,0.34,0.043c4.582,0,14.57-9.24,14.643-13.543c0.02-1.227-0.494-2.381-1.525-3.428
	c-2.121-2.158-6.459-3.666-10.549-3.666c-1,0-1.949,0.09-2.82,0.268c-0.883,0.182-1.512,0.719-2.383,1.463
	c-1.451,1.236-3.641,3.104-8.824,4.582c-6.412,1.828-15.527,2.211-22.045,2.211c-3.51,0-6.551-0.109-8.484-0.201
	c-2.48-0.119-3.732-2.076-3.688-3.945c0.041-1.664,1.107-3.342,3.402-3.342c0.08,0,0.162,0.002,0.246,0.004
	c1.773,0.086,3.922,0.131,6.209,0.131c7.818,0,26.072-0.457,26.707-4.688c0.084-0.555-0.068-1.074-0.457-1.541
	c-2.273-2.729-14.436-3.338-27.775-3.768l-2.143-0.07c-2.24-0.078-3.008-1.684-2.984-3.035c0.037-2.201,1.857-4.541,5.158-4.541
	c0.105,0,0.215,0.002,0.324,0.008c22.824,1.004,38.777,6.271,55.705,13.869c10.33,4.639,18.752,10.256,25.033,16.697
	c3.031,3.105,7.793,9.748,9.162,13.34c1.131,2.967,3.268,4.668,5.861,4.668c2.059,0,4.057-1.162,5.348-3.109
	c2.121-3.207,1.951-6.639-0.59-11.842c-2.191-4.49-6.607-7.926-13.295-13.127l-2.377-1.855c-3.154-2.469-6.521-6.059-9.494-9.225
	c-3.756-4.002-7-7.459-9.121-7.875c-0.674-0.133-1.436-0.197-2.328-0.197c-1.402,0-2.951,0.154-4.746,0.332
	c-2.395,0.238-5.111,0.508-8.336,0.508c-3.955,0-7.816-0.414-11.805-1.266c-14.783-3.154-31.197-12.086-36.592-15.021
	c-1.576-0.857-2.275-2.326-1.867-3.93c0.418-1.643,1.965-3.305,4.113-3.305c0.633,0,1.277,0.152,1.914,0.451
	c1.9,0.895,4.559,2.307,7.373,3.803c7.232,3.842,16.232,8.623,19.857,8.623c1.438,0,2.021-0.678,2.258-1.248
	c2.115-5.121-14.768-17.305-22.602-20.893c-1.494-0.686-2.176-2.07-1.818-3.703c0.395-1.814,2.008-3.691,4.02-3.691
	c0.641,0,1.285,0.197,1.912,0.586c8.277,5.129,17.605,11.668,24.033,21.277c0.998,1.492,1.67,3.014,2.316,4.486
	c1.064,2.42,1.98,4.502,3.99,5.928c1.223,0.869,3.568,1.408,6.119,1.408c4.254,0,7.619-1.4,9.004-3.746
	c0.996-1.68,1.029-3.922,0.096-6.311c-1.281-3.279-4.08-6.064-6.965-6.928c-4.176-1.254-8.121-3.221-14.387-6.645
	c-7.1-3.883-13.938-10.244-17.637-14.512c-1.104-1.271-1.373-2.797-0.74-4.186c0.617-1.352,1.936-2.26,3.279-2.26
	c0.973,0,1.904,0.48,2.691,1.389c4.605,5.312,18.824,16.898,22.969,16.896c0.615,0,1.105-0.193,1.459-0.576
	c3.436-3.738-10.221-18.76-16.252-25.043c-1.119-1.166-1.404-2.672-0.785-4.131c0.703-1.648,2.287-2.799,3.855-2.799
	c0.936,0,1.812,0.438,2.539,1.266c7.982,9.113,17.617,21.244,21.285,34.25l1.047,2.598c3.672,9.072,6.844,16.902,12.85,25.299
	c5.365,7.504,15.848,17.023,19.977,17.023c1.938-0.049,3.428-1.066,4.314-2.943c2.107-4.463,0.393-13.184-3.6-18.299
	c-0.918-1.174-1.26-1.447-2.699-2.602c-1.51-1.211-4.318-3.465-10.502-8.938c-18.99-16.814-24.723-32.695-31.357-51.082
	l-0.754-2.086c-0.416-1.146-0.342-2.17,0.211-2.961c0.633-0.902,1.857-1.463,3.195-1.463c1.477,0,3.33,0.758,4.1,2.881
	c0.699,1.938,1.502,4.596,2.354,7.41c3.504,11.6,5.441,17.064,8.053,17.064c0.328,0,0.643-0.086,0.936-0.26
	c3.371-1.975,1.508-12.602-1.279-26.289c-0.207-1.012-0.398-1.957-0.568-2.809c-0.32-1.623,0.174-2.646,0.645-3.217
	c0.627-0.764,1.617-1.219,2.65-1.219c1.355,0,2.947,0.828,3.35,3.152l0.156,0.895c0.996,5.729,2.5,14.387,2.586,20.34
	c0.074,5.322-0.49,8.707-0.945,11.426c-0.404,2.432-0.725,4.35-0.402,6.545c0.666,4.51,4.289,8.031,8.486,12.109l0.645,0.627
	c4.535,4.416,7.354,6.219,9.73,6.219c0.867,0,1.658-0.232,2.416-0.707c3.83-2.398,1.869-11.139,0.189-14.34
	c-1.117-2.129-2.127-3.348-3.195-4.639c-1.867-2.254-3.797-4.586-6.49-12.643c-2.188-6.551-3.771-16.033-4.93-22.957
	c-0.318-1.918-0.607-3.643-0.867-5.061c-0.244-1.342,0.055-2.602,0.842-3.547c0.77-0.922,1.91-1.473,3.049-1.473
	c1.521,0,2.621,1.041,2.939,2.783c0.309,1.682,0.641,3.596,0.994,5.637c2.982,17.236,5.213,28.533,8.883,28.533
	c0.162,0,0.322-0.02,0.479-0.061c0.879-0.225,3.551-0.91,0.979-35.299c0.002-2.307,1.336-3.932,3.244-3.932
	c2.125,0,3.854,1.783,3.854,3.973l0.285,134.381c0,4.947,2.471,6.359,3.533,6.736c0.291,0.104,0.588,0.174,0.879,0.207
	c0.062,0.016,0.107,0.027,0.172,0.027c0.02,0,0.129-0.01,0.148-0.014c0.082,0.006,0.15,0.008,0.209,0.008
	c0.133,0,0.207-0.012,0.279-0.021c0.006,0,0.01,0,0.016,0c0.055,0,0.135-0.014,0.213-0.039c0.006,0,0.012,0,0.02,0
	c0.137,0,0.453-0.092,0.672-0.17c1.062-0.375,3.533-1.785,3.533-6.736l0.285-134.377c0-2.191,1.729-3.975,3.852-3.975
	c1.91,0,3.244,1.648,3.244,4.006c-2.576,34.314,0.102,35,0.98,35.225c0.158,0.041,0.32,0.061,0.48,0.061
	c3.67,0,5.898-11.285,8.877-28.504c0.367-2.121,0.693-4.008,0.998-5.666c0.318-1.742,1.418-2.783,2.939-2.783
	c1.141,0,2.279,0.551,3.049,1.473c0.787,0.945,1.086,2.205,0.84,3.547c-0.244,1.342-0.516,2.959-0.814,4.756l-0.041,0.246
	c-1.162,6.957-2.752,16.471-4.941,23.016c-2.691,8.059-4.621,10.389-6.486,12.645c-1.07,1.293-2.08,2.514-3.195,4.637
	c-1.01,1.926-5.221,12.277-0.852,15.014c0.664,0.416,1.422,0.625,2.254,0.625c2.652,0,6.227-2.227,10.93-6.811l0.627-0.609
	c4.207-4.082,7.84-7.609,8.506-12.127c0.324-2.203,0.004-4.117-0.4-6.539c-0.453-2.729-1.018-6.119-0.943-11.432
	c0.08-5.963,1.588-14.613,2.584-20.336l0.156-0.896c0.404-2.326,1.996-3.154,3.352-3.154c1.031,0,2.021,0.455,2.646,1.217
	c0.471,0.574,0.965,1.596,0.643,3.217c-0.17,0.859-0.363,1.809-0.57,2.828c-2.783,13.678-4.643,24.299-1.271,26.273
	c0.293,0.172,0.607,0.258,0.934,0.258c2.613,0,4.545-5.451,8.039-17.021c0.871-2.881,1.676-5.543,2.367-7.453
	c0.768-2.123,2.621-2.881,4.1-2.881c1.336,0,2.559,0.561,3.191,1.463c0.553,0.789,0.627,1.812,0.211,2.959l-0.752,2.08
	c-6.633,18.391-12.361,34.271-31.357,51.09c-6.17,5.461-8.977,7.715-10.484,8.924c-1.459,1.168-1.803,1.443-2.717,2.615
	c-3.965,5.086-5.648,13.793-3.533,18.27c0.896,1.895,2.369,2.924,4.262,2.971c4.199,0,14.486-9.359,19.965-17.021
	c6-8.391,9.168-16.211,12.834-25.266l1.025-2.527c3.697-13.092,13.336-25.234,21.318-34.354c0.727-0.828,1.605-1.266,2.541-1.266
	c1.566,0,3.152,1.152,3.855,2.801c0.621,1.457,0.336,2.963-0.783,4.127c-6.031,6.285-19.686,21.305-16.256,25.043
	c0.354,0.385,0.844,0.578,1.457,0.578c4.148,0,18.369-11.586,22.971-16.896c0.789-0.908,1.719-1.389,2.693-1.389
	c1.346,0,2.664,0.908,3.281,2.262c0.633,1.387,0.363,2.912-0.74,4.182c-3.699,4.27-10.537,10.633-17.639,14.514
	c-6.266,3.424-10.211,5.391-14.387,6.645c-2.883,0.863-5.682,3.646-6.963,6.928c-0.936,2.389-0.902,4.631,0.092,6.312
	c1.389,2.344,4.754,3.744,9.006,3.744c2.551,0,4.896-0.539,6.119-1.406c2.008-1.428,2.922-3.502,3.979-5.904
	c0.654-1.484,1.326-3.014,2.328-4.512c6.428-9.609,15.756-16.148,24.031-21.277c0.629-0.389,1.273-0.586,1.914-0.586
	c2.014,0,3.625,1.877,4.021,3.693c0.355,1.633-0.324,3.016-1.818,3.701c-7.834,3.586-24.715,15.77-22.602,20.891
	c0.234,0.57,0.816,1.25,2.258,1.25c3.629,0,12.602-4.768,19.811-8.598c2.838-1.508,5.52-2.934,7.422-3.828
	c0.639-0.299,1.281-0.451,1.916-0.451c2.146,0,3.691,1.662,4.109,3.303c0.406,1.604-0.291,3.074-1.869,3.932
	c-5.393,2.936-21.801,11.867-36.594,15.021c-3.986,0.852-7.848,1.266-11.803,1.266c-3.227,0-5.936-0.27-8.326-0.508
	c-1.805-0.178-3.355-0.332-4.754-0.332c-0.893,0-1.656,0.064-2.332,0.197c-2.117,0.414-5.357,3.867-9.109,7.865
	c-2.982,3.18-6.352,6.768-9.506,9.236l-2.463,1.92c-6.744,5.242-10.816,8.406-13.197,13.043c-2.354,4.586-3.252,7.941-0.881,11.523
	c1.355,2.045,3.482,3.264,5.691,3.264c2.598,0,4.713-1.635,5.799-4.484c1.369-3.588,6.131-10.232,9.16-13.342
	c6.281-6.439,14.705-12.057,25.035-16.697c16.932-7.598,32.885-12.865,55.711-13.869c0.107-0.006,0.215-0.008,0.324-0.008
	c3.297,0,5.117,2.34,5.156,4.541c0.023,1.352-0.746,2.957-2.988,3.035l-2.141,0.07c-13.338,0.43-25.498,1.039-27.771,3.766
	c-0.391,0.467-0.545,0.986-0.461,1.545c0.633,4.229,18.885,4.686,26.703,4.686c2.291,0,4.438-0.045,6.211-0.131l0.244-0.004
	c2.295,0,3.363,1.68,3.404,3.344c0.045,1.869-1.209,3.824-3.689,3.943c-1.93,0.092-4.969,0.201-8.48,0.201
	c-6.518,0-15.635-0.383-22.049-2.211c-5.182-1.48-7.369-3.346-8.816-4.58c-0.877-0.744-1.508-1.283-2.391-1.465
	c-0.869-0.178-1.818-0.268-2.818-0.268c-4.086,0-8.424,1.508-10.547,3.664c-1.031,1.049-1.545,2.203-1.525,3.428
	c0.07,4.305,10.057,13.547,14.639,13.545c0.076,0,0.221-0.006,0.348-0.045c0.439-0.133,1.629-0.502,1.629-0.502
	c2.688-0.834,6.359-1.975,8.488-2.248c3.67-0.471,7.285-0.689,11.379-0.689c4.256,0,8.539,0.24,13.072,0.496
	c2.342,0.133,4.648,0.262,7.076,0.371c2.596,0.115,3.734,2.062,3.695,3.824c-0.037,1.662-1.197,3.451-3.654,3.451
	c-2.654-0.02-6.473-0.287-10.516-0.568c-4.93-0.344-10.021-0.697-13.947-0.697c-5.354,0-7.252,0.604-7.252,2.309
	c0,5.033,29.646,7.295,29.947,7.314c2.475,0.162,3.709,2.168,3.646,4.066c-0.055,1.664-1.111,3.344-3.348,3.344
	c-0.107,0-0.215-0.004-0.326-0.012c-9.154-0.596-26.625-2.775-40.771-10.697c-9.045-5.066-14.309-10.736-17.791-14.488
	c-1.762-1.896-3.146-3.389-4.443-4.207c-0.537-0.34-1.201-0.512-1.971-0.512c-6.006,0-19.137,11.084-19.137,19.424
	c0,1.914,0.955,3.857,2.621,5.332c1.648,1.463,3.826,2.301,5.975,2.301c0.455,0,0.914-0.037,1.363-0.111l0.688-0.117
	c2.529-0.443,9.244-1.623,17.615-1.623c3.43,0,6.771,0.201,9.934,0.6c15.293,1.928,29.541,9.625,36.301,19.609
	c0.783,1.158,0.9,2.385,0.332,3.457c-0.701,1.318-2.238,2.205-3.826,2.205c-1.293,0-2.434-0.631-3.209-1.775
	c-5.816-8.596-20.891-15.707-26.127-15.707c-1.283,0-2.141,0.387-2.553,1.148c-0.336,0.621-0.312,1.355,0.074,2.186
	c1.977,4.244,15.641,12.768,22.844,14.25c2.203,0.453,2.824,2.219,2.672,3.721c-0.197,1.93-1.652,3.98-3.965,3.98
	c-0.283,0-0.576-0.031-0.875-0.094c-6.492-1.334-16.33-6.959-21.932-12.539c-3.889-3.873-5.684-7.475-6.756-9.627
	c-0.559-1.119-0.924-1.857-1.398-2.25c-2.15-1.783-5.156-2.158-7.299-2.158c-3.889,0-8.393,1.277-10.479,2.971
	c-2.68,2.178-4.309,5.266-4.145,7.865c0.092,1.473,0.729,2.615,1.84,3.307c1.523,0.947,3.664,0.959,6.373,0.975
	c3,0.018,6.729,0.039,10.723,1.404c5.811,1.984,16.383,6.508,21.898,14.479c0.791,1.143,0.92,2.355,0.363,3.416
	c-0.682,1.303-2.262,2.213-3.844,2.213c-1.299,0-2.447-0.625-3.23-1.756c-5.748-8.305-19.66-12.471-25.832-12.471
	c-1.955,0-3.111,0.428-3.537,1.307c-0.287,0.592-0.27,1.271,0.053,2.02c1.428,3.309,9.992,8.699,15.59,10.463
	c2.334,0.736,2.877,2.863,2.633,4.461c-0.252,1.635-1.422,3.395-3.395,3.395c-0.383,0-0.789-0.066-1.209-0.197
	c-9.795-3.086-16.496-8.201-20.488-15.641c-3.91-7.289-4.676-13.926-4.676-22.926c0-7.742-6.777-8.896-10.818-8.896
	c-0.338,0-0.623,0.008-0.84,0.014l-0.318,0.006c-0.439,0-10.766,0.129-10.766,11.111c0,4.4-1.127,27.67-1.139,27.904
	c0.051,1.014,1.297,23.949,7.307,28.551c-0.865-0.004-2.045-0.197-3.418-0.561c-0.32-0.084-0.752-0.271-1.211-0.469
	c-0.918-0.396-1.855-0.805-2.705-0.805c-0.686,0-1.242,0.266-1.605,0.77c-0.605,0.836-0.576,2.238,0.096,4.523
	C228.445,268.172,228.393,268.174,228.336,268.174z M224.094,212.703l-2.215-2.205l-3.354,3.342l-3.359-3.342l-2.213,2.205
	l3.354,3.344l-3.354,3.344l2.213,2.209l3.359-3.348l3.354,3.348l2.215-2.209l-3.357-3.344L224.094,212.703z M221.879,223.936
	l-3.354,3.344l-3.355-3.344l-2.217,2.207l3.354,3.342l-3.354,3.342l2.217,2.207l3.355-3.346l3.354,3.346l2.215-2.207l-3.357-3.342
	l3.357-3.342L221.879,223.936z M221.879,237.373l-3.354,3.34l-3.355-3.34l-2.217,2.203l3.354,3.346l-3.354,3.342l2.217,2.207
	l3.355-3.34l3.354,3.34l2.215-2.207l-3.357-3.342l3.357-3.346L221.879,237.373z"/>
</svg>
